<svg width="122" height="41" viewBox="0 0 122 41" fill="none" xmlns="http://www.w3.org/2000/svg">
<rect x="0.50625" y="0.50625" width="120.488" height="39.4875" rx="6.58125" fill="black"/>
<rect x="0.50625" y="0.50625" width="120.488" height="39.4875" rx="6.58125" stroke="#A6A6A6" strokeWidth="1.0125"/>
<path d="M82.5448 19.4404V21.76H81.0908V23.2813H82.5448V28.45C82.5448 30.215 83.3432 30.921 85.3519 30.921C85.7049 30.921 86.0411 30.879 86.3352 30.8285V29.3241C86.0831 29.3493 85.9234 29.3661 85.646 29.3661C84.7468 29.3661 84.3517 28.9459 84.3517 27.9878V23.2813H86.3352V21.76H84.3517V19.4404H82.5448Z" fill="white"/>
<path d="M91.4522 31.047C94.1249 31.047 95.7638 29.2569 95.7638 26.2901C95.7638 23.3401 94.1165 21.5415 91.4522 21.5415C88.7796 21.5415 87.1323 23.3401 87.1323 26.2901C87.1323 29.2569 88.7712 31.047 91.4522 31.047ZM91.4522 29.4418C89.8806 29.4418 88.9981 28.2904 88.9981 26.2901C88.9981 24.3066 89.8806 23.1468 91.4522 23.1468C93.0155 23.1468 93.9064 24.3066 93.9064 26.2901C93.9064 28.282 93.0155 29.4418 91.4522 29.4418Z" fill="white"/>
<path d="M97.166 30.8706H98.9729V25.4664C98.9729 24.1805 99.9395 23.3149 101.309 23.3149C101.629 23.3149 102.167 23.3737 102.318 23.4241V21.6424C102.125 21.5919 101.78 21.5667 101.511 21.5667C100.318 21.5667 99.3007 22.2223 99.0402 23.1216H98.9057V21.718H97.166V30.8706Z" fill="white"/>
<path d="M106.805 23.0795C108.141 23.0795 109.015 24.0124 109.057 25.4496H104.435C104.535 24.0209 105.468 23.0795 106.805 23.0795ZM109.049 28.3996C108.712 29.114 107.964 29.509 106.872 29.509C105.426 29.509 104.493 28.4921 104.435 26.8868V26.7859H110.898V26.1556C110.898 23.2813 109.36 21.5415 106.813 21.5415C104.233 21.5415 102.594 23.3989 102.594 26.3237C102.594 29.2485 104.199 31.047 106.821 31.047C108.914 31.047 110.377 30.0385 110.788 28.3996H109.049Z" fill="white"/>
<path d="M70.6949 27.4907C70.8343 29.7381 72.7071 31.1754 75.4947 31.1754C78.4739 31.1754 80.338 29.6684 80.338 27.2642C80.338 25.3739 79.2753 24.3285 76.6968 23.7275L75.3117 23.3878C73.6741 23.0045 73.012 22.4905 73.012 21.5933C73.012 20.4608 74.0399 19.7204 75.5818 19.7204C77.0452 19.7204 78.0557 20.4434 78.2387 21.602H80.1377C80.0244 19.4852 78.1603 17.9956 75.6079 17.9956C72.8639 17.9956 71.0346 19.4852 71.0346 21.7239C71.0346 23.5707 72.0712 24.6683 74.3448 25.1997L75.9651 25.5916C77.6289 25.9836 78.3606 26.5586 78.3606 27.5168C78.3606 28.6318 77.2108 29.4419 75.6428 29.4419C73.9615 29.4419 72.7943 28.6841 72.6287 27.4907H70.6949Z" fill="white"/>
<path d="M51.9765 21.5667C50.7326 21.5667 49.6568 22.1887 49.1021 23.2308H48.9676V21.718H47.2279V33.913H49.0349V29.4838H49.1777C49.6568 30.4503 50.6906 31.0218 51.9933 31.0218C54.3045 31.0218 55.7753 29.198 55.7753 26.2901C55.7753 23.3821 54.3045 21.5667 51.9765 21.5667ZM51.4638 29.3998C49.951 29.3998 49.0013 28.2063 49.0013 26.2985C49.0013 24.3822 49.951 23.1888 51.4722 23.1888C53.0018 23.1888 53.9179 24.357 53.9179 26.2901C53.9179 28.2315 53.0018 29.3998 51.4638 29.3998Z" fill="white"/>
<path d="M62.0982 21.5667C60.8543 21.5667 59.7786 22.1887 59.2239 23.2308H59.0894V21.718H57.3497V33.913H59.1566V29.4838H59.2995C59.7786 30.4503 60.8123 31.0218 62.115 31.0218C64.4263 31.0218 65.8971 29.198 65.8971 26.2901C65.8971 23.3821 64.4263 21.5667 62.0982 21.5667ZM61.5855 29.3998C60.0727 29.3998 59.123 28.2063 59.123 26.2985C59.123 24.3822 60.0727 23.1888 61.5939 23.1888C63.1236 23.1888 64.0397 24.357 64.0397 26.2901C64.0397 28.2315 63.1236 29.3998 61.5855 29.3998Z" fill="white"/>
<path d="M43.9859 30.8706H46.0591L41.5206 18.3005H39.4213L34.8828 30.8706H36.8864L38.0449 27.5342H42.836L43.9859 30.8706ZM40.3708 20.5828H40.5189L42.3395 25.8965H38.5415L40.3708 20.5828Z" fill="white"/>
<path d="M36.0967 8.81936V14.8832H38.2861C40.093 14.8832 41.1394 13.7696 41.1394 11.8324C41.1394 9.92455 40.0846 8.81936 38.2861 8.81936H36.0967ZM37.038 9.67662H38.181C39.4375 9.67662 40.1813 10.4751 40.1813 11.845C40.1813 13.2359 39.4501 14.026 38.181 14.026H37.038V9.67662Z" fill="white"/>
<path d="M44.3441 14.9715C45.6804 14.9715 46.4998 14.0764 46.4998 12.593C46.4998 11.118 45.6762 10.2187 44.3441 10.2187C43.0077 10.2187 42.1841 11.118 42.1841 12.593C42.1841 14.0764 43.0035 14.9715 44.3441 14.9715ZM44.3441 14.1688C43.5582 14.1688 43.117 13.5931 43.117 12.593C43.117 11.6013 43.5582 11.0213 44.3441 11.0213C45.1257 11.0213 45.5711 11.6013 45.5711 12.593C45.5711 13.5889 45.1257 14.1688 44.3441 14.1688Z" fill="white"/>
<path d="M53.4781 10.307H52.5746L51.7594 13.799H51.6879L50.7466 10.307H49.881L48.9397 13.799H48.8724L48.053 10.307H47.1369L48.3976 14.8832H49.3263L50.2676 11.513H50.339L51.2845 14.8832H52.2216L53.4781 10.307Z" fill="white"/>
<path d="M54.5186 14.8832H55.4221V12.2064C55.4221 11.492 55.8465 11.0466 56.5147 11.0466C57.1828 11.0466 57.5022 11.4122 57.5022 12.1476V14.8832H58.4057V11.9206C58.4057 10.8322 57.8426 10.2187 56.8214 10.2187C56.1323 10.2187 55.6784 10.5255 55.4557 11.034H55.3885V10.307H54.5186V14.8832Z" fill="white"/>
<path d="M59.8286 14.8832H60.7321V8.521H59.8286V14.8832Z" fill="white"/>
<path d="M64.13 14.9715C65.4664 14.9715 66.2858 14.0764 66.2858 12.593C66.2858 11.118 65.4621 10.2187 64.13 10.2187C62.7937 10.2187 61.9701 11.118 61.9701 12.593C61.9701 14.0764 62.7895 14.9715 64.13 14.9715ZM64.13 14.1688C63.3442 14.1688 62.903 13.5931 62.903 12.593C62.903 11.6013 63.3442 11.0213 64.13 11.0213C64.9116 11.0213 65.3571 11.6013 65.3571 12.593C65.3571 13.5889 64.9116 14.1688 64.13 14.1688Z" fill="white"/>
<path d="M68.9778 14.1983C68.4861 14.1983 68.1289 13.9587 68.1289 13.5469C68.1289 13.1435 68.4147 12.9292 69.045 12.8872L70.1628 12.8157V13.1981C70.1628 13.7654 69.6585 14.1983 68.9778 14.1983ZM68.7466 14.9589C69.3476 14.9589 69.8476 14.6983 70.1208 14.2403H70.1922V14.8832H71.0621V11.7567C71.0621 10.7902 70.4149 10.2187 69.2677 10.2187C68.2298 10.2187 67.4902 10.723 67.3977 11.5088H68.2718C68.3726 11.1852 68.7214 11.0003 69.2257 11.0003C69.8434 11.0003 70.1628 11.2735 70.1628 11.7567V12.1518L68.9231 12.2232C67.8347 12.2904 67.2212 12.7653 67.2212 13.5889C67.2212 14.4252 67.8642 14.9589 68.7466 14.9589Z" fill="white"/>
<path d="M74.1281 14.9589C74.7584 14.9589 75.2921 14.6605 75.5652 14.1604H75.6367V14.8832H76.5023V8.521H75.5989V11.034H75.5316C75.2837 10.5297 74.7542 10.2313 74.1281 10.2313C72.9724 10.2313 72.2286 11.1474 72.2286 12.593C72.2286 14.0428 72.964 14.9589 74.1281 14.9589ZM74.3844 11.0424C75.1408 11.0424 75.6157 11.6433 75.6157 12.5972C75.6157 13.5553 75.145 14.1478 74.3844 14.1478C73.6196 14.1478 73.1615 13.5637 73.1615 12.593C73.1615 11.6307 73.6238 11.0424 74.3844 11.0424Z" fill="white"/>
<path d="M82.3612 14.9715C83.6975 14.9715 84.5169 14.0764 84.5169 12.593C84.5169 11.118 83.6933 10.2187 82.3612 10.2187C81.0248 10.2187 80.2012 11.118 80.2012 12.593C80.2012 14.0764 81.0206 14.9715 82.3612 14.9715ZM82.3612 14.1688C81.5753 14.1688 81.1341 13.5931 81.1341 12.593C81.1341 11.6013 81.5753 11.0213 82.3612 11.0213C83.1428 11.0213 83.5882 11.6013 83.5882 12.593C83.5882 13.5889 83.1428 14.1688 82.3612 14.1688Z" fill="white"/>
<path d="M85.7129 14.8832H86.6164V12.2064C86.6164 11.492 87.0408 11.0466 87.709 11.0466C88.3771 11.0466 88.6965 11.4122 88.6965 12.1476V14.8832H89.6V11.9206C89.6 10.8322 89.0369 10.2187 88.0157 10.2187C87.3266 10.2187 86.8727 10.5255 86.65 11.034H86.5828V10.307H85.7129V14.8832Z" fill="white"/>
<path d="M93.7611 9.16815V10.328H93.0341V11.0886H93.7611V13.673C93.7611 14.5555 94.1603 14.9084 95.1646 14.9084C95.3411 14.9084 95.5092 14.8874 95.6563 14.8622V14.11C95.5302 14.1226 95.4504 14.131 95.3117 14.131C94.8621 14.131 94.6646 13.9209 94.6646 13.4419V11.0886H95.6563V10.328H94.6646V9.16815H93.7611Z" fill="white"/>
<path d="M96.8691 14.8832H97.7726V12.2106C97.7726 11.5172 98.1844 11.0508 98.924 11.0508C99.5627 11.0508 99.9031 11.4206 99.9031 12.1518V14.8832H100.807V11.929C100.807 10.8406 100.206 10.2229 99.2308 10.2229C98.5416 10.2229 98.0583 10.5297 97.8356 11.0424H97.7642V8.521H96.8691V14.8832Z" fill="white"/>
<path d="M104.066 10.9877C104.734 10.9877 105.171 11.4542 105.192 12.1728H102.881C102.931 11.4584 103.398 10.9877 104.066 10.9877ZM105.188 13.6478C105.02 14.005 104.646 14.2025 104.1 14.2025C103.377 14.2025 102.91 13.694 102.881 12.8914V12.8409H106.112V12.5258C106.112 11.0886 105.343 10.2187 104.07 10.2187C102.78 10.2187 101.961 11.1474 101.961 12.6098C101.961 14.0722 102.763 14.9715 104.074 14.9715C105.121 14.9715 105.852 14.4672 106.058 13.6478H105.188Z" fill="white"/>
<path d="M25.078 20.5537C25.0999 18.8517 26.014 17.2412 27.464 16.3498C26.5492 15.0433 25.017 14.215 23.4229 14.1651C21.7227 13.9867 20.0744 15.1825 19.208 15.1825C18.3248 15.1825 16.9909 14.1828 15.5544 14.2124C13.682 14.2729 11.9365 15.3374 11.0256 16.9744C9.0674 20.3646 10.528 25.3472 12.4038 28.0876C13.3423 29.4296 14.4391 30.9285 15.8743 30.8754C17.2787 30.8171 17.8032 29.9798 19.4984 29.9798C21.1779 29.9798 21.67 30.8754 23.1343 30.8416C24.6413 30.8171 25.5908 29.4937 26.4963 28.1391C27.1706 27.1829 27.6895 26.1261 28.0337 25.0079C26.2627 24.2588 25.08 22.4766 25.078 20.5537Z" fill="white"/>
<path d="M22.3122 12.3629C23.1338 11.3765 23.5386 10.1086 23.4406 8.82861C22.1853 8.96046 21.0257 9.56043 20.1929 10.509C19.3786 11.4357 18.9548 12.6813 19.0349 13.9124C20.2907 13.9253 21.5253 13.3416 22.3122 12.3629Z" fill="white"/>
</svg>
