<svg width="25" height="25" viewBox="0 0 25 25" fill="none" xmlns="http://www.w3.org/2000/svg">
<path d="M0.1875 12.5C0.1875 19.1274 5.56008 24.5 12.1875 24.5C18.8149 24.5 24.1875 19.1274 24.1875 12.5C24.1875 5.87258 18.8149 0.5 12.1875 0.5C5.56008 0.5 0.1875 5.87258 0.1875 12.5Z" fill="#2867B2"/>
<path d="M8.8875 18.5H6.3375V10.475H8.8875V18.5ZM7.6125 9.35C6.7875 9.35 6.1875 8.75 6.1875 7.925C6.1875 7.1 6.8625 6.5 7.6125 6.5C8.4375 6.5 9.0375 7.1 9.0375 7.925C9.0375 8.75 8.4375 9.35 7.6125 9.35ZM18.1875 18.5H15.6375V14.15C15.6375 12.875 15.1125 12.5 14.3625 12.5C13.6125 12.5 12.8625 13.1 12.8625 14.225V18.5H10.3125V10.475H12.7125V11.6C12.9375 11.075 13.8375 10.25 15.1125 10.25C16.5375 10.25 18.0375 11.075 18.0375 13.55V18.5H18.1875Z" fill="white"/>
</svg>
