<svg width="24" height="20" viewBox="0 0 24 20" fill="none" xmlns="http://www.w3.org/2000/svg">
<path d="M20.317 2.40606C18.7873 1.70418 17.147 1.18706 15.4319 0.890891C15.4007 0.885175 15.3695 0.89946 15.3534 0.92803C15.1424 1.30324 14.9087 1.79274 14.7451 2.17749C12.9004 1.90132 11.0652 1.90132 9.25832 2.17749C9.09465 1.78419 8.85248 1.30324 8.64057 0.92803C8.62448 0.900413 8.59328 0.886128 8.56205 0.890891C6.84791 1.18612 5.20756 1.70323 3.67693 2.40606C3.66368 2.41177 3.65233 2.42131 3.64479 2.43368C0.533392 7.08204 -0.31895 11.6161 0.0991801 16.094C0.101072 16.1159 0.11337 16.1369 0.130398 16.1502C2.18321 17.6578 4.17171 18.573 6.12328 19.1796C6.15451 19.1891 6.18761 19.1777 6.20748 19.152C6.66913 18.5216 7.08064 17.8568 7.43348 17.1578C7.4543 17.1168 7.43442 17.0683 7.39186 17.0521C6.73913 16.8045 6.1176 16.5026 5.51973 16.1598C5.47244 16.1321 5.46865 16.0645 5.51216 16.0321C5.63797 15.9378 5.76382 15.8397 5.88396 15.7407C5.90569 15.7226 5.93598 15.7188 5.96153 15.7302C9.88928 17.5235 14.1415 17.5235 18.023 15.7302C18.0485 15.7178 18.0788 15.7217 18.1015 15.7398C18.2216 15.8388 18.3475 15.9378 18.4742 16.0321C18.5177 16.0645 18.5149 16.1321 18.4676 16.1598C17.8697 16.5092 17.2482 16.8045 16.5945 17.0511C16.552 17.0673 16.533 17.1168 16.5538 17.1578C16.9143 17.8558 17.3258 18.5206 17.7789 19.151C17.7978 19.1777 17.8319 19.1891 17.8631 19.1796C19.8241 18.573 21.8126 17.6578 23.8654 16.1502C23.8834 16.1369 23.8948 16.1169 23.8967 16.095C24.3971 10.9181 23.0585 6.42113 20.3482 2.43462C20.3416 2.42131 20.3303 2.41177 20.317 2.40606ZM8.02002 13.3675C6.8375 13.3675 5.86313 12.2818 5.86313 10.9485C5.86313 9.61526 6.8186 8.52961 8.02002 8.52961C9.23087 8.52961 10.1958 9.62479 10.1769 10.9485C10.1769 12.2818 9.22141 13.3675 8.02002 13.3675ZM15.9947 13.3675C14.8123 13.3675 13.8379 12.2818 13.8379 10.9485C13.8379 9.61526 14.7933 8.52961 15.9947 8.52961C17.2056 8.52961 18.1705 9.62479 18.1516 10.9485C18.1516 12.2818 17.2056 13.3675 15.9947 13.3675Z" fill="#5865F2"/>
</svg>
