<svg width="24" height="25" viewBox="0 0 24 25" fill="none" xmlns="http://www.w3.org/2000/svg">
<path d="M22.2283 0.25H1.77167C1.30179 0.25 0.851161 0.436657 0.518909 0.768909C0.186657 1.10116 0 1.55179 0 2.02167V22.4783C0 22.9482 0.186657 23.3988 0.518909 23.7311C0.851161 24.0633 1.30179 24.25 1.77167 24.25H22.2283C22.6982 24.25 23.1488 24.0633 23.4811 23.7311C23.8133 23.3988 24 22.9482 24 22.4783V2.02167C24 1.55179 23.8133 1.10116 23.4811 0.768909C23.1488 0.436657 22.6982 0.25 22.2283 0.25ZM7.15333 20.695H3.545V9.23333H7.15333V20.695ZM5.34667 7.645C4.93736 7.6427 4.53792 7.5192 4.19873 7.29009C3.85955 7.06098 3.59584 6.73653 3.44088 6.35769C3.28591 5.97885 3.24665 5.56259 3.32803 5.16145C3.40941 4.76032 3.6078 4.39228 3.89816 4.10378C4.18851 3.81529 4.55782 3.61927 4.95947 3.54046C5.36112 3.46165 5.77711 3.50359 6.15495 3.66099C6.53279 3.81838 6.85554 4.08417 7.08247 4.42481C7.30939 4.76546 7.43032 5.16569 7.43 5.575C7.43386 5.84903 7.38251 6.12104 7.27901 6.3748C7.17551 6.62857 7.02198 6.8589 6.82757 7.05207C6.63316 7.24523 6.40185 7.39728 6.14742 7.49915C5.893 7.60102 5.62067 7.65062 5.34667 7.645ZM20.4533 20.705H16.8467V14.4433C16.8467 12.5967 16.0617 12.0267 15.0483 12.0267C13.9783 12.0267 12.9283 12.8333 12.9283 14.49V20.705H9.32V9.24167H12.79V10.83H12.8367C13.185 10.125 14.405 8.92 16.2667 8.92C18.28 8.92 20.455 10.115 20.455 13.615L20.4533 20.705Z" fill="#0A66C2"/>
</svg>
