<svg width="81" height="20" viewBox="0 0 81 20" fill="none" xmlns="http://www.w3.org/2000/svg">
<path d="M11.4453 1.46094C11.4922 1.50781 11.5312 1.57031 11.5625 1.64844C11.5938 1.71094 11.6094 1.78125 11.6094 1.85938C11.625 1.9375 11.6172 2.01562 11.5859 2.09375C11.5703 2.15625 11.5156 2.19531 11.4219 2.21094C11.4844 2.27344 11.5 2.33594 11.4688 2.39844C11.4375 2.44531 11.4219 2.50781 11.4219 2.58594C11.4062 2.75781 11.4062 2.92969 11.4219 3.10156C11.4375 3.27344 11.4297 3.4375 11.3984 3.59375C11.3828 3.67188 11.3594 3.74219 11.3281 3.80469C11.2969 3.85156 11.2656 3.90625 11.2344 3.96875C11.2031 4.04688 11.1719 4.11719 11.1406 4.17969C11.1094 4.24219 11.0781 4.28906 11.0469 4.32031C10.9219 4.39844 10.7656 4.40625 10.5781 4.34375C10.3906 4.28125 10.2188 4.28125 10.0625 4.34375C9.9375 4.25 9.8125 4.21875 9.6875 4.25C9.5625 4.28125 9.42969 4.24219 9.28906 4.13281C9.14844 4.17969 9.00781 4.1875 8.86719 4.15625C8.74219 4.125 8.60156 4.10156 8.44531 4.08594C8.39844 4.08594 8.35156 4.09375 8.30469 4.10938C8.25781 4.125 8.21094 4.125 8.16406 4.10938C8.08594 4.09375 8.00781 4.07031 7.92969 4.03906C7.85156 3.99219 7.77344 3.96875 7.69531 3.96875C7.63281 3.95312 7.5625 3.96094 7.48438 3.99219C7.42188 4.00781 7.35156 4.01562 7.27344 4.01562H6.875C6.65625 3.98438 6.42969 3.96094 6.19531 3.94531C5.96094 3.92969 5.69531 3.90625 5.39844 3.875C5.16406 3.84375 4.92188 3.82812 4.67188 3.82812C4.4375 3.82812 4.1875 3.84375 3.92188 3.875C3.84375 4.03125 3.8125 4.19531 3.82812 4.36719C3.85938 4.52344 3.88281 4.6875 3.89844 4.85938C3.91406 5.03125 3.92188 5.20312 3.92188 5.375C3.9375 5.54688 3.95312 5.71875 3.96875 5.89062C3.96875 5.9375 3.96094 5.99219 3.94531 6.05469C3.92969 6.10156 3.92188 6.14844 3.92188 6.19531C3.92188 6.28906 3.92969 6.40625 3.94531 6.54688C3.96094 6.6875 3.96875 6.82031 3.96875 6.94531C3.96875 7.05469 3.96094 7.15625 3.94531 7.25C3.92969 7.32812 3.94531 7.41406 3.99219 7.50781C4.13281 7.55469 4.28906 7.57812 4.46094 7.57812C4.57031 7.59375 4.67188 7.60156 4.76562 7.60156C4.875 7.60156 4.97656 7.60156 5.07031 7.60156C5.24219 7.58594 5.40625 7.57812 5.5625 7.57812C5.73438 7.57812 5.90625 7.57812 6.07812 7.57812C6.34375 7.57812 6.60156 7.57812 6.85156 7.57812C7.11719 7.57812 7.40625 7.5625 7.71875 7.53125C7.85938 7.51562 7.99219 7.5 8.11719 7.48438C8.25781 7.45312 8.39844 7.47656 8.53906 7.55469C8.61719 7.52344 8.69531 7.50781 8.77344 7.50781C8.86719 7.50781 8.95312 7.5 9.03125 7.48438C9.10938 7.46875 9.17188 7.46875 9.21875 7.48438C9.26562 7.5 9.32812 7.50781 9.40625 7.50781C9.65625 7.49219 9.85156 7.49219 9.99219 7.50781C10.1328 7.52344 10.2656 7.53125 10.3906 7.53125C10.4688 7.51562 10.5391 7.5 10.6016 7.48438C10.6797 7.46875 10.75 7.46875 10.8125 7.48438C10.8906 7.48438 10.9297 7.51562 10.9297 7.57812C10.9453 7.625 10.9688 7.67188 11 7.71875C11.0625 7.84375 11.0938 7.97656 11.0938 8.11719C11.0938 8.24219 11.0859 8.39844 11.0703 8.58594C11.0859 8.66406 11.0781 8.74219 11.0469 8.82031C11.0312 8.88281 11.0234 8.9375 11.0234 8.98438C11.0078 9.1875 11.0078 9.375 11.0234 9.54688C11.0391 9.70312 11.0781 9.86719 11.1406 10.0391C11.1094 10.1172 11.0781 10.2031 11.0469 10.2969C11.0156 10.375 10.9688 10.4453 10.9062 10.5078C10.8438 10.4922 10.7891 10.5 10.7422 10.5312C10.6953 10.5625 10.6484 10.5781 10.6016 10.5781C10.5234 10.5781 10.4609 10.5703 10.4141 10.5547C10.3672 10.5234 10.3125 10.4922 10.25 10.4609C10.2188 10.4141 10.1641 10.4141 10.0859 10.4609C10.0234 10.4922 10 10.4531 10.0156 10.3438C9.85938 10.4375 9.72656 10.4922 9.61719 10.5078C9.50781 10.5078 9.42969 10.5391 9.38281 10.6016C9.30469 10.5391 9.21094 10.5156 9.10156 10.5312C9.00781 10.5312 8.91406 10.5469 8.82031 10.5781C8.74219 10.5469 8.65625 10.5312 8.5625 10.5312C8.48438 10.5156 8.375 10.5 8.23438 10.4844C8.15625 10.4531 8.0625 10.4609 7.95312 10.5078C7.85938 10.5547 7.77344 10.5859 7.69531 10.6016C7.53906 10.5547 7.39844 10.5469 7.27344 10.5781C7.14844 10.6094 7.03125 10.6484 6.92188 10.6953C6.84375 10.7109 6.79688 10.6953 6.78125 10.6484C6.76562 10.5859 6.71875 10.5625 6.64062 10.5781C6.57812 10.625 6.48438 10.6484 6.35938 10.6484C6.25 10.6328 6.17188 10.6562 6.125 10.7188C6.04688 10.6406 5.92969 10.625 5.77344 10.6719C5.63281 10.7031 5.51562 10.6719 5.42188 10.5781C5.39062 10.6406 5.34375 10.6641 5.28125 10.6484C5.23438 10.6172 5.17188 10.6094 5.09375 10.625C5.03125 10.625 4.96875 10.6328 4.90625 10.6484C4.85938 10.6641 4.80469 10.6719 4.74219 10.6719C4.66406 10.6875 4.57031 10.6797 4.46094 10.6484C4.36719 10.6172 4.28125 10.625 4.20312 10.6719C4.125 10.7188 4.09375 10.7812 4.10938 10.8594C4.125 10.9375 4.125 11.0234 4.10938 11.1172C4.09375 11.1641 4.07812 11.2109 4.0625 11.2578C4.04688 11.3047 4.03906 11.3516 4.03906 11.3984C4.03906 11.4609 4.04688 11.5234 4.0625 11.5859C4.09375 11.6328 4.10156 11.6875 4.08594 11.75C4.08594 11.875 4.0625 12.0078 4.01562 12.1484C3.98438 12.2891 3.95312 12.4297 3.92188 12.5703C3.85938 12.8203 3.82812 13.0156 3.82812 13.1562C3.82812 13.2969 3.78906 13.4219 3.71094 13.5312C3.75781 13.625 3.78125 13.7109 3.78125 13.7891C3.79688 13.9141 3.80469 14.0469 3.80469 14.1875C3.80469 14.3281 3.80469 14.4609 3.80469 14.5859C3.80469 14.6797 3.80469 14.7812 3.80469 14.8906C3.80469 14.9844 3.78906 15.0859 3.75781 15.1953C3.74219 15.2422 3.72656 15.2891 3.71094 15.3359C3.69531 15.3828 3.6875 15.4297 3.6875 15.4766C3.67188 15.5547 3.67969 15.6406 3.71094 15.7344C3.74219 15.8281 3.74219 15.9219 3.71094 16.0156C3.85156 16.0938 4 16.125 4.15625 16.1094C4.32812 16.0938 4.52344 16.0859 4.74219 16.0859C5.00781 16.0703 5.27344 16.0469 5.53906 16.0156C5.82031 15.9844 6.07031 15.9688 6.28906 15.9688C6.41406 15.9688 6.52344 15.9844 6.61719 16.0156C6.72656 16.0469 6.83594 16.0469 6.94531 16.0156C7.05469 15.9844 7.17969 15.9609 7.32031 15.9453C7.47656 15.9141 7.61719 15.9062 7.74219 15.9219C7.91406 15.9062 8.04688 15.9062 8.14062 15.9219C8.25 15.9375 8.35156 15.9453 8.44531 15.9453C8.58594 15.9453 8.71094 15.9453 8.82031 15.9453C8.94531 15.9297 9.07031 15.9141 9.19531 15.8984C9.25781 15.8828 9.3125 15.8672 9.35938 15.8516C9.42188 15.8359 9.48438 15.8281 9.54688 15.8281C9.65625 15.8438 9.73438 15.8516 9.78125 15.8516C9.82812 15.8359 9.86719 15.8281 9.89844 15.8281C9.99219 15.8594 10.0547 15.8672 10.0859 15.8516C10.1172 15.8359 10.1406 15.8281 10.1562 15.8281C10.2188 15.8594 10.2969 15.8594 10.3906 15.8281C10.4844 15.7812 10.6016 15.7734 10.7422 15.8047C10.7891 15.8359 10.8125 15.8906 10.8125 15.9688C10.8281 16.0312 10.8594 16.0781 10.9062 16.1094C10.8906 16.1875 10.9062 16.2344 10.9531 16.25C11 16.2656 11.0312 16.3047 11.0469 16.3672C11.0781 16.7422 11.0703 17.1172 11.0234 17.4922C10.9766 17.8516 10.9453 18.2344 10.9297 18.6406C10.8984 18.6875 10.8594 18.7188 10.8125 18.7344C10.7656 18.7656 10.7109 18.7969 10.6484 18.8281C10.6016 18.8594 10.5469 18.8906 10.4844 18.9219C10.4375 18.9531 10.3828 18.9688 10.3203 18.9688C10.2578 18.9688 10.1953 18.9531 10.1328 18.9219C10.0703 18.9062 10.0078 18.8906 9.94531 18.875C9.86719 18.875 9.78906 18.8828 9.71094 18.8984C9.64844 18.9141 9.57031 18.9219 9.47656 18.9219C9.35156 18.9219 9.21094 18.9141 9.05469 18.8984C8.91406 18.8828 8.76562 18.8672 8.60938 18.8516C8.4375 18.8359 8.27344 18.8203 8.11719 18.8047C7.97656 18.8047 7.86719 18.7812 7.78906 18.7344C7.71094 18.7188 7.65625 18.7266 7.625 18.7578C7.59375 18.8047 7.53906 18.8281 7.46094 18.8281C7.30469 18.7812 7.13281 18.7578 6.94531 18.7578C6.77344 18.7578 6.58594 18.75 6.38281 18.7344C6.24219 18.7188 6.10156 18.7188 5.96094 18.7344C5.83594 18.7656 5.69531 18.7812 5.53906 18.7812C5.41406 18.7969 5.28125 18.7969 5.14062 18.7812C5.01562 18.7656 4.89062 18.7656 4.76562 18.7812C4.625 18.7812 4.49219 18.7891 4.36719 18.8047C4.25781 18.8359 4.14062 18.8438 4.01562 18.8281C3.9375 18.8281 3.86719 18.8125 3.80469 18.7812C3.75781 18.7656 3.69531 18.7578 3.61719 18.7578C3.52344 18.7734 3.44531 18.7656 3.38281 18.7344C3.32031 18.7188 3.25781 18.7109 3.19531 18.7109C3.07031 18.6797 2.9375 18.6562 2.79688 18.6406C2.65625 18.6406 2.52344 18.6016 2.39844 18.5234C2.33594 18.5547 2.27344 18.5625 2.21094 18.5469C2.16406 18.5312 2.10938 18.5234 2.04688 18.5234C1.96875 18.5391 1.90625 18.5391 1.85938 18.5234C1.8125 18.5234 1.77344 18.5234 1.74219 18.5234C1.63281 18.5391 1.52344 18.5625 1.41406 18.5938C1.32031 18.6406 1.21875 18.6484 1.10938 18.6172C1 18.5391 0.9375 18.4688 0.921875 18.4062C0.90625 18.3438 0.882812 18.2734 0.851562 18.1953C0.835938 18.1484 0.8125 18.1016 0.78125 18.0547C0.765625 17.9922 0.757812 17.9297 0.757812 17.8672C0.742188 17.7891 0.742188 17.7266 0.757812 17.6797C0.773438 17.6172 0.773438 17.5547 0.757812 17.4922C0.742188 17.4141 0.71875 17.3438 0.6875 17.2812C0.65625 17.2031 0.625 17.1328 0.59375 17.0703C0.625 16.8984 0.625 16.7344 0.59375 16.5781C0.5625 16.4219 0.554688 16.25 0.570312 16.0625C0.570312 15.9219 0.578125 15.8203 0.59375 15.7578C0.609375 15.6953 0.617188 15.6406 0.617188 15.5938C0.617188 15.5469 0.609375 15.5 0.59375 15.4531C0.578125 15.4062 0.5625 15.3594 0.546875 15.3125C0.53125 15.2344 0.53125 15.1953 0.546875 15.1953C0.5625 15.1797 0.5625 15.1328 0.546875 15.0547C0.53125 14.9297 0.492188 14.7969 0.429688 14.6562C0.382812 14.5156 0.382812 14.375 0.429688 14.2344C0.460938 14.1406 0.460938 14.0703 0.429688 14.0234C0.414062 13.9766 0.40625 13.9375 0.40625 13.9062C0.40625 13.8281 0.414062 13.75 0.429688 13.6719C0.460938 13.5781 0.492188 13.4844 0.523438 13.3906C0.523438 13.3125 0.515625 13.25 0.5 13.2031C0.484375 13.1406 0.46875 13.0781 0.453125 13.0156C0.484375 12.9062 0.484375 12.8438 0.453125 12.8281C0.4375 12.7969 0.429688 12.7578 0.429688 12.7109C0.429688 12.6484 0.4375 12.5859 0.453125 12.5234C0.46875 12.4609 0.476562 12.3984 0.476562 12.3359C0.460938 12.2109 0.460938 12.1016 0.476562 12.0078C0.507812 11.8984 0.484375 11.8125 0.40625 11.75C0.484375 11.5938 0.5 11.4375 0.453125 11.2812C0.421875 11.1094 0.40625 10.9297 0.40625 10.7422C0.390625 10.6641 0.390625 10.5938 0.40625 10.5312C0.421875 10.4688 0.4375 10.3984 0.453125 10.3203C0.453125 10.2578 0.445312 10.2031 0.429688 10.1562C0.414062 10.0938 0.40625 10.0312 0.40625 9.96875C0.421875 9.875 0.429688 9.78906 0.429688 9.71094C0.429688 9.61719 0.429688 9.51562 0.429688 9.40625C0.429688 9.35938 0.4375 9.3125 0.453125 9.26562C0.46875 9.21875 0.476562 9.17188 0.476562 9.125C0.460938 9.09375 0.445312 9.04688 0.429688 8.98438C0.414062 8.90625 0.40625 8.84375 0.40625 8.79688C0.40625 8.65625 0.429688 8.57031 0.476562 8.53906C0.445312 8.46094 0.414062 8.39844 0.382812 8.35156C0.367188 8.30469 0.390625 8.24219 0.453125 8.16406C0.390625 7.99219 0.367188 7.89062 0.382812 7.85938C0.414062 7.82812 0.429688 7.78125 0.429688 7.71875C0.414062 7.54688 0.398438 7.39844 0.382812 7.27344C0.367188 7.13281 0.359375 7 0.359375 6.875C0.359375 6.82812 0.367188 6.78125 0.382812 6.73438C0.398438 6.67188 0.40625 6.61719 0.40625 6.57031C0.40625 6.49219 0.398438 6.42969 0.382812 6.38281C0.367188 6.33594 0.367188 6.28125 0.382812 6.21875C0.460938 5.95312 0.5 5.75 0.5 5.60938C0.5 5.45312 0.539062 5.32031 0.617188 5.21094C0.507812 5.00781 0.484375 4.77344 0.546875 4.50781C0.609375 4.22656 0.640625 3.94531 0.640625 3.66406C0.65625 3.47656 0.648438 3.28125 0.617188 3.07812C0.601562 2.85938 0.609375 2.63281 0.640625 2.39844C0.65625 2.22656 0.648438 2.08594 0.617188 1.97656C0.585938 1.86719 0.570312 1.77344 0.570312 1.69531C0.570312 1.61719 0.585938 1.53906 0.617188 1.46094C0.648438 1.38281 0.679688 1.30469 0.710938 1.22656C0.742188 1.16406 0.765625 1.10938 0.78125 1.0625C0.8125 1 0.859375 0.953125 0.921875 0.921875C1.59375 1.04688 2.25 1.07812 2.89062 1.01562C3.54688 0.9375 4.17188 0.921875 4.76562 0.96875C4.9375 1 5.10156 1.03906 5.25781 1.08594C5.42969 1.11719 5.60156 1.14063 5.77344 1.15625C5.88281 1.17187 5.99219 1.17187 6.10156 1.15625C6.21094 1.125 6.35156 1.10156 6.52344 1.08594C6.67969 1.11719 6.78125 1.13281 6.82812 1.13281C6.89062 1.11719 6.9375 1.10938 6.96875 1.10938C7.04688 1.10938 7.11719 1.125 7.17969 1.15625C7.24219 1.17187 7.3125 1.17969 7.39062 1.17969C7.51562 1.21094 7.63281 1.22656 7.74219 1.22656C7.85156 1.22656 7.96875 1.23438 8.09375 1.25C8.1875 1.25 8.28906 1.24219 8.39844 1.22656C8.50781 1.21094 8.61719 1.21094 8.72656 1.22656C8.86719 1.22656 9.03906 1.25 9.24219 1.29688C9.44531 1.32813 9.64062 1.35156 9.82812 1.36719C9.95312 1.35156 10.0391 1.35156 10.0859 1.36719C10.1484 1.38281 10.2031 1.39844 10.25 1.41406C10.4688 1.44531 10.6719 1.45312 10.8594 1.4375C11.0469 1.42188 11.2422 1.42969 11.4453 1.46094ZM26.5625 5.67969C26.5625 5.75781 26.5391 5.82031 26.4922 5.86719C26.4609 5.89844 26.4219 5.9375 26.375 5.98438C26.3438 6.20312 26.2891 6.40625 26.2109 6.59375C26.1484 6.78125 26.0703 6.96875 25.9766 7.15625C25.8516 7.39062 25.7344 7.64844 25.625 7.92969C25.5781 8.07031 25.5391 8.1875 25.5078 8.28125C25.4766 8.35938 25.4766 8.4375 25.5078 8.51562C25.4297 8.57812 25.375 8.64062 25.3438 8.70312C25.3281 8.76562 25.3047 8.82812 25.2734 8.89062C25.2109 9.01562 25.1406 9.125 25.0625 9.21875C25 9.29688 24.9531 9.42188 24.9219 9.59375C24.875 9.67188 24.8125 9.73438 24.7344 9.78125C24.7188 9.85938 24.6953 9.94531 24.6641 10.0391C24.6328 10.1328 24.6016 10.2188 24.5703 10.2969C24.5391 10.3594 24.5 10.4219 24.4531 10.4844C24.4219 10.5312 24.3828 10.5938 24.3359 10.6719C24.2578 10.7969 24.2266 10.875 24.2422 10.9062C24.2578 10.9375 24.25 10.9922 24.2188 11.0703C24.1094 11.2266 24.0234 11.4141 23.9609 11.6328C23.9141 11.8359 23.8203 12 23.6797 12.125C23.6641 12.2031 23.6484 12.2734 23.6328 12.3359C23.6172 12.3984 23.5859 12.4688 23.5391 12.5469C23.5234 12.5781 23.5 12.6172 23.4688 12.6641C23.4531 12.6953 23.4297 12.7578 23.3984 12.8516C23.3672 12.9453 23.3438 13.0469 23.3281 13.1562C23.3281 13.25 23.3125 13.3516 23.2812 13.4609C23.25 13.5078 23.2188 13.5469 23.1875 13.5781C23.1562 13.6094 23.125 13.6484 23.0938 13.6953C23.0938 13.7422 23.0859 13.7891 23.0703 13.8359C23.0703 13.8828 23.0703 13.9453 23.0703 14.0234C23.0391 14.0547 23.0078 14.0859 22.9766 14.1172C22.9609 14.1484 22.9297 14.1797 22.8828 14.2109C22.9141 14.2734 22.9062 14.3516 22.8594 14.4453C22.8281 14.5234 22.7812 14.5938 22.7188 14.6562C22.7031 14.6719 22.6875 14.7188 22.6719 14.7969C22.6562 14.875 22.6328 14.9375 22.6016 14.9844C22.5859 15.0625 22.5781 15.1172 22.5781 15.1484C22.5781 15.1797 22.5625 15.2188 22.5312 15.2656C22.5 15.3125 22.4609 15.3672 22.4141 15.4297C22.3828 15.4922 22.3359 15.5391 22.2734 15.5703C22.2734 15.7891 22.2266 15.9609 22.1328 16.0859C22.0547 16.2109 22.0156 16.375 22.0156 16.5781C21.9219 16.6562 21.8672 16.7266 21.8516 16.7891C21.8359 16.8359 21.8125 16.875 21.7812 16.9062C21.7188 17 21.6875 17.0781 21.6875 17.1406C21.6875 17.2031 21.6797 17.2578 21.6641 17.3047C21.6016 17.4297 21.5703 17.5156 21.5703 17.5625C21.5703 17.5938 21.5625 17.625 21.5469 17.6562C21.5312 17.6875 21.4922 17.7188 21.4297 17.75C21.3828 17.7812 21.3438 17.8203 21.3125 17.8672C21.2812 18.0234 21.2344 18.1484 21.1719 18.2422C21.125 18.3203 21.0859 18.3906 21.0547 18.4531C21.0391 18.4844 21.0234 18.5234 21.0078 18.5703C20.9922 18.6172 20.9766 18.6641 20.9609 18.7109C20.9297 18.8203 20.8906 18.9531 20.8438 19.1094C20.7969 19.2656 20.7344 19.3672 20.6562 19.4141C20.4844 19.5078 20.3281 19.5156 20.1875 19.4375C20.0469 19.375 19.9297 19.2891 19.8359 19.1797C19.8359 19.1016 19.8203 19.0469 19.7891 19.0156C19.7578 18.9844 19.75 18.9297 19.7656 18.8516C19.6875 18.7734 19.6406 18.7188 19.625 18.6875C19.6094 18.6562 19.5859 18.6328 19.5547 18.6172C19.5703 18.4453 19.5312 18.3516 19.4375 18.3359C19.3594 18.3047 19.3047 18.2578 19.2734 18.1953C19.2891 18.0391 19.2578 17.9453 19.1797 17.9141C19.1172 17.8828 19.1016 17.8047 19.1328 17.6797C19.0391 17.6172 18.9844 17.5703 18.9688 17.5391C18.9531 17.5078 18.9297 17.4766 18.8984 17.4453C18.8203 17.3672 18.7578 17.25 18.7109 17.0938C18.6797 16.9219 18.625 16.7734 18.5469 16.6484L18.1953 16.2266C18.1484 16.1641 18.1016 16.0859 18.0547 15.9922C18.0234 15.8828 17.9688 15.7891 17.8906 15.7109C17.8438 15.4453 17.7734 15.2188 17.6797 15.0312C17.6328 14.9062 17.5625 14.7969 17.4688 14.7031C17.3906 14.5938 17.3359 14.4766 17.3047 14.3516C17.2266 14.3047 17.1719 14.2422 17.1406 14.1641C17.125 14.0859 17.0781 14.0234 17 13.9766C17 13.8359 16.9609 13.7188 16.8828 13.625C16.8047 13.5312 16.7344 13.4297 16.6719 13.3203C16.6406 13.2578 16.6172 13.1953 16.6016 13.1328C16.5859 13.0547 16.5391 12.9844 16.4609 12.9219C16.4141 12.8281 16.3672 12.7422 16.3203 12.6641C16.2891 12.5703 16.2422 12.4766 16.1797 12.3828C16.1641 12.3516 16.1328 12.3125 16.0859 12.2656C16.0547 12.2188 16.0234 12.1719 15.9922 12.125C15.9609 12.0469 15.9453 11.9844 15.9453 11.9375C15.9609 11.8906 15.9531 11.8438 15.9219 11.7969C15.8906 11.6875 15.8438 11.5938 15.7812 11.5156C15.7188 11.4219 15.6875 11.3125 15.6875 11.1875C15.6094 11.1094 15.5469 11.0234 15.5 10.9297C15.4688 10.8359 15.4219 10.7422 15.3594 10.6484C15.2344 10.4609 15.1484 10.3125 15.1016 10.2031C15.0703 10.0938 15.0391 9.96875 15.0078 9.82812C14.9922 9.75 14.9844 9.67188 14.9844 9.59375C14.9844 9.5 14.9688 9.42969 14.9375 9.38281C14.8906 9.30469 14.8672 9.23438 14.8672 9.17188C14.8672 9.10938 14.8516 9.0625 14.8203 9.03125C14.7578 8.89062 14.7188 8.79688 14.7031 8.75C14.6875 8.70312 14.6719 8.66406 14.6562 8.63281C14.5781 8.49219 14.4922 8.35938 14.3984 8.23438C14.3047 8.10938 14.25 7.96875 14.2344 7.8125C14.1094 7.70312 14.0156 7.57031 13.9531 7.41406C13.9062 7.24219 13.8125 7.11719 13.6719 7.03906C13.6406 6.88281 13.5859 6.76562 13.5078 6.6875C13.4297 6.59375 13.3594 6.5 13.2969 6.40625C13.1719 6.28125 13.0547 6.21094 12.9453 6.19531C12.8516 6.17969 12.7656 6.15625 12.6875 6.125C12.6406 6.04688 12.6016 5.96875 12.5703 5.89062C12.5234 5.79688 12.4922 5.70312 12.4766 5.60938C12.5078 5.51562 12.5781 5.46094 12.6875 5.44531C12.7969 5.41406 12.9141 5.40625 13.0391 5.42188C13.1016 5.40625 13.1562 5.38281 13.2031 5.35156C13.25 5.32031 13.3125 5.29688 13.3906 5.28125C13.5156 5.25 13.6562 5.24219 13.8125 5.25781C13.9844 5.25781 14.1406 5.24219 14.2812 5.21094C14.3281 5.21094 14.375 5.20312 14.4219 5.1875C14.4844 5.17188 14.5391 5.15625 14.5859 5.14062C14.6172 5.14062 14.6484 5.14844 14.6797 5.16406C14.7266 5.17969 14.7812 5.1875 14.8438 5.1875C15.0156 5.17188 15.1484 5.17188 15.2422 5.1875C15.3516 5.1875 15.4609 5.17969 15.5703 5.16406C15.6484 5.16406 15.7266 5.15625 15.8047 5.14062C15.8828 5.10938 15.9609 5.10156 16.0391 5.11719C16.1641 5.13281 16.2656 5.125 16.3438 5.09375C16.4375 5.0625 16.5078 5.05469 16.5547 5.07031C16.6797 5.17969 16.7422 5.25 16.7422 5.28125C16.7578 5.29688 16.7812 5.32031 16.8125 5.35156C16.8594 5.42969 16.875 5.49219 16.8594 5.53906C16.8594 5.57031 16.8672 5.60938 16.8828 5.65625C16.9453 5.78125 16.9766 5.92188 16.9766 6.07812C16.9766 6.21875 16.9922 6.32812 17.0234 6.40625C17.0391 6.48438 17.0703 6.57031 17.1172 6.66406C17.1641 6.74219 17.2031 6.82031 17.2344 6.89844C17.25 6.96094 17.2656 7.01562 17.2812 7.0625C17.2969 7.09375 17.3125 7.13281 17.3281 7.17969C17.4062 7.32031 17.4688 7.5 17.5156 7.71875C17.5625 7.9375 17.6016 8.14844 17.6328 8.35156C17.6484 8.42969 17.6797 8.48438 17.7266 8.51562C17.7734 8.54688 17.8203 8.57812 17.8672 8.60938C17.8984 8.75 17.9375 8.89062 17.9844 9.03125C18.0469 9.17188 18.1016 9.3125 18.1484 9.45312C18.1797 9.53125 18.1953 9.58594 18.1953 9.61719C18.1953 9.64844 18.2031 9.67969 18.2188 9.71094C18.25 9.78906 18.2812 9.86719 18.3125 9.94531C18.3594 10.0234 18.3984 10.1094 18.4297 10.2031C18.4766 10.2812 18.5156 10.3594 18.5469 10.4375C18.5781 10.5156 18.6094 10.6016 18.6406 10.6953C18.7188 10.8672 18.7578 10.9922 18.7578 11.0703C18.7734 11.1328 18.7891 11.1797 18.8047 11.2109C18.8672 11.2734 18.9062 11.3281 18.9219 11.375C18.9375 11.4219 18.9609 11.4688 18.9922 11.5156C19.0234 11.5781 19.0625 11.6797 19.1094 11.8203C19.1719 11.9453 19.1875 12.0781 19.1562 12.2188C19.2188 12.2812 19.2578 12.3594 19.2734 12.4531C19.2891 12.5469 19.3359 12.6094 19.4141 12.6406C19.3984 12.7969 19.4297 12.9141 19.5078 12.9922C19.6016 13.0547 19.6484 13.1641 19.6484 13.3203C19.7266 13.3203 19.7734 13.2891 19.7891 13.2266C19.8203 13.1641 19.8516 13.1094 19.8828 13.0625C19.9609 12.8906 20.0234 12.7109 20.0703 12.5234C20.1328 12.3359 20.2031 12.1484 20.2812 11.9609C20.3438 11.8359 20.375 11.75 20.375 11.7031C20.3906 11.6562 20.4062 11.6172 20.4219 11.5859C20.5 11.5078 20.5391 11.4453 20.5391 11.3984C20.5547 11.3516 20.5703 11.3125 20.5859 11.2812C20.6484 11.2031 20.6797 11.1328 20.6797 11.0703C20.6953 11.0078 20.7188 10.9609 20.75 10.9297C20.8125 10.8672 20.8516 10.8125 20.8672 10.7656C20.8828 10.7188 20.9219 10.6953 20.9844 10.6953C20.9688 10.6172 20.9766 10.5547 21.0078 10.5078C21.0391 10.4453 21.0469 10.375 21.0312 10.2969C21.1406 10.1562 21.2109 9.96875 21.2422 9.73438C21.3047 9.65625 21.3438 9.58594 21.3594 9.52344C21.375 9.46094 21.3984 9.39844 21.4297 9.33594C21.4609 9.27344 21.4922 9.22656 21.5234 9.19531C21.5703 9.14844 21.6016 9.10156 21.6172 9.05469C21.6484 8.94531 21.6641 8.84375 21.6641 8.75C21.6641 8.64062 21.6797 8.53906 21.7109 8.44531C21.7578 8.32031 21.7812 8.23438 21.7812 8.1875C21.7969 8.14062 21.8125 8.10156 21.8281 8.07031C21.9062 7.85156 21.9688 7.6875 22.0156 7.57812C22.0781 7.46875 22.1328 7.35938 22.1797 7.25C22.2734 7.01562 22.3438 6.875 22.3906 6.82812C22.4062 6.78125 22.4297 6.74219 22.4609 6.71094C22.5078 6.66406 22.5391 6.625 22.5547 6.59375C22.5859 6.45312 22.6094 6.36719 22.625 6.33594C22.6562 6.28906 22.6719 6.25 22.6719 6.21875C22.7344 6.04688 22.7891 5.89844 22.8359 5.77344C22.8828 5.63281 22.9531 5.5 23.0469 5.375C23.0781 5.39062 23.1094 5.38281 23.1406 5.35156C23.1719 5.32031 23.2266 5.30469 23.3047 5.30469C23.3672 5.30469 23.4297 5.3125 23.4922 5.32812C23.5703 5.34375 23.6562 5.33594 23.75 5.30469C23.875 5.27344 23.9688 5.25781 24.0312 5.25781C24.1094 5.25781 24.1875 5.25781 24.2656 5.25781C24.3125 5.25781 24.375 5.25 24.4531 5.23438C24.5312 5.21875 24.6094 5.21094 24.6875 5.21094C24.7344 5.22656 24.7734 5.25 24.8047 5.28125C24.8516 5.3125 24.9062 5.32812 24.9688 5.32812C24.9844 5.34375 25.0234 5.34375 25.0859 5.32812C25.1641 5.3125 25.2266 5.30469 25.2734 5.30469C25.3203 5.30469 25.375 5.3125 25.4375 5.32812C25.5156 5.32812 25.5703 5.32031 25.6016 5.30469C25.6797 5.30469 25.7578 5.28906 25.8359 5.25781C25.9297 5.22656 26.0391 5.22656 26.1641 5.25781C26.2734 5.28906 26.3594 5.35156 26.4219 5.44531C26.4844 5.52344 26.5312 5.60156 26.5625 5.67969ZM40.7422 12.1016C40.7266 12.3203 40.7266 12.4688 40.7422 12.5469C40.7578 12.625 40.7422 12.7109 40.6953 12.8047C40.6641 12.8672 40.6016 12.9141 40.5078 12.9453C40.4297 12.9766 40.375 13.0234 40.3438 13.0859C40.25 13.0547 40.1484 13.0469 40.0391 13.0625C39.9297 13.0625 39.8359 13.0781 39.7578 13.1094C39.6484 13.0156 39.4922 12.9766 39.2891 12.9922C39.1016 13.0078 38.9453 12.9688 38.8203 12.875C38.7266 12.9219 38.6406 12.9453 38.5625 12.9453C38.3438 12.9766 38.1094 12.9688 37.8594 12.9219C37.625 12.875 37.3828 12.8359 37.1328 12.8047C36.9609 12.7891 36.7812 12.7812 36.5938 12.7812C36.4062 12.7812 36.2422 12.7812 36.1016 12.7812C35.9453 12.8125 35.8203 12.8281 35.7266 12.8281C35.6016 12.8125 35.4844 12.7812 35.375 12.7344C35.2812 12.6875 35.1719 12.6641 35.0469 12.6641C34.9531 12.6484 34.8516 12.6562 34.7422 12.6875C34.6484 12.7031 34.5547 12.7109 34.4609 12.7109C34.3672 12.7109 34.2422 12.6953 34.0859 12.6641C33.9609 12.6797 33.875 12.6875 33.8281 12.6875C33.7812 12.6719 33.7422 12.6641 33.7109 12.6641C33.6016 12.6641 33.4922 12.6719 33.3828 12.6875C33.2891 12.7031 33.2031 12.6641 33.125 12.5703C33.0625 12.6172 33.0078 12.6484 32.9609 12.6641C32.9141 12.6797 32.8281 12.6875 32.7031 12.6875C32.625 12.6719 32.5625 12.6641 32.5156 12.6641C32.4844 12.6484 32.4531 12.6406 32.4219 12.6406C32.3125 12.6719 32.2188 12.6797 32.1406 12.6641C32.0781 12.6484 32.0156 12.6719 31.9531 12.7344C31.9219 12.7031 31.8672 12.6953 31.7891 12.7109C31.7109 12.7109 31.6562 12.6953 31.625 12.6641C31.4219 12.6328 31.2578 12.6328 31.1328 12.6641C31.0078 12.6953 30.875 12.7109 30.7344 12.7109C30.6094 12.7109 30.4844 12.6953 30.3594 12.6641C30.25 12.6328 30.1094 12.6328 29.9375 12.6641C29.8594 12.8047 29.8281 12.9844 29.8438 13.2031C29.875 13.4062 29.9375 13.5703 30.0312 13.6953C30.0469 13.7734 30.0391 13.8359 30.0078 13.8828C29.9922 13.9297 29.9844 13.9922 29.9844 14.0703C30.1094 14.2422 30.2109 14.3672 30.2891 14.4453C30.3828 14.5234 30.4531 14.6016 30.5 14.6797C30.5781 14.8047 30.6719 14.9219 30.7812 15.0312C30.8906 15.1406 30.9922 15.2656 31.0859 15.4062C31.1172 15.4844 31.1562 15.5469 31.2031 15.5938C31.2656 15.6406 31.3203 15.7031 31.3672 15.7812C31.4922 15.8125 31.5938 15.8594 31.6719 15.9219C31.7656 15.9844 31.875 16.0547 32 16.1328C32.1719 16.2266 32.2891 16.3125 32.3516 16.3906C32.4297 16.4531 32.5234 16.5078 32.6328 16.5547C32.7109 16.5859 32.7734 16.6016 32.8203 16.6016C32.8672 16.5859 32.9141 16.5859 32.9609 16.6016C33.0391 16.6328 33.125 16.6875 33.2188 16.7656C33.3125 16.8438 33.4141 16.8906 33.5234 16.9062C33.6953 16.8906 33.8203 16.8906 33.8984 16.9062C33.9766 16.9062 34.0469 16.9141 34.1094 16.9297C34.3125 16.9453 34.5 16.8984 34.6719 16.7891C34.75 16.7891 34.8125 16.7891 34.8594 16.7891C34.9062 16.7891 34.9688 16.7812 35.0469 16.7656C35.1875 16.6719 35.2891 16.625 35.3516 16.625C35.4297 16.625 35.4922 16.6094 35.5391 16.5781C35.5859 16.5312 35.625 16.5078 35.6562 16.5078C35.7031 16.4922 35.7422 16.4766 35.7734 16.4609C35.8672 16.4297 35.9453 16.3906 36.0078 16.3438C36.0859 16.2969 36.1641 16.2422 36.2422 16.1797C36.3516 16.1172 36.4531 16.0469 36.5469 15.9688C36.7031 15.875 36.8359 15.7422 36.9453 15.5703C37.0703 15.3984 37.2031 15.25 37.3438 15.125C37.3594 14.9375 37.3906 14.7812 37.4375 14.6562C37.4844 14.5312 37.5469 14.4141 37.625 14.3047C37.625 14.1328 37.6406 14 37.6719 13.9062C37.7188 13.7969 37.7734 13.6953 37.8359 13.6016C37.9141 13.5859 37.9844 13.5703 38.0469 13.5547C38.1094 13.5391 38.1875 13.5469 38.2812 13.5781C38.3281 13.6094 38.3672 13.6406 38.3984 13.6719C38.4453 13.6875 38.5078 13.7109 38.5859 13.7422C38.6328 13.7734 38.6797 13.7969 38.7266 13.8125C38.7891 13.8125 38.875 13.8281 38.9844 13.8594C39.0938 13.9062 39.1719 13.9297 39.2188 13.9297C39.2656 13.9297 39.3125 13.9375 39.3594 13.9531C39.4844 14.0156 39.5938 14.0391 39.6875 14.0234C39.7969 14.0078 39.8906 14.0156 39.9688 14.0469C40.1406 14.1719 40.2422 14.2656 40.2734 14.3281C40.2734 14.5156 40.2188 14.6875 40.1094 14.8438C40.0312 15.0156 39.9922 15.125 39.9922 15.1719C40.0078 15.2031 40.0078 15.2578 39.9922 15.3359C39.9766 15.3828 39.9531 15.4219 39.9219 15.4531C39.8906 15.4844 39.8672 15.5312 39.8516 15.5938C39.8203 15.6875 39.7969 15.7812 39.7812 15.875C39.7656 15.9531 39.7344 16.0391 39.6875 16.1328C39.5625 16.2891 39.4609 16.4062 39.3828 16.4844C39.3203 16.5469 39.25 16.5938 39.1719 16.625C39.2031 16.7031 39.1875 16.7656 39.125 16.8125C39.0625 16.8438 39.0156 16.875 38.9844 16.9062C38.9375 17.0156 38.8672 17.1016 38.7734 17.1641C38.6953 17.2266 38.6016 17.2969 38.4922 17.375C38.3672 17.4844 38.2344 17.5781 38.0938 17.6562C37.9688 17.7344 37.8438 17.8125 37.7188 17.8906C37.5469 18.0312 37.4297 18.1328 37.3672 18.1953C37.3047 18.2422 37.2266 18.2812 37.1328 18.3125C37.0547 18.3438 36.9922 18.375 36.9453 18.4062C36.9141 18.4219 36.8906 18.4297 36.875 18.4297C36.7969 18.4609 36.7109 18.4766 36.6172 18.4766C36.5234 18.4766 36.4297 18.4922 36.3359 18.5234C36.1641 18.5859 36.0156 18.625 35.8906 18.6406C35.7656 18.6719 35.6406 18.7031 35.5156 18.7344C35.4375 18.7656 35.3672 18.7891 35.3047 18.8047C35.2422 18.8203 35.1484 18.8203 35.0234 18.8047C34.8672 18.7734 34.75 18.7812 34.6719 18.8281C34.5938 18.875 34.5156 18.8672 34.4375 18.8047C34.2656 18.8359 34.1172 18.8672 33.9922 18.8984C33.8828 18.9297 33.7812 18.9375 33.6875 18.9219C33.6406 18.9219 33.5938 18.9141 33.5469 18.8984C33.5 18.8828 33.4531 18.8672 33.4062 18.8516C33.1094 18.8047 32.8672 18.7734 32.6797 18.7578C32.5078 18.7422 32.3516 18.7109 32.2109 18.6641C32.1641 18.6484 32.1172 18.6406 32.0703 18.6406C32.0234 18.6406 31.9844 18.6094 31.9531 18.5469C31.7969 18.5781 31.6484 18.5625 31.5078 18.5C31.3828 18.4219 31.2812 18.3438 31.2031 18.2656C31.1562 18.2656 31.1094 18.2578 31.0625 18.2422C31.0312 18.2266 30.9922 18.2109 30.9453 18.1953C30.8359 18.1484 30.7266 18.1016 30.6172 18.0547C30.5078 17.9922 30.4219 17.8984 30.3594 17.7734C30.2344 17.7734 30.1406 17.7422 30.0781 17.6797C30.0312 17.6172 29.9688 17.5547 29.8906 17.4922C29.7656 17.4922 29.6484 17.4609 29.5391 17.3984C29.4453 17.3203 29.3672 17.2344 29.3047 17.1406C29.1797 16.9844 29.0625 16.8594 28.9531 16.7656C28.7812 16.5938 28.6484 16.4531 28.5547 16.3438C28.4609 16.2188 28.3438 16.1328 28.2031 16.0859C28.1719 15.9922 28.125 15.9141 28.0625 15.8516C28 15.7891 27.9375 15.7188 27.875 15.6406C27.7969 15.4844 27.7422 15.3828 27.7109 15.3359C27.6797 15.2891 27.6484 15.25 27.6172 15.2188C27.5859 15.0938 27.5547 14.9766 27.5234 14.8672C27.5078 14.7422 27.4844 14.6172 27.4531 14.4922C27.4062 14.3203 27.3828 14.1953 27.3828 14.1172C27.3828 14.0391 27.375 13.9609 27.3594 13.8828C27.3438 13.8359 27.3203 13.7891 27.2891 13.7422C27.2734 13.6953 27.2578 13.6484 27.2422 13.6016C27.2266 13.5234 27.2188 13.4453 27.2188 13.3672C27.2344 13.2891 27.2344 13.2031 27.2188 13.1094C27.2031 13.0312 27.1875 12.9609 27.1719 12.8984C27.1562 12.8203 27.1484 12.7422 27.1484 12.6641C27.1484 12.5547 27.1562 12.4453 27.1719 12.3359C27.1875 12.2109 27.1953 12.0859 27.1953 11.9609C27.1953 11.9297 27.1875 11.8906 27.1719 11.8438C27.1719 11.7812 27.1719 11.7344 27.1719 11.7031C27.1875 11.625 27.2109 11.5469 27.2422 11.4688C27.2891 11.375 27.3203 11.2891 27.3359 11.2109C27.3047 11.0703 27.2969 10.9688 27.3125 10.9062C27.3438 10.8438 27.3438 10.7969 27.3125 10.7656C27.3438 10.7344 27.3672 10.6953 27.3828 10.6484C27.3984 10.5859 27.4141 10.5391 27.4297 10.5078C27.4453 10.4609 27.4531 10.4062 27.4531 10.3438C27.4531 10.2812 27.4688 10.2109 27.5 10.1328C27.5781 10.0078 27.625 9.9375 27.6406 9.92188C27.6719 9.89062 27.6953 9.86719 27.7109 9.85156C27.7266 9.74219 27.7422 9.67188 27.7578 9.64062C27.7734 9.59375 27.7969 9.55469 27.8281 9.52344C27.9062 9.36719 27.9531 9.27344 27.9688 9.24219C28 9.21094 28.0234 9.17969 28.0391 9.14844C28.0547 9.02344 28.0703 8.95312 28.0859 8.9375C28.1016 8.92188 28.1172 8.89844 28.1328 8.86719C28.1641 8.77344 28.1797 8.69531 28.1797 8.63281C28.1953 8.55469 28.2188 8.47656 28.25 8.39844C28.2812 8.32031 28.3203 8.24219 28.3672 8.16406C28.4141 8.07031 28.4766 7.99219 28.5547 7.92969C28.6328 7.74219 28.7031 7.58594 28.7656 7.46094C28.8281 7.32031 28.8906 7.1875 28.9531 7.0625C29.0938 6.95312 29.2109 6.82812 29.3047 6.6875C29.4141 6.54688 29.5391 6.42188 29.6797 6.3125C29.7109 6.28125 29.7422 6.26562 29.7734 6.26562C29.8203 6.25 29.875 6.22656 29.9375 6.19531C30.1094 6.07031 30.2344 5.97656 30.3125 5.91406C30.3906 5.83594 30.4844 5.77344 30.5938 5.72656C30.6875 5.69531 30.8281 5.67969 31.0156 5.67969C31.2188 5.66406 31.3594 5.60156 31.4375 5.49219C31.5312 5.49219 31.625 5.47656 31.7188 5.44531C31.8125 5.39844 31.9062 5.35156 32 5.30469C32.0625 5.27344 32.1328 5.24219 32.2109 5.21094C32.2891 5.16406 32.3984 5.14844 32.5391 5.16406C32.6484 5.17969 32.75 5.1875 32.8438 5.1875C32.9531 5.17188 33.0703 5.14844 33.1953 5.11719C33.2578 5.10156 33.3281 5.08594 33.4062 5.07031C33.4844 5.05469 33.5703 5.04688 33.6641 5.04688C33.8984 5.07812 34.0781 5.09375 34.2031 5.09375C34.3438 5.09375 34.5 5.10156 34.6719 5.11719C34.75 5.11719 34.8281 5.10938 34.9062 5.09375C35 5.0625 35.0938 5.04688 35.1875 5.04688C35.2656 5.0625 35.3359 5.07031 35.3984 5.07031C35.4766 5.07031 35.5547 5.07812 35.6328 5.09375C35.7422 5.125 35.8047 5.14062 35.8203 5.14062C35.8516 5.14062 35.875 5.14062 35.8906 5.14062C35.9688 5.15625 36.0312 5.1875 36.0781 5.23438C36.1406 5.26562 36.2109 5.29688 36.2891 5.32812C36.3203 5.35938 36.3594 5.375 36.4062 5.375C36.4688 5.375 36.5156 5.39062 36.5469 5.42188C36.6094 5.4375 36.7031 5.47656 36.8281 5.53906C36.9375 5.57031 37.0391 5.60156 37.1328 5.63281C37.2266 5.66406 37.2891 5.73438 37.3203 5.84375C37.4922 5.89062 37.6172 5.95312 37.6953 6.03125C37.7891 6.10938 37.875 6.17188 37.9531 6.21875C38.0156 6.26562 38.0781 6.33594 38.1406 6.42969C38.2031 6.50781 38.2734 6.57031 38.3516 6.61719C38.3672 6.66406 38.3828 6.70312 38.3984 6.73438C38.4297 6.76562 38.4531 6.8125 38.4688 6.875C38.5938 6.95312 38.7031 7.05469 38.7969 7.17969C38.8906 7.28906 39.0234 7.375 39.1953 7.4375C39.2422 7.54688 39.2969 7.64062 39.3594 7.71875C39.4219 7.79688 39.4609 7.90625 39.4766 8.04688C39.5078 8.09375 39.5391 8.14844 39.5703 8.21094C39.6172 8.25781 39.6641 8.32031 39.7109 8.39844C39.7266 8.42969 39.75 8.46875 39.7812 8.51562C39.8281 8.5625 39.8594 8.60938 39.875 8.65625C39.9531 8.82812 40.0391 8.99219 40.1328 9.14844C40.1641 9.19531 40.2031 9.25 40.25 9.3125C40.3125 9.375 40.3594 9.44531 40.3906 9.52344C40.4062 9.58594 40.4141 9.64844 40.4141 9.71094C40.4141 9.77344 40.4219 9.83594 40.4375 9.89844C40.4688 9.97656 40.4922 10.0469 40.5078 10.1094C40.5234 10.1562 40.5391 10.1953 40.5547 10.2266C40.5859 10.3516 40.5938 10.4766 40.5781 10.6016C40.5625 10.7109 40.5625 10.8281 40.5781 10.9531C40.5938 11.0469 40.6016 11.1484 40.6016 11.2578C40.6172 11.3516 40.6328 11.4453 40.6484 11.5391C40.6484 11.6641 40.6562 11.7656 40.6719 11.8438L40.7422 12.1016ZM37.3906 10.2266C37.4219 10.1953 37.4219 10.1406 37.3906 10.0625C37.375 9.98438 37.3359 9.92969 37.2734 9.89844C37.2422 9.78906 37.1953 9.72656 37.1328 9.71094C37.0859 9.67969 37.0859 9.63281 37.1328 9.57031C37.0859 9.52344 37.0234 9.48438 36.9453 9.45312C36.8672 9.42188 36.8359 9.35938 36.8516 9.26562C36.7734 9.28125 36.7188 9.26562 36.6875 9.21875C36.6719 9.15625 36.6484 9.11719 36.6172 9.10156C36.5078 9.02344 36.4375 8.94531 36.4062 8.86719C36.375 8.78906 36.3281 8.72656 36.2656 8.67969C36.2188 8.64844 36.1641 8.64844 36.1016 8.67969C36.0547 8.69531 36.0312 8.65625 36.0312 8.5625C35.7812 8.57812 35.5859 8.53906 35.4453 8.44531C35.3203 8.33594 35.1953 8.21875 35.0703 8.09375C34.9297 8.125 34.7734 8.13281 34.6016 8.11719C34.4297 8.10156 34.2656 8.10156 34.1094 8.11719C33.9844 8.03906 33.8672 8.00781 33.7578 8.02344C33.6641 8.02344 33.5469 8 33.4062 7.95312C33.3438 7.9375 33.3047 7.90625 33.2891 7.85938C33.2891 7.79688 33.25 7.76562 33.1719 7.76562C33.0625 7.8125 32.9531 7.8125 32.8438 7.76562C32.75 7.71875 32.6406 7.6875 32.5156 7.67188C32.3906 7.75 32.2578 7.80469 32.1172 7.83594C31.9766 7.85156 31.8359 7.88281 31.6953 7.92969C31.6172 7.96094 31.5312 8.03906 31.4375 8.16406C31.3438 8.27344 31.2734 8.35156 31.2266 8.39844C31.1172 8.52344 31.0078 8.64844 30.8984 8.77344C30.7891 8.89844 30.6875 9.02344 30.5938 9.14844C30.6094 9.24219 30.6016 9.32031 30.5703 9.38281C30.5391 9.42969 30.5312 9.49219 30.5469 9.57031C30.4375 9.64844 30.3594 9.77344 30.3125 9.94531C30.2812 10.1016 30.25 10.2578 30.2188 10.4141C30.3281 10.4297 30.4531 10.4297 30.5938 10.4141C30.7344 10.3984 30.8828 10.3828 31.0391 10.3672C31.0859 10.3516 31.1328 10.3438 31.1797 10.3438C31.2422 10.3438 31.2969 10.3438 31.3438 10.3438C31.5781 10.2969 31.7812 10.2812 31.9531 10.2969C32.125 10.2969 32.2812 10.2891 32.4219 10.2734C32.5781 10.2734 32.7266 10.2656 32.8672 10.25C33.0234 10.2188 33.1641 10.2344 33.2891 10.2969C33.4609 10.2188 33.6562 10.1875 33.875 10.2031C34.1094 10.2188 34.2969 10.2344 34.4375 10.25C34.5625 10.25 34.6328 10.2422 34.6484 10.2266C34.6641 10.2109 34.6797 10.2109 34.6953 10.2266C35.1484 10.1953 35.5938 10.2109 36.0312 10.2734C36.4844 10.3203 36.9375 10.3047 37.3906 10.2266ZM56 18.7812C56.0156 18.8594 55.9922 18.9062 55.9297 18.9219C55.8828 18.9375 55.8438 18.9766 55.8125 19.0391C55.7812 19.0703 55.7578 19.1094 55.7422 19.1562C55.7422 19.2188 55.7109 19.25 55.6484 19.25C55.5391 19.25 55.4688 19.2578 55.4375 19.2734C55.4062 19.2891 55.375 19.2891 55.3438 19.2734C55.2969 19.2734 55.25 19.2578 55.2031 19.2266C55.1562 19.1953 55.0938 19.1719 55.0156 19.1562C54.8594 19.1406 54.7031 19.1484 54.5469 19.1797C54.4062 19.2109 54.2656 19.2266 54.125 19.2266C54.0781 19.2266 54.0234 19.2188 53.9609 19.2031C53.9141 19.1875 53.8672 19.1797 53.8203 19.1797C53.6641 19.1797 53.5156 19.1797 53.375 19.1797C53.2344 19.1953 53.0859 19.1875 52.9297 19.1562C52.8672 19.1406 52.8047 19.1172 52.7422 19.0859C52.6953 19.0547 52.6328 19.0469 52.5547 19.0625C52.5391 18.9844 52.5 18.9297 52.4375 18.8984C52.3906 18.8672 52.3594 18.8125 52.3438 18.7344C52.3125 18.5938 52.3281 18.4453 52.3906 18.2891C52.4531 18.1328 52.4688 17.9844 52.4375 17.8438C52.5312 17.6719 52.5859 17.5 52.6016 17.3281C52.5859 17.25 52.5781 17.1797 52.5781 17.1172C52.5938 17.0391 52.6016 16.9844 52.6016 16.9531C52.6328 16.875 52.6406 16.7578 52.625 16.6016C52.6094 16.4453 52.6094 16.2969 52.625 16.1562C52.6406 16 52.6484 15.8438 52.6484 15.6875C52.6484 15.5156 52.6484 15.3281 52.6484 15.125C52.6328 14.9531 52.6172 14.8359 52.6016 14.7734C52.5859 14.6953 52.5703 14.625 52.5547 14.5625C52.5859 14.4062 52.5938 14.3203 52.5781 14.3047C52.5625 14.2734 52.5547 14.2344 52.5547 14.1875C52.5703 14.0312 52.5625 13.9219 52.5312 13.8594C52.5156 13.7969 52.5 13.7344 52.4844 13.6719C52.4844 13.625 52.4922 13.5859 52.5078 13.5547C52.5234 13.5078 52.5312 13.4609 52.5312 13.4141C52.5312 13.2422 52.5234 13.1172 52.5078 13.0391C52.4922 12.9453 52.4766 12.8594 52.4609 12.7812C52.4609 12.7188 52.4688 12.6562 52.4844 12.5938C52.5 12.5156 52.4688 12.4609 52.3906 12.4297C52.4219 12.3828 52.4375 12.2969 52.4375 12.1719C52.4062 12 52.3906 11.875 52.3906 11.7969C52.3906 11.7188 52.3906 11.6562 52.3906 11.6094C52.3594 11.5 52.3438 11.4375 52.3438 11.4219C52.3438 11.3906 52.3438 11.3672 52.3438 11.3516C52.3281 11.2891 52.3047 11.2188 52.2734 11.1406C52.2578 11.0469 52.2344 10.9609 52.2031 10.8828C52.2344 10.7891 52.2344 10.7031 52.2031 10.625C52.1875 10.5312 52.1641 10.4375 52.1328 10.3438C52.1016 10.2188 52.0703 10.1484 52.0391 10.1328C52.0234 10.1016 52.0078 10.0703 51.9922 10.0391C51.8984 9.80469 51.8125 9.59375 51.7344 9.40625C51.6719 9.20312 51.625 8.97656 51.5938 8.72656C51.5156 8.63281 51.4297 8.54688 51.3359 8.46875C51.2578 8.39062 51.1953 8.28906 51.1484 8.16406C50.9766 8.07031 50.8281 7.99219 50.7031 7.92969C50.5938 7.85156 50.4062 7.82812 50.1406 7.85938C50.0938 7.85938 50.0391 7.875 49.9766 7.90625C49.9141 7.92188 49.8516 7.9375 49.7891 7.95312C49.6641 8 49.5469 8.03906 49.4375 8.07031C49.3438 8.08594 49.2422 8.125 49.1328 8.1875C49.0391 8.26562 48.9688 8.30469 48.9219 8.30469C48.8906 8.30469 48.8672 8.3125 48.8516 8.32812C48.8047 8.35938 48.7656 8.40625 48.7344 8.46875C48.7031 8.51562 48.6719 8.55469 48.6406 8.58594C48.5625 8.67969 48.5078 8.75 48.4766 8.79688C48.4609 8.82812 48.4375 8.85938 48.4062 8.89062C48.375 8.9375 48.3281 9 48.2656 9.07812C48.2031 9.14062 48.1406 9.1875 48.0781 9.21875C48.0781 9.28125 48.0547 9.32812 48.0078 9.35938C47.9609 9.39062 47.9219 9.42969 47.8906 9.47656C47.8594 9.57031 47.8281 9.625 47.7969 9.64062C47.7656 9.65625 47.7422 9.67188 47.7266 9.6875C47.6797 9.76562 47.6406 9.85938 47.6094 9.96875C47.5781 10.0781 47.5156 10.1562 47.4219 10.2031C47.4062 10.3438 47.375 10.4531 47.3281 10.5312C47.2812 10.6094 47.2188 10.6875 47.1406 10.7656C47.1562 10.9844 47.1172 11.1406 47.0234 11.2344C46.9297 11.3281 46.8516 11.4453 46.7891 11.5859C46.7578 11.7578 46.7266 11.8984 46.6953 12.0078C46.6797 12.1016 46.6562 12.1875 46.625 12.2656C46.5938 12.3438 46.5703 12.4297 46.5547 12.5234C46.5391 12.6016 46.5078 12.6719 46.4609 12.7344C46.4922 12.9531 46.4688 13.1641 46.3906 13.3672C46.3125 13.5703 46.2578 13.7891 46.2266 14.0234C46.2109 14.0703 46.2031 14.125 46.2031 14.1875C46.2188 14.25 46.2188 14.3047 46.2031 14.3516C46.1875 14.4922 46.1719 14.6641 46.1562 14.8672C46.1406 15.0547 46.125 15.2344 46.1094 15.4062C46.1094 15.4375 46.1094 15.4766 46.1094 15.5234C46.125 15.5703 46.1328 15.6172 46.1328 15.6641C46.1328 15.7734 46.1172 15.8828 46.0859 15.9922C46.0703 16.0859 46.0625 16.1875 46.0625 16.2969C46.0469 16.375 46.0547 16.4609 46.0859 16.5547C46.1172 16.6328 46.125 16.7109 46.1094 16.7891C46.0938 16.9297 46.0859 17.0391 46.0859 17.1172C46.1016 17.1953 46.1172 17.2656 46.1328 17.3281C46.1484 17.3906 46.1562 17.4531 46.1562 17.5156C46.1719 17.5625 46.2031 17.6016 46.25 17.6328C46.2188 17.7734 46.2188 17.9062 46.25 18.0312C46.2812 18.1562 46.3281 18.2734 46.3906 18.3828C46.4531 18.4766 46.4375 18.5938 46.3438 18.7344C46.2188 18.9062 46.0391 18.9688 45.8047 18.9219C45.5703 18.8906 45.3203 18.8828 45.0547 18.8984C44.9297 18.8984 44.8203 18.9062 44.7266 18.9219C44.6328 18.9375 44.5391 18.9453 44.4453 18.9453C44.3359 18.9609 44.2266 18.9766 44.1172 18.9922C44.0078 19.0078 43.9062 19 43.8125 18.9688C43.7656 18.9688 43.7188 18.9531 43.6719 18.9219C43.625 18.9062 43.5859 18.8828 43.5547 18.8516C43.4297 18.8047 43.3516 18.7656 43.3203 18.7344C43.2734 18.6562 43.25 18.5781 43.25 18.5C43.2656 18.4062 43.2656 18.3203 43.25 18.2422C43.25 18.1953 43.2344 18.1484 43.2031 18.1016C43.1875 18.0391 43.1797 17.9766 43.1797 17.9141C43.1797 17.7891 43.1875 17.6641 43.2031 17.5391C43.2188 17.4141 43.2344 17.2891 43.25 17.1641C43.25 17.0391 43.2578 16.9297 43.2734 16.8359C43.2891 16.7266 43.2969 16.625 43.2969 16.5312C43.2969 16.4531 43.2891 16.3672 43.2734 16.2734C43.2734 16.1797 43.3125 16.0938 43.3906 16.0156C43.3438 15.8906 43.3281 15.8125 43.3438 15.7812C43.375 15.7344 43.3906 15.7031 43.3906 15.6875C43.3906 15.6094 43.375 15.5078 43.3438 15.3828V14.5859C43.3281 14.4297 43.3125 14.2734 43.2969 14.1172C43.2812 13.9609 43.2656 13.7812 43.25 13.5781C43.25 13.5 43.2422 13.4375 43.2266 13.3906C43.2109 13.3438 43.2031 13.3047 43.2031 13.2734C43.2344 13.1484 43.2344 13.0625 43.2031 13.0156C43.1875 12.9531 43.1797 12.8984 43.1797 12.8516C43.1797 12.7266 43.1953 12.5859 43.2266 12.4297C43.2422 12.3828 43.2578 12.3438 43.2734 12.3125C43.2891 12.2656 43.3047 12.2188 43.3203 12.1719C43.2891 12.0469 43.2812 11.9609 43.2969 11.9141C43.3125 11.8672 43.3203 11.8281 43.3203 11.7969C43.3047 11.6719 43.2812 11.5312 43.25 11.375C43.2344 11.2188 43.2656 11.0547 43.3438 10.8828C43.3125 10.8047 43.2812 10.7188 43.25 10.625C43.2188 10.5312 43.2422 10.4531 43.3203 10.3906C43.2891 10.3125 43.2578 10.2422 43.2266 10.1797C43.1953 10.1016 43.1797 10.0078 43.1797 9.89844C43.2109 9.67969 43.2109 9.46094 43.1797 9.24219C43.1641 9.02344 43.1953 8.85938 43.2734 8.75C43.1953 8.625 43.1719 8.47656 43.2031 8.30469C43.2344 8.11719 43.2422 7.92969 43.2266 7.74219C43.2109 7.69531 43.1953 7.64844 43.1797 7.60156C43.1641 7.55469 43.1562 7.50781 43.1562 7.46094C43.125 7.33594 43.1172 7.21094 43.1328 7.08594C43.1484 6.96094 43.1484 6.84375 43.1328 6.73438C43.0547 6.51562 43.0078 6.3125 42.9922 6.125C42.9766 5.92188 42.9453 5.75781 42.8984 5.63281C42.9453 5.60156 42.9766 5.5625 42.9922 5.51562C43.0234 5.46875 43.0547 5.42188 43.0859 5.375C43.1953 5.34375 43.3203 5.33594 43.4609 5.35156C43.6172 5.36719 43.7188 5.42188 43.7656 5.51562C43.8438 5.45312 43.9219 5.42969 44 5.44531C44.0938 5.46094 44.1875 5.47656 44.2812 5.49219C44.3438 5.49219 44.4297 5.49219 44.5391 5.49219C44.6484 5.47656 44.7578 5.46875 44.8672 5.46875C45.0234 5.45312 45.1641 5.44531 45.2891 5.44531C45.4141 5.44531 45.5391 5.44531 45.6641 5.44531C45.7109 5.49219 45.75 5.53125 45.7812 5.5625C45.8125 5.59375 45.8438 5.64062 45.875 5.70312C45.9531 5.84375 46 6.04688 46.0156 6.3125C46.0469 6.5625 46.0781 6.79688 46.1094 7.01562C46.1875 7.03125 46.2266 7.00781 46.2266 6.94531C46.2422 6.88281 46.2656 6.83594 46.2969 6.80469C46.375 6.75781 46.4531 6.71094 46.5312 6.66406C46.6094 6.61719 46.6875 6.55469 46.7656 6.47656C46.8281 6.46094 46.875 6.44531 46.9062 6.42969C46.9531 6.39844 47.0156 6.39062 47.0938 6.40625C47.1406 6.375 47.1797 6.33594 47.2109 6.28906C47.2422 6.22656 47.2734 6.17969 47.3047 6.14844C47.3828 6.13281 47.4766 6.07031 47.5859 5.96094C47.6172 5.94531 47.6641 5.92969 47.7266 5.91406C47.7891 5.89844 47.8203 5.85938 47.8203 5.79688C47.9141 5.79688 47.9922 5.77344 48.0547 5.72656C48.1328 5.66406 48.2109 5.60938 48.2891 5.5625C48.4453 5.48438 48.5469 5.42969 48.5938 5.39844C48.6406 5.35156 48.6797 5.32031 48.7109 5.30469C48.7422 5.28906 48.7812 5.28906 48.8281 5.30469C48.8906 5.30469 48.9609 5.29688 49.0391 5.28125L49.3203 5.21094C49.4766 5.17969 49.5859 5.15625 49.6484 5.14062C49.7109 5.125 49.7656 5.11719 49.8125 5.11719C49.8906 5.10156 49.9688 5.09375 50.0469 5.09375C50.125 5.07812 50.1875 5.07031 50.2344 5.07031C50.3594 5.11719 50.4844 5.14062 50.6094 5.14062C50.7344 5.14062 50.8359 5.14844 50.9141 5.16406C51.0859 5.22656 51.2188 5.26562 51.3125 5.28125C51.4219 5.29688 51.5156 5.3125 51.5938 5.32812C51.6719 5.39062 51.7578 5.42969 51.8516 5.44531C51.9922 5.49219 52.0859 5.53125 52.1328 5.5625C52.1953 5.57812 52.2734 5.63281 52.3672 5.72656C52.3984 5.75781 52.4297 5.79688 52.4609 5.84375C52.4922 5.875 52.5078 5.91406 52.5078 5.96094C52.6016 6.03906 52.6875 6.10938 52.7656 6.17188C52.8594 6.23438 52.9531 6.3125 53.0469 6.40625C53.0781 6.4375 53.1016 6.47656 53.1172 6.52344C53.1328 6.57031 53.1562 6.60938 53.1875 6.64062C53.2344 6.6875 53.2812 6.72656 53.3281 6.75781C53.3906 6.78906 53.4453 6.82812 53.4922 6.875C53.5391 6.90625 53.5781 6.95312 53.6094 7.01562C53.6406 7.07812 53.6875 7.11719 53.75 7.13281C53.75 7.24219 53.7891 7.33594 53.8672 7.41406C53.9609 7.47656 54.0234 7.54688 54.0547 7.625C54.0859 7.70312 54.1016 7.78906 54.1016 7.88281C54.1172 7.96094 54.1641 8.03906 54.2422 8.11719C54.2578 8.25781 54.2969 8.39062 54.3594 8.51562C54.4375 8.64062 54.5078 8.77344 54.5703 8.91406C54.6016 8.99219 54.625 9.07031 54.6406 9.14844C54.6562 9.21094 54.6797 9.28125 54.7109 9.35938C54.7422 9.4375 54.7656 9.50781 54.7812 9.57031C54.7969 9.61719 54.8203 9.67188 54.8516 9.73438C54.8984 9.90625 54.9219 10.0234 54.9219 10.0859C54.9219 10.1328 54.9297 10.1797 54.9453 10.2266C55.0703 10.4766 55.1641 10.7578 55.2266 11.0703C55.2578 11.2266 55.2812 11.3281 55.2969 11.375C55.3125 11.4219 55.3203 11.4609 55.3203 11.4922C55.3359 11.5703 55.3438 11.6406 55.3438 11.7031C55.3438 11.7656 55.3516 11.8359 55.3672 11.9141C55.3672 11.9766 55.375 12.0391 55.3906 12.1016C55.4062 12.1641 55.4141 12.2266 55.4141 12.2891C55.4297 12.3516 55.4297 12.4141 55.4141 12.4766C55.3984 12.5234 55.3984 12.5859 55.4141 12.6641C55.4297 12.7891 55.4531 12.9219 55.4844 13.0625C55.5156 13.1875 55.5469 13.3125 55.5781 13.4375C55.6094 13.5156 55.6016 13.5703 55.5547 13.6016C55.5234 13.6328 55.5078 13.6797 55.5078 13.7422C55.5391 13.8047 55.5625 13.875 55.5781 13.9531C55.6094 14.0312 55.6328 14.1094 55.6484 14.1875C55.6484 14.2188 55.6406 14.2578 55.625 14.3047C55.6094 14.3516 55.6016 14.3984 55.6016 14.4453C55.6016 14.5391 55.6094 14.6406 55.625 14.75C55.6406 14.8594 55.6016 14.9531 55.5078 15.0312C55.5859 15.1719 55.6328 15.3359 55.6484 15.5234C55.6641 15.7109 55.6406 15.8828 55.5781 16.0391C55.5469 16.1172 55.5547 16.1641 55.6016 16.1797C55.6484 16.1797 55.6641 16.2188 55.6484 16.2969C55.5859 16.4219 55.5625 16.5391 55.5781 16.6484C55.6094 16.7422 55.6094 16.8516 55.5781 16.9766C55.5781 17.0547 55.5625 17.1172 55.5312 17.1641C55.5156 17.1953 55.5078 17.2422 55.5078 17.3047C55.4766 17.3672 55.4844 17.4375 55.5312 17.5156C55.5781 17.5781 55.5703 17.6484 55.5078 17.7266C55.5234 17.8047 55.5469 17.875 55.5781 17.9375C55.625 17.9844 55.6328 18.0781 55.6016 18.2188C55.6328 18.2656 55.6719 18.3047 55.7188 18.3359C55.7656 18.3516 55.8125 18.375 55.8594 18.4062C55.8281 18.5156 55.8438 18.5781 55.9062 18.5938C55.9688 18.625 56 18.6875 56 18.7812ZM65.0938 6.80469C65.0781 6.96094 65.0781 7.07031 65.0938 7.13281C65.1094 7.19531 65.1094 7.24219 65.0938 7.27344C65.0625 7.38281 65.0078 7.46094 64.9297 7.50781C64.8516 7.53906 64.7812 7.58594 64.7188 7.64844C64.5625 7.57031 64.4219 7.55469 64.2969 7.60156C64.1719 7.64844 64.0469 7.6875 63.9219 7.71875C63.8906 7.71875 63.8359 7.72656 63.7578 7.74219C63.6953 7.74219 63.6484 7.74219 63.6172 7.74219C63.4922 7.74219 63.375 7.76562 63.2656 7.8125C63.1562 7.85938 63.0547 7.89062 62.9609 7.90625C62.8828 7.92188 62.8125 7.92188 62.75 7.90625C62.6875 7.89062 62.6172 7.90625 62.5391 7.95312C62.4766 8.09375 62.4531 8.25 62.4688 8.42188C62.5 8.57812 62.5 8.74219 62.4688 8.91406C62.4375 9.16406 62.4297 9.36719 62.4453 9.52344C62.4766 9.66406 62.4922 9.79688 62.4922 9.92188C62.4922 10.0625 62.4844 10.1953 62.4688 10.3203C62.4688 10.4453 62.5 10.5625 62.5625 10.6719C62.5156 10.7656 62.4844 10.8828 62.4688 11.0234C62.4688 11.1484 62.4688 11.2734 62.4688 11.3984C62.4375 11.6172 62.4375 11.8672 62.4688 12.1484C62.5 12.4297 62.5156 12.6797 62.5156 12.8984C62.5 13.0078 62.4844 13.1094 62.4688 13.2031C62.4688 13.2812 62.4609 13.3672 62.4453 13.4609C62.4141 13.5859 62.4062 13.6641 62.4219 13.6953C62.4375 13.7266 62.4453 13.7578 62.4453 13.7891C62.4297 13.9453 62.4219 14.125 62.4219 14.3281C62.4375 14.5312 62.4375 14.7422 62.4219 14.9609C62.4219 15.1016 62.4141 15.2031 62.3984 15.2656C62.3828 15.3281 62.375 15.3828 62.375 15.4297C62.3906 15.5547 62.4062 15.6875 62.4219 15.8281C62.4531 15.9688 62.4141 16.1094 62.3047 16.25C62.3047 16.2969 62.3125 16.3438 62.3281 16.3906C62.3594 16.4219 62.3828 16.4609 62.3984 16.5078C62.3672 16.6328 62.3594 16.7266 62.375 16.7891C62.4062 16.8516 62.4219 16.8984 62.4219 16.9297C62.3906 17.1016 62.3828 17.25 62.3984 17.375C62.4141 17.4844 62.4297 17.5938 62.4453 17.7031C62.4453 18.1875 62.3438 18.5078 62.1406 18.6641C61.9375 18.6328 61.7344 18.6016 61.5312 18.5703C61.3438 18.5391 61.1484 18.5391 60.9453 18.5703C60.8516 18.5859 60.7578 18.6016 60.6641 18.6172C60.5703 18.6484 60.4609 18.6406 60.3359 18.5938C60.2578 18.6094 60.2031 18.625 60.1719 18.6406C60.1406 18.6719 60.0938 18.6875 60.0312 18.6875C59.9688 18.7031 59.9141 18.6875 59.8672 18.6406C59.8203 18.5938 59.7656 18.5625 59.7031 18.5469C59.6719 18.3594 59.6641 18.125 59.6797 17.8438C59.7109 17.5625 59.7188 17.2656 59.7031 16.9531C59.7031 16.875 59.6953 16.8125 59.6797 16.7656C59.6641 16.7031 59.6484 16.6328 59.6328 16.5547C59.6172 16.4453 59.6094 16.3359 59.6094 16.2266C59.625 16.1016 59.625 15.9766 59.6094 15.8516C59.6094 15.8047 59.6172 15.7578 59.6328 15.7109C59.6484 15.6484 59.6562 15.5938 59.6562 15.5469C59.6562 15.4844 59.6406 15.4531 59.6094 15.4531C59.5938 15.4375 59.5859 15.3828 59.5859 15.2891C59.5859 15.0859 59.6016 14.8984 59.6328 14.7266C59.6797 14.5547 59.7188 14.3828 59.75 14.2109C59.7188 14.0234 59.7031 13.8906 59.7031 13.8125C59.7031 13.7188 59.7031 13.6406 59.7031 13.5781C59.6875 13.5156 59.6641 13.4453 59.6328 13.3672C59.6016 13.2891 59.5859 13.2109 59.5859 13.1328C59.5859 13.0703 59.5859 13.0234 59.5859 12.9922C59.6016 12.9609 59.5938 12.9062 59.5625 12.8281C59.5469 12.5625 59.5469 12.3281 59.5625 12.125C59.5938 11.9062 59.6016 11.6953 59.5859 11.4922C59.5391 11.3203 59.5156 11.1875 59.5156 11.0938C59.5156 10.9844 59.5078 10.8906 59.4922 10.8125C59.4766 10.7031 59.4609 10.5859 59.4453 10.4609C59.4453 10.3359 59.4531 10.2031 59.4688 10.0625C59.4688 10 59.4766 9.94531 59.4922 9.89844C59.5078 9.85156 59.5156 9.79688 59.5156 9.73438C59.5156 9.65625 59.5 9.58594 59.4688 9.52344C59.4531 9.46094 59.4453 9.39062 59.4453 9.3125C59.4453 9.1875 59.4531 9.05469 59.4688 8.91406C59.5 8.77344 59.5156 8.64062 59.5156 8.51562C59.5 8.46875 59.4844 8.42188 59.4688 8.375C59.4531 8.3125 59.4453 8.25781 59.4453 8.21094C59.4297 8.05469 59.4375 7.90625 59.4688 7.76562C59.5156 7.625 59.5234 7.48438 59.4922 7.34375C59.1797 7.40625 58.9297 7.46875 58.7422 7.53125C58.6797 7.54688 58.6172 7.5625 58.5547 7.57812C58.5078 7.57812 58.4453 7.59375 58.3672 7.625C58.2422 7.65625 58.1406 7.6875 58.0625 7.71875C57.9844 7.75 57.8984 7.72656 57.8047 7.64844C57.6641 7.52344 57.5781 7.42188 57.5469 7.34375C57.5312 7.21875 57.5469 7.11719 57.5938 7.03906C57.6562 6.96094 57.7266 6.88281 57.8047 6.80469C57.7734 6.74219 57.7734 6.69531 57.8047 6.66406C57.8359 6.63281 57.8594 6.57812 57.875 6.5C57.8906 6.42188 57.8906 6.34375 57.875 6.26562C57.875 6.17188 57.8906 6.07812 57.9219 5.98438C57.9531 5.89062 57.9922 5.80469 58.0391 5.72656C58.0859 5.64844 58.1172 5.57031 58.1328 5.49219C58.1484 5.38281 58.1406 5.27344 58.1094 5.16406C58.0781 5.05469 58.0781 4.94531 58.1094 4.83594C58.1562 4.57031 58.3516 4.46875 58.6953 4.53125C58.7891 4.5625 58.875 4.58594 58.9531 4.60156C59.0312 4.61719 59.0859 4.66406 59.1172 4.74219C59.2578 4.72656 59.3594 4.74219 59.4219 4.78906C59.5 4.83594 59.6016 4.85938 59.7266 4.85938C59.8359 4.71875 59.8828 4.53125 59.8672 4.29688C59.8516 4.0625 59.8516 3.8125 59.8672 3.54688C59.8984 3.40625 59.9062 3.30469 59.8906 3.24219C59.875 3.17969 59.8594 3.11719 59.8438 3.05469C59.8125 2.82031 59.8203 2.60156 59.8672 2.39844C59.8828 2.35156 59.8984 2.30469 59.9141 2.25781C59.9297 2.19531 59.9375 2.14062 59.9375 2.09375C59.9375 1.96875 59.9141 1.85938 59.8672 1.76562C59.8672 1.67188 59.8516 1.60156 59.8203 1.55469C59.8047 1.50781 59.7812 1.46875 59.75 1.4375C59.7344 1.40625 59.7188 1.38281 59.7031 1.36719C59.6875 1.33594 59.6875 1.28906 59.7031 1.22656C59.8125 1.11719 59.8906 1.07031 59.9375 1.08594C59.9844 1.08594 60.0469 1.08594 60.125 1.08594C60.25 1.05469 60.3516 1.03125 60.4297 1.01562C60.5234 1 60.6406 1.00781 60.7812 1.03906C60.9219 1.00781 61.0312 1.00781 61.1094 1.03906C61.1875 1.05469 61.2734 1.07031 61.3672 1.08594C61.4297 1.07031 61.4844 1.04688 61.5312 1.01562C61.5781 0.984375 61.625 0.960937 61.6719 0.945312C61.7188 0.976563 61.7812 0.984375 61.8594 0.96875C61.9375 0.9375 61.9922 0.953125 62.0234 1.01562C62.1016 1.125 62.1562 1.19531 62.1875 1.22656C62.2188 1.24219 62.2344 1.26562 62.2344 1.29688C62.2656 1.42188 62.2656 1.60156 62.2344 1.83594C62.2188 2.05469 62.2031 2.25 62.1875 2.42188C62.2031 2.5 62.2109 2.57812 62.2109 2.65625C62.2109 2.71875 62.2109 2.78906 62.2109 2.86719C62.2109 2.91406 62.2031 2.97656 62.1875 3.05469C62.1719 3.13281 62.1641 3.1875 62.1641 3.21875C62.2109 3.35938 62.2266 3.46875 62.2109 3.54688C62.2109 3.60938 62.2188 3.65625 62.2344 3.6875C62.25 3.79688 62.2734 3.89844 62.3047 3.99219C62.3359 4.07031 62.2969 4.16406 62.1875 4.27344C62.2188 4.36719 62.2266 4.46094 62.2109 4.55469C62.1953 4.63281 62.1797 4.72656 62.1641 4.83594C62.1641 4.88281 62.1641 4.9375 62.1641 5C62.1797 5.0625 62.1875 5.11719 62.1875 5.16406C62.1875 5.24219 62.1719 5.3125 62.1406 5.375C62.1094 5.4375 62.1094 5.50781 62.1406 5.58594C62.2656 5.60156 62.375 5.57812 62.4688 5.51562C62.5625 5.45312 62.6562 5.40625 62.75 5.375C62.8438 5.34375 62.9375 5.33594 63.0312 5.35156C63.1406 5.35156 63.2422 5.3125 63.3359 5.23438C63.4141 5.29688 63.5 5.29688 63.5938 5.23438C63.6875 5.17188 63.7656 5.1875 63.8281 5.28125C63.9062 5.1875 64.0391 5.11719 64.2266 5.07031C64.4141 5.02344 64.5703 5.02344 64.6953 5.07031C64.7578 5.19531 64.8047 5.28125 64.8359 5.32812C64.8672 5.35938 64.8906 5.39062 64.9062 5.42188C64.9219 5.45312 64.9219 5.5 64.9062 5.5625C64.8906 5.60938 64.8906 5.66406 64.9062 5.72656C64.9375 5.85156 64.9453 5.9375 64.9297 5.98438C64.9297 6.01562 64.9297 6.04688 64.9297 6.07812C64.9453 6.1875 64.9688 6.28906 65 6.38281C65.0312 6.47656 65.0547 6.5625 65.0703 6.64062L65.0938 6.80469ZM80.375 11.3516C80.3438 11.5234 80.3438 11.6641 80.375 11.7734C80.4062 11.8828 80.3906 11.9766 80.3281 12.0547C80.4219 12.1328 80.4531 12.2266 80.4219 12.3359C80.4062 12.4453 80.3828 12.5625 80.3516 12.6875C80.3359 12.7656 80.3359 12.8438 80.3516 12.9219C80.3672 13 80.3672 13.0625 80.3516 13.1094C80.2734 13.25 80.2188 13.3516 80.1875 13.4141C80.1719 13.4766 80.1484 13.5078 80.1172 13.5078C80.1328 13.6016 80.125 13.6953 80.0938 13.7891C80.0625 13.8828 80.0312 13.9766 80 14.0703C79.9688 14.1953 79.9375 14.2734 79.9062 14.3047C79.8906 14.3359 79.8828 14.3672 79.8828 14.3984C79.8672 14.5547 79.8438 14.6641 79.8125 14.7266C79.7969 14.7734 79.7812 14.8125 79.7656 14.8438C79.7188 14.9688 79.6719 15.0938 79.625 15.2188C79.5781 15.3438 79.5312 15.4688 79.4844 15.5938C79.4062 15.75 79.3359 15.9062 79.2734 16.0625C79.2109 16.2031 79.125 16.3281 79.0156 16.4375C79.0156 16.5156 79.0156 16.5703 79.0156 16.6016C79.0312 16.6172 79.0312 16.6641 79.0156 16.7422C78.9375 16.8203 78.8672 16.8906 78.8047 16.9531C78.7422 17 78.6797 17.0859 78.6172 17.2109C78.5703 17.3359 78.4922 17.4609 78.3828 17.5859C78.3203 17.6641 78.25 17.7266 78.1719 17.7734C78.0938 17.8047 78.0156 17.8594 77.9375 17.9375C77.8594 17.9375 77.8125 17.9453 77.7969 17.9609C77.7812 17.9766 77.7422 17.9688 77.6797 17.9375C77.5547 18.0625 77.4375 18.1562 77.3281 18.2188C77.2188 18.2812 77.0625 18.3438 76.8594 18.4062C76.7656 18.4375 76.6953 18.4531 76.6484 18.4531C76.6172 18.4531 76.5859 18.4609 76.5547 18.4766C76.4609 18.5078 76.3594 18.5391 76.25 18.5703C76.1562 18.6172 76.0469 18.6406 75.9219 18.6406C75.75 18.625 75.625 18.625 75.5469 18.6406C75.4844 18.6719 75.4141 18.6953 75.3359 18.7109C75.2109 18.7422 75.0781 18.75 74.9375 18.7344C74.7969 18.7344 74.6562 18.7422 74.5156 18.7578C74.3906 18.7578 74.3125 18.7656 74.2812 18.7812C74.25 18.8125 74.2188 18.8281 74.1875 18.8281C74.0625 18.8281 73.9688 18.8203 73.9062 18.8047C73.8594 18.8047 73.8203 18.8125 73.7891 18.8281C73.6953 18.8438 73.6016 18.8672 73.5078 18.8984C73.4141 18.9453 73.2891 18.9531 73.1328 18.9219C72.8672 18.9844 72.6016 19.0156 72.3359 19.0156C72.0703 19.0312 71.8594 18.9766 71.7031 18.8516C71.6094 18.8984 71.5078 18.9062 71.3984 18.875C71.2891 18.8438 71.2109 18.8203 71.1641 18.8047C71.1328 18.8047 71.1016 18.8047 71.0703 18.8047C70.9141 18.7734 70.75 18.7266 70.5781 18.6641C70.4219 18.6172 70.2812 18.5469 70.1562 18.4531C69.9375 18.375 69.7734 18.3047 69.6641 18.2422C69.5703 18.1797 69.4453 18.1406 69.2891 18.125C69.1953 18.0312 69.125 17.9531 69.0781 17.8906C69.0312 17.8281 68.9922 17.7812 68.9609 17.75C68.9297 17.7188 68.8906 17.7031 68.8438 17.7031C68.7969 17.6875 68.7578 17.6641 68.7266 17.6328C68.6016 17.5234 68.5078 17.4609 68.4453 17.4453C68.3984 17.4141 68.3594 17.3828 68.3281 17.3516C68.2969 17.3203 68.2656 17.2891 68.2344 17.2578C68.2031 17.2109 68.1719 17.1641 68.1406 17.1172C68 16.9453 67.8984 16.8281 67.8359 16.7656C67.7734 16.7031 67.7109 16.6484 67.6484 16.6016C67.6328 16.5391 67.6094 16.4922 67.5781 16.4609C67.5625 16.4297 67.5625 16.375 67.5781 16.2969C67.4688 16.2031 67.4062 16.1406 67.3906 16.1094C67.375 16.0781 67.3594 16.0547 67.3438 16.0391C67.2344 15.8672 67.1406 15.7422 67.0625 15.6641C67.0312 15.6172 67.0078 15.5625 66.9922 15.5C66.9766 15.4375 66.9531 15.3516 66.9219 15.2422C66.8906 15.1016 66.8594 14.9922 66.8281 14.9141C66.7969 14.8203 66.7969 14.7344 66.8281 14.6562C66.7969 14.6094 66.7578 14.5703 66.7109 14.5391C66.6797 14.5078 66.6562 14.4688 66.6406 14.4219C66.6094 14.2969 66.5938 14.1797 66.5938 14.0703C66.6094 13.9609 66.6016 13.8516 66.5703 13.7422C66.5547 13.6641 66.5234 13.5938 66.4766 13.5312C66.4453 13.4688 66.4453 13.3984 66.4766 13.3203C66.4297 13.2734 66.3906 13.2188 66.3594 13.1562C66.3438 13.0781 66.3125 13.0156 66.2656 12.9688C66.2969 12.875 66.2891 12.7812 66.2422 12.6875C66.2109 12.5938 66.1953 12.4844 66.1953 12.3594C66.1953 12.2969 66.1953 12.2422 66.1953 12.1953C66.2109 12.1328 66.2266 12.0625 66.2422 11.9844V11.5859C66.2578 11.4922 66.2734 11.4062 66.2891 11.3281C66.3203 11.25 66.3516 11.1719 66.3828 11.0938C66.3984 11 66.4062 10.9219 66.4062 10.8594C66.4062 10.7812 66.4375 10.7266 66.5 10.6953C66.4375 10.4922 66.4453 10.3047 66.5234 10.1328C66.6016 9.96094 66.6406 9.77344 66.6406 9.57031C66.6719 9.53906 66.6953 9.5 66.7109 9.45312C66.7266 9.39062 66.75 9.34375 66.7812 9.3125C66.7812 9.14062 66.8047 9 66.8516 8.89062C66.9141 8.78125 66.9609 8.66406 66.9922 8.53906C67.0859 8.50781 67.1484 8.46094 67.1797 8.39844C67.2266 8.32031 67.2734 8.24219 67.3203 8.16406C67.4141 8.10156 67.4766 8.03125 67.5078 7.95312C67.5391 7.85938 67.5938 7.82031 67.6719 7.83594C67.7656 7.69531 67.8359 7.57812 67.8828 7.48438C67.9453 7.39062 68.0312 7.3125 68.1406 7.25C68.2656 7.1875 68.3438 7.14844 68.375 7.13281C68.4062 7.11719 68.4375 7.09375 68.4688 7.0625C68.5156 7.01562 68.5547 6.97656 68.5859 6.94531C68.6172 6.89844 68.6484 6.85938 68.6797 6.82812C68.8203 6.71875 68.9609 6.63281 69.1016 6.57031C69.1484 6.50781 69.2031 6.45312 69.2656 6.40625C69.3438 6.35938 69.4219 6.3125 69.5 6.26562C69.625 6.1875 69.7109 6.14062 69.7578 6.125C69.8047 6.10938 69.8438 6.10156 69.875 6.10156C69.9219 6.07031 69.9844 6.03125 70.0625 5.98438C70.1562 5.92188 70.2422 5.91406 70.3203 5.96094C70.5078 5.77344 70.8438 5.67969 71.3281 5.67969C71.5781 5.61719 71.7656 5.57031 71.8906 5.53906C72.0156 5.50781 72.1797 5.5 72.3828 5.51562C72.4453 5.51562 72.5 5.52344 72.5469 5.53906C72.6094 5.55469 72.6641 5.5625 72.7109 5.5625C72.7891 5.5625 72.8594 5.55469 72.9219 5.53906C73 5.52344 73.0781 5.50781 73.1562 5.49219C73.3594 5.46094 73.5156 5.44531 73.625 5.44531C73.7344 5.42969 73.8438 5.4375 73.9531 5.46875C74.125 5.51562 74.2422 5.53906 74.3047 5.53906C74.3828 5.52344 74.4375 5.51562 74.4688 5.51562C74.5156 5.53125 74.5625 5.54688 74.6094 5.5625C74.6562 5.57812 74.6953 5.59375 74.7266 5.60938C74.8984 5.65625 75.0234 5.67969 75.1016 5.67969C75.1797 5.67969 75.2422 5.6875 75.2891 5.70312C75.3516 5.70312 75.4141 5.71875 75.4766 5.75C75.5391 5.76562 75.6016 5.78906 75.6641 5.82031C75.7266 5.83594 75.7891 5.85938 75.8516 5.89062C75.9141 5.90625 75.9766 5.92188 76.0391 5.9375C76.2578 5.98438 76.4609 6 76.6484 5.98438C76.8359 5.96875 77.0391 6.00781 77.2578 6.10156C77.2891 6.11719 77.3281 6.14062 77.375 6.17188C77.4219 6.20312 77.4688 6.23438 77.5156 6.26562C77.5938 6.28125 77.6484 6.30469 77.6797 6.33594C77.7109 6.36719 77.7422 6.39062 77.7734 6.40625C78.0391 6.54688 78.25 6.67969 78.4062 6.80469C78.5625 6.92969 78.7109 7.05469 78.8516 7.17969C78.8516 7.25781 78.8672 7.32812 78.8984 7.39062C78.9297 7.4375 78.9609 7.49219 78.9922 7.55469C79.0703 7.61719 79.1328 7.67969 79.1797 7.74219C79.2266 7.78906 79.2812 7.84375 79.3438 7.90625C79.375 7.9375 79.3828 7.97656 79.3672 8.02344C79.3672 8.07031 79.3828 8.125 79.4141 8.1875C79.4453 8.26562 79.4844 8.35156 79.5312 8.44531C79.5938 8.53906 79.6484 8.625 79.6953 8.70312C79.6953 8.82812 79.7031 8.89844 79.7188 8.91406C79.7344 8.92969 79.7656 8.99219 79.8125 9.10156C79.8438 9.17969 79.8828 9.28125 79.9297 9.40625C79.9766 9.51562 80.0625 9.59375 80.1875 9.64062C80.1719 9.71875 80.1875 9.80469 80.2344 9.89844C80.2812 9.97656 80.3125 10.0625 80.3281 10.1562C80.3438 10.2656 80.3516 10.375 80.3516 10.4844C80.3516 10.5938 80.3516 10.6953 80.3516 10.7891C80.3359 10.9609 80.3359 11.0859 80.3516 11.1641C80.3672 11.2266 80.375 11.2891 80.375 11.3516ZM77.5859 11.0938C77.5703 10.9688 77.5625 10.8906 77.5625 10.8594C77.5781 10.8281 77.5781 10.7734 77.5625 10.6953C77.5312 10.5391 77.4844 10.3906 77.4219 10.25C77.3594 10.1094 77.3125 9.94531 77.2812 9.75781C77.2656 9.66406 77.2578 9.57031 77.2578 9.47656C77.2734 9.36719 77.2656 9.25781 77.2344 9.14844C77.1719 9.11719 77.1328 9.07031 77.1172 9.00781C77.1172 8.94531 77.0938 8.89844 77.0469 8.86719C77.0156 8.80469 76.9688 8.75781 76.9062 8.72656C76.8438 8.69531 76.8047 8.64062 76.7891 8.5625C76.6172 8.48438 76.4688 8.40625 76.3438 8.32812C76.1875 8.32812 76.0312 8.3125 75.875 8.28125C75.7969 8.25 75.7344 8.21875 75.6875 8.1875C75.6562 8.15625 75.6094 8.13281 75.5469 8.11719C75.4219 8.10156 75.3359 8.11719 75.2891 8.16406C75.2422 8.21094 75.1484 8.21875 75.0078 8.1875C74.9297 8.15625 74.8672 8.10156 74.8203 8.02344C74.7891 7.92969 74.7344 7.85938 74.6562 7.8125C74.5781 7.78125 74.5234 7.77344 74.4922 7.78906C74.4766 7.78906 74.4297 7.78906 74.3516 7.78906C74.3047 7.77344 74.2734 7.75 74.2578 7.71875C74.2422 7.67188 74.1953 7.65625 74.1172 7.67188C73.9766 7.70312 73.8203 7.75 73.6484 7.8125C73.4922 7.85938 73.3281 7.84375 73.1562 7.76562C73.0781 7.78125 73.0156 7.80469 72.9688 7.83594C72.9375 7.86719 72.8984 7.89844 72.8516 7.92969C72.8516 7.88281 72.8125 7.86719 72.7344 7.88281C72.6719 7.89844 72.625 7.89844 72.5938 7.88281C72.4688 7.97656 72.3203 8.0625 72.1484 8.14062C71.9766 8.20312 71.8281 8.26562 71.7031 8.32812C71.5781 8.375 71.4844 8.42969 71.4219 8.49219C71.375 8.55469 71.3359 8.60156 71.3047 8.63281C71.2578 8.67969 71.2109 8.72656 71.1641 8.77344C71.1328 8.82031 71.0859 8.85938 71.0234 8.89062C70.8047 9.01562 70.6406 9.14062 70.5312 9.26562C70.4219 9.375 70.3047 9.46094 70.1797 9.52344C70.1641 9.64844 70.1094 9.75 70.0156 9.82812C69.9375 9.89062 69.875 9.98438 69.8281 10.1094C69.7969 10.1875 69.7656 10.2812 69.7344 10.3906C69.7188 10.5 69.6953 10.5938 69.6641 10.6719C69.5703 10.9531 69.5234 11.1953 69.5234 11.3984C69.5391 11.5859 69.5 11.7578 69.4062 11.9141C69.4531 11.9453 69.4688 11.9922 69.4531 12.0547C69.4531 12.1172 69.4609 12.1797 69.4766 12.2422C69.5078 12.3203 69.5312 12.3984 69.5469 12.4766C69.5781 12.5547 69.5781 12.6406 69.5469 12.7344C69.5469 12.8906 69.5547 13 69.5703 13.0625C69.6484 13.1719 69.6797 13.2422 69.6641 13.2734C69.6641 13.3047 69.6719 13.3359 69.6875 13.3672C69.7031 13.4141 69.7266 13.4609 69.7578 13.5078C69.8047 13.5547 69.8125 13.6172 69.7812 13.6953C69.8594 13.7266 69.8984 13.7734 69.8984 13.8359C69.9141 13.8984 69.9531 13.9453 70.0156 13.9766C69.9844 14.0703 70 14.1641 70.0625 14.2578C70.1406 14.3516 70.1641 14.4688 70.1328 14.6094C70.2109 14.6719 70.25 14.7188 70.25 14.75C70.25 14.7812 70.2578 14.8125 70.2734 14.8438C70.3047 14.875 70.3359 14.9141 70.3672 14.9609C70.4141 14.9922 70.4375 15.0469 70.4375 15.125C70.5156 15.1562 70.5781 15.2109 70.625 15.2891C70.6875 15.3516 70.7578 15.4141 70.8359 15.4766C70.8672 15.5078 70.8984 15.5391 70.9297 15.5703C70.9766 15.5859 71.0156 15.6094 71.0469 15.6406C71.125 15.6875 71.1875 15.7344 71.2344 15.7812C71.2812 15.8281 71.3281 15.8672 71.375 15.8984C71.4531 15.9766 71.5234 16.0234 71.5859 16.0391C71.6484 16.0391 71.7031 16.0547 71.75 16.0859C71.7969 16.1172 71.8359 16.1484 71.8672 16.1797C71.9141 16.2109 71.9531 16.2344 71.9844 16.25C72.1094 16.2969 72.2422 16.3281 72.3828 16.3438C72.5234 16.3438 72.6484 16.4062 72.7578 16.5312C72.8828 16.5312 72.9922 16.5547 73.0859 16.6016C73.1953 16.6328 73.3281 16.6406 73.4844 16.625C73.5469 16.625 73.5938 16.6484 73.625 16.6953C73.6562 16.7266 73.7109 16.7422 73.7891 16.7422C73.8672 16.7266 73.9219 16.7109 73.9531 16.6953C73.9844 16.6797 74.0391 16.6719 74.1172 16.6719C74.1953 16.6562 74.2656 16.6641 74.3281 16.6953C74.4062 16.7109 74.4766 16.7188 74.5391 16.7188C74.6172 16.7031 74.7031 16.6719 74.7969 16.625C74.9062 16.5781 74.9844 16.5391 75.0312 16.5078C75.1094 16.4609 75.1797 16.4219 75.2422 16.3906C75.3047 16.3438 75.3828 16.3203 75.4766 16.3203C75.4922 16.2422 75.5234 16.1875 75.5703 16.1562C75.6328 16.1094 75.6875 16.0625 75.7344 16.0156C75.8125 15.9375 75.8828 15.875 75.9453 15.8281C76.0078 15.7656 76.0625 15.6953 76.1094 15.6172C76.1406 15.5547 76.1797 15.5078 76.2266 15.4766C76.2734 15.4297 76.3125 15.3828 76.3438 15.3359C76.4531 15.1953 76.5469 15.0547 76.625 14.9141C76.7031 14.7578 76.7812 14.6016 76.8594 14.4453C76.9062 14.3672 76.9531 14.2891 77 14.2109C77.0469 14.1172 77.0859 14.0234 77.1172 13.9297C77.1328 13.7734 77.1484 13.6797 77.1641 13.6484C77.1953 13.6016 77.1953 13.5625 77.1641 13.5312C77.1953 13.4062 77.2188 13.3047 77.2344 13.2266C77.2656 13.1328 77.2734 13.0391 77.2578 12.9453C77.3359 12.8672 77.375 12.7734 77.375 12.6641C77.375 12.5547 77.3906 12.4297 77.4219 12.2891C77.4375 12.2109 77.4609 12.1484 77.4922 12.1016C77.5234 12.0391 77.5391 11.9688 77.5391 11.8906C77.5703 11.7656 77.5859 11.625 77.5859 11.4688C77.5859 11.2969 77.5859 11.1719 77.5859 11.0938Z" fill="#E0580C"/>
</svg>
