<svg width="24" height="25" viewBox="0 0 24 25" fill="none" xmlns="http://www.w3.org/2000/svg">
<g clip-path="url(#clip0_1029_15243)">
<path d="M22.2283 0.5H1.77167C1.30179 0.5 0.851161 0.686657 0.518909 1.01891C0.186657 1.35116 0 1.80179 0 2.27167V22.7283C0 23.1982 0.186657 23.6488 0.518909 23.9811C0.851161 24.3133 1.30179 24.5 1.77167 24.5H22.2283C22.6982 24.5 23.1488 24.3133 23.4811 23.9811C23.8133 23.6488 24 23.1982 24 22.7283V2.27167C24 1.80179 23.8133 1.35116 23.4811 1.01891C23.1488 0.686657 22.6982 0.5 22.2283 0.5ZM7.15333 20.945H3.545V9.48333H7.15333V20.945ZM5.34667 7.895C4.93736 7.8927 4.53792 7.7692 4.19873 7.54009C3.85955 7.31098 3.59584 6.98653 3.44088 6.60769C3.28591 6.22885 3.24665 5.81259 3.32803 5.41145C3.40941 5.01032 3.6078 4.64228 3.89816 4.35378C4.18851 4.06529 4.55782 3.86927 4.95947 3.79046C5.36112 3.71165 5.77711 3.75359 6.15495 3.91099C6.53279 4.06838 6.85554 4.33417 7.08247 4.67481C7.30939 5.01546 7.43032 5.41569 7.43 5.825C7.43386 6.09903 7.38251 6.37104 7.27901 6.6248C7.17551 6.87857 7.02198 7.1089 6.82757 7.30207C6.63316 7.49523 6.40185 7.64728 6.14742 7.74915C5.893 7.85102 5.62067 7.90062 5.34667 7.895ZM20.4533 20.955H16.8467V14.6933C16.8467 12.8467 16.0617 12.2767 15.0483 12.2767C13.9783 12.2767 12.9283 13.0833 12.9283 14.74V20.955H9.32V9.49167H12.79V11.08H12.8367C13.185 10.375 14.405 9.17 16.2667 9.17C18.28 9.17 20.455 10.365 20.455 13.865L20.4533 20.955Z" fill="#0A66C2"/>
</g>
<defs>
<clipPath id="clip0_1029_15243">
<rect width="24" height="24" fill="white" transform="translate(0 0.5)"/>
</clipPath>
</defs>
</svg>
