<svg width="40" height="40" viewBox="0 0 40 40" fill="none" xmlns="http://www.w3.org/2000/svg">
<path fill-rule="evenodd" clip-rule="evenodd" d="M8.33203 16.6667V26.6667C8.33203 30.3486 11.3168 33.3333 14.9987 33.3333H24.9987C28.6806 33.3333 31.6654 30.3486 31.6654 26.6667V16.6667C31.6654 12.9848 28.6806 10 24.9987 10H14.9987C11.3168 10 8.33203 12.9848 8.33203 16.6667Z" stroke="#E0580C" strokeWidth="1.5" stroke-linecap="round" stroke-linejoin="round"/>
<path d="M24.25 11.6667C24.25 12.0809 24.5858 12.4167 25 12.4167C25.4142 12.4167 25.75 12.0809 25.75 11.6667H24.25ZM25.75 6.66669C25.75 6.25247 25.4142 5.91669 25 5.91669C24.5858 5.91669 24.25 6.25247 24.25 6.66669H25.75ZM14.25 11.6667C14.25 12.0809 14.5858 12.4167 15 12.4167C15.4142 12.4167 15.75 12.0809 15.75 11.6667H14.25ZM15.75 6.66669C15.75 6.25247 15.4142 5.91669 15 5.91669C14.5858 5.91669 14.25 6.25247 14.25 6.66669H15.75ZM14.25 18.81C14.25 19.2242 14.5858 19.56 15 19.56C15.4142 19.56 15.75 19.2242 15.75 18.81H14.25ZM20 18.81L20.7487 18.8546C20.7496 18.8398 20.75 18.8249 20.75 18.81H20ZM18.9395 20.9457L19.4276 21.5152L19.4276 21.5152L18.9395 20.9457ZM16.6667 21.6667L16.5961 20.92C16.2109 20.9564 15.9167 21.2798 15.9167 21.6667C15.9167 22.0536 16.2109 22.377 16.5961 22.4134L16.6667 21.6667ZM18.9395 22.3877L19.4276 21.8182L18.9395 22.3877ZM20 24.5234H20.75C20.75 24.5085 20.7496 24.4936 20.7487 24.4788L20 24.5234ZM15.75 24.5234C15.75 24.1091 15.4142 23.7734 15 23.7734C14.5858 23.7734 14.25 24.1091 14.25 24.5234H15.75ZM22.8453 17.5255C22.5308 17.7951 22.4943 18.2686 22.7639 18.5831C23.0334 18.8976 23.5069 18.934 23.8214 18.6645L22.8453 17.5255ZM25 16.6667H25.75C25.75 16.3738 25.5795 16.1077 25.3134 15.9853C25.0473 15.8629 24.7343 15.9066 24.512 16.0972L25 16.6667ZM24.25 26.6667C24.25 27.0809 24.5858 27.4167 25 27.4167C25.4142 27.4167 25.75 27.0809 25.75 26.6667H24.25ZM25.75 11.6667V6.66669H24.25V11.6667H25.75ZM15.75 11.6667V6.66669H14.25V11.6667H15.75ZM15.75 18.81C15.75 18.3433 15.9423 18.0233 16.2357 17.7998C16.55 17.5603 17.0065 17.4175 17.5 17.4175C17.9935 17.4175 18.45 17.5603 18.7643 17.7998C19.0577 18.0233 19.25 18.3433 19.25 18.81H20.75C20.75 17.8484 20.3173 17.0972 19.6732 16.6065C19.05 16.1318 18.2565 15.9175 17.5 15.9175C16.7435 15.9175 15.95 16.1318 15.3268 16.6065C14.6827 17.0972 14.25 17.8484 14.25 18.81H15.75ZM19.2513 18.7654C19.2142 19.3886 18.9255 19.97 18.4515 20.3762L19.4276 21.5152C20.2105 20.8442 20.6874 19.8839 20.7487 18.8546L19.2513 18.7654ZM18.4515 20.3762C17.9775 20.7825 17.3587 20.9787 16.7372 20.92L16.5961 22.4134C17.6227 22.5104 18.6446 22.1862 19.4276 21.5152L18.4515 20.3762ZM16.7372 22.4134C17.3587 22.3546 17.9775 22.5509 18.4515 22.9571L19.4276 21.8182C18.6446 21.1472 17.6227 20.823 16.5961 20.92L16.7372 22.4134ZM18.4515 22.9571C18.9255 23.3634 19.2142 23.9448 19.2513 24.568L20.7487 24.4788C20.6874 23.4494 20.2105 22.4892 19.4276 21.8182L18.4515 22.9571ZM19.25 24.5234C19.25 24.9901 19.0577 25.3101 18.7643 25.5336C18.45 25.773 17.9935 25.9159 17.5 25.9159C17.0065 25.9159 16.55 25.773 16.2357 25.5336C15.9423 25.3101 15.75 24.9901 15.75 24.5234H14.25C14.25 25.485 14.6827 26.2362 15.3268 26.7268C15.95 27.2016 16.7435 27.4159 17.5 27.4159C18.2565 27.4159 19.05 27.2016 19.6732 26.7268C20.3173 26.2362 20.75 25.485 20.75 24.5234H19.25ZM23.8214 18.6645L25.488 17.2362L24.512 16.0972L22.8453 17.5255L23.8214 18.6645ZM24.25 16.6667V26.6667H25.75V16.6667H24.25Z" fill="#E0580C"/>
</svg>
