<svg width="40" height="41" viewBox="0 0 40 41" fill="none" xmlns="http://www.w3.org/2000/svg">
<g clip-path="url(#clip0_1280_19699)">
<path d="M40 20.5C40 9.4543 31.0457 0.5 20 0.5C8.9543 0.5 0 9.4543 0 20.5C0 30.4824 7.31367 38.7566 16.875 40.257V26.2813H11.7969V20.5H16.875V16.0938C16.875 11.0813 19.8609 8.3125 24.4293 8.3125C26.6168 8.3125 28.9062 8.70312 28.9062 8.70312V13.625H26.3844C23.9 13.625 23.125 15.1668 23.125 16.75V20.5H28.6719L27.7852 26.2813H23.125V40.257C32.6863 38.7566 40 30.4824 40 20.5Z" fill="#1877F2"/>
<path d="M27.7852 26.2812L28.6719 20.5H23.125V16.75C23.125 15.1684 23.9 13.625 26.3844 13.625H28.9063V8.70312C28.9063 8.70312 26.6176 8.3125 24.4293 8.3125C19.8609 8.3125 16.875 11.0813 16.875 16.0938V20.5H11.7969V26.2812H16.875V40.257C18.9457 40.581 21.0543 40.581 23.125 40.257V26.2812H27.7852Z" fill="white"/>
</g>
<defs>
<clipPath id="clip0_1280_19699">
<rect width="40" height="40" fill="white" transform="translate(0 0.5)"/>
</clipPath>
</defs>
</svg>
