<svg width="25" height="25" viewBox="0 0 25 25" fill="none" xmlns="http://www.w3.org/2000/svg">
<path d="M0.1875 12.5C0.1875 19.1274 5.56008 24.5 12.1875 24.5C18.8149 24.5 24.1875 19.1274 24.1875 12.5C24.1875 5.87258 18.8149 0.5 12.1875 0.5C5.56008 0.5 0.1875 5.87258 0.1875 12.5Z" fill="#1877F2"/>
<path d="M18.1875 12.5C18.1875 9.2 15.4875 6.5 12.1875 6.5C8.8875 6.5 6.1875 9.2 6.1875 12.5C6.1875 15.5 8.3625 17.975 11.2125 18.425V14.225H9.7125V12.5H11.2125V11.15C11.2125 9.65 12.1125 8.825 13.4625 8.825C14.1375 8.825 14.8125 8.975 14.8125 8.975V10.475H14.0625C13.3125 10.475 13.0875 10.925 13.0875 11.375V12.5H14.7375L14.4375 14.225H13.0125V18.5C16.0125 18.05 18.1875 15.5 18.1875 12.5Z" fill="white"/>
</svg>
