<svg width="25" height="25" viewBox="0 0 25 25" fill="none" xmlns="http://www.w3.org/2000/svg">
<path d="M0.1875 12.5C0.1875 19.1274 5.56008 24.5 12.1875 24.5C18.8149 24.5 24.1875 19.1274 24.1875 12.5C24.1875 5.87258 18.8149 0.5 12.1875 0.5C5.56008 0.5 0.1875 5.87258 0.1875 12.5Z" fill="#F00073"/>
<path d="M12.1879 7.3999C13.8379 7.3999 14.0629 7.3999 14.7379 7.3999C15.3379 7.3999 15.6379 7.5499 15.8629 7.6249C16.1629 7.7749 16.3879 7.8499 16.6129 8.0749C16.8379 8.2999 16.9879 8.5249 17.0629 8.8249C17.1379 9.0499 17.2129 9.3499 17.2879 9.9499C17.2879 10.6249 17.2879 10.7749 17.2879 12.4999C17.2879 14.2249 17.2879 14.3749 17.2879 15.0499C17.2879 15.6499 17.1379 15.9499 17.0629 16.1749C16.9129 16.4749 16.8379 16.6999 16.6129 16.9249C16.3879 17.1499 16.1629 17.2999 15.8629 17.3749C15.6379 17.4499 15.3379 17.5249 14.7379 17.5999C14.0629 17.5999 13.9129 17.5999 12.1879 17.5999C10.4629 17.5999 10.3129 17.5999 9.63789 17.5999C9.03789 17.5999 8.73789 17.4499 8.51289 17.3749C8.21289 17.2249 7.98789 17.1499 7.76289 16.9249C7.53789 16.6999 7.38789 16.4749 7.31289 16.1749C7.23789 15.9499 7.16289 15.6499 7.08789 15.0499C7.08789 14.3749 7.08789 14.2249 7.08789 12.4999C7.08789 10.7749 7.08789 10.6249 7.08789 9.9499C7.08789 9.3499 7.23789 9.0499 7.31289 8.8249C7.46289 8.5249 7.53789 8.2999 7.76289 8.0749C7.98789 7.8499 8.21289 7.6999 8.51289 7.6249C8.73789 7.5499 9.03789 7.4749 9.63789 7.3999C10.3129 7.3999 10.5379 7.3999 12.1879 7.3999ZM12.1879 6.2749C10.4629 6.2749 10.3129 6.2749 9.63789 6.2749C8.96289 6.2749 8.51289 6.4249 8.13789 6.5749C7.76289 6.7249 7.38789 6.9499 7.01289 7.3249C6.63789 7.6999 6.48789 7.9999 6.26289 8.4499C6.11289 8.8249 6.03789 9.2749 5.96289 9.9499C5.96289 10.6249 5.96289 10.8499 5.96289 12.4999C5.96289 14.2249 5.96289 14.3749 5.96289 15.0499C5.96289 15.7249 6.11289 16.1749 6.26289 16.5499C6.41289 16.9249 6.63789 17.2999 7.01289 17.6749C7.38789 18.0499 7.68789 18.1999 8.13789 18.4249C8.51289 18.5749 8.96289 18.6499 9.63789 18.7249C10.3129 18.7249 10.5379 18.7249 12.1879 18.7249C13.8379 18.7249 14.0629 18.7249 14.7379 18.7249C15.4129 18.7249 15.8629 18.5749 16.2379 18.4249C16.6129 18.2749 16.9879 18.0499 17.3629 17.6749C17.7379 17.2999 17.8879 16.9999 18.1129 16.5499C18.2629 16.1749 18.3379 15.7249 18.4129 15.0499C18.4129 14.3749 18.4129 14.1499 18.4129 12.4999C18.4129 10.8499 18.4129 10.6249 18.4129 9.9499C18.4129 9.2749 18.2629 8.8249 18.1129 8.4499C17.9629 8.0749 17.7379 7.6999 17.3629 7.3249C16.9879 6.9499 16.6879 6.7999 16.2379 6.5749C15.8629 6.4249 15.4129 6.3499 14.7379 6.2749C14.0629 6.2749 13.9129 6.2749 12.1879 6.2749Z" fill="white"/>
<path d="M12.1879 9.2749C10.3879 9.2749 8.96289 10.6999 8.96289 12.4999C8.96289 14.2999 10.3879 15.7249 12.1879 15.7249C13.9879 15.7249 15.4129 14.2999 15.4129 12.4999C15.4129 10.6999 13.9879 9.2749 12.1879 9.2749ZM12.1879 14.5999C11.0629 14.5999 10.0879 13.6999 10.0879 12.4999C10.0879 11.3749 10.9879 10.3999 12.1879 10.3999C13.3129 10.3999 14.2879 11.2999 14.2879 12.4999C14.2879 13.6249 13.3129 14.5999 12.1879 14.5999Z" fill="white"/>
<path d="M15.4879 9.9499C15.9021 9.9499 16.2379 9.61412 16.2379 9.1999C16.2379 8.78569 15.9021 8.4499 15.4879 8.4499C15.0737 8.4499 14.7379 8.78569 14.7379 9.1999C14.7379 9.61412 15.0737 9.9499 15.4879 9.9499Z" fill="white"/>
</svg>
