<svg width="16" height="9" viewBox="0 0 16 9" fill="none" xmlns="http://www.w3.org/2000/svg">
<path d="M0.794131 7.2949L4.31903 1.70306C4.45163 1.49253 4.62644 1.31177 4.83242 1.17221C5.0384 1.03265 5.27108 0.937306 5.51577 0.892202C5.76046 0.847099 6.01183 0.853214 6.25404 0.910163C6.49624 0.967111 6.72401 1.07366 6.92296 1.22307L9.72788 3.32601C9.8531 3.41976 10.0054 3.47018 10.1619 3.46964C10.3183 3.4691 10.4703 3.41762 10.5949 3.32301L14.3808 0.44909C14.8847 0.0651005 15.5447 0.671084 15.2087 1.20807L11.6808 6.79692C11.5482 7.00745 11.3734 7.1882 11.1674 7.32776C10.9615 7.46732 10.7288 7.56267 10.4841 7.60777C10.2394 7.65287 9.98802 7.64676 9.74582 7.58981C9.50362 7.53286 9.27585 7.42632 9.0769 7.2769L6.27198 5.17396C6.14676 5.08021 5.99441 5.02979 5.83799 5.03033C5.68156 5.03088 5.52957 5.08235 5.405 5.17696L1.61911 8.05088C1.11512 8.43487 0.45514 7.83189 0.794131 7.2949Z" fill="white"/>
</svg>
