<svg width="14" height="12" viewBox="0 0 14 12" fill="none" xmlns="http://www.w3.org/2000/svg">
<path fill-rule="evenodd" clip-rule="evenodd" d="M1.43104 5.12296C4.92928 3.59883 7.26199 2.59403 8.42917 2.10856C11.7617 0.722451 12.4542 0.481668 12.9055 0.473718C13.0048 0.471969 13.2267 0.496571 13.3705 0.613234C13.4919 0.711742 13.5253 0.844812 13.5413 0.938209C13.5573 1.03161 13.5772 1.24436 13.5614 1.41061C13.3808 3.30809 12.5994 7.91279 12.2018 10.038C12.0336 10.9373 11.7024 11.2388 11.3817 11.2683C10.6849 11.3324 10.1557 10.8077 9.48076 10.3653C8.4246 9.67299 7.82794 9.24201 6.80276 8.56643C5.61798 7.78568 6.38602 7.35657 7.06122 6.65528C7.23793 6.47175 10.3083 3.67899 10.3677 3.42564C10.3752 3.39396 10.3821 3.27585 10.3119 3.21348C10.2417 3.15112 10.1382 3.17244 10.0635 3.18941C9.95753 3.21345 8.2703 4.32864 5.00179 6.53498C4.52287 6.86384 4.08909 7.02407 3.70043 7.01567C3.27197 7.00642 2.44778 6.77341 1.83508 6.57425C1.08358 6.32997 0.486304 6.20081 0.538313 5.78594C0.565403 5.56985 0.862978 5.34886 1.43104 5.12296Z" fill="white"/>
</svg>
