<svg width="20" height="21" viewBox="0 0 20 21" fill="none" xmlns="http://www.w3.org/2000/svg">
<path d="M15.5585 16.0587L17.4085 15.1337V12.817M11.8501 8.65032L10.0001 9.57533L11.8501 8.65032ZM10.0001 9.57533L8.15013 8.65032L10.0001 9.57533ZM10.0001 9.57533V11.892V9.57533ZM17.4085 5.86699L15.5585 6.79199L17.4085 5.86699ZM17.4085 5.86699L15.5585 4.94199L17.4085 5.86699ZM17.4085 5.86699V8.18366V5.86699ZM11.8501 3.09199L10.0001 2.16699L8.15013 3.09199H11.8501ZM2.5918 5.86699L4.4418 4.94199L2.5918 5.86699ZM2.5918 5.86699L4.4418 6.79199L2.5918 5.86699ZM2.5918 5.86699V8.18366V5.86699ZM10.0001 18.8337L8.15013 17.9087L10.0001 18.8337ZM10.0001 18.8337L11.8501 17.9087L10.0001 18.8337ZM10.0001 18.8337V16.517V18.8337ZM4.4418 16.0587L2.5918 15.1337V12.817L4.4418 16.0587Z" stroke="#FEFEFE" stroke-width="1.5" stroke-linecap="round" stroke-linejoin="round"/>
</svg>
