<svg width="20" height="21" viewBox="0 0 20 21" fill="none" xmlns="http://www.w3.org/2000/svg">
<path d="M10.8334 18.8337H4.16675C2.50008 18.8337 1.66675 18.0003 1.66675 16.3337V9.66699C1.66675 8.00033 2.50008 7.16699 4.16675 7.16699H8.33341V16.3337C8.33341 18.0003 9.16675 18.8337 10.8334 18.8337Z" stroke="#FEFEFE" stroke-width="1.5" stroke-miterlimit="10" stroke-linecap="round" stroke-linejoin="round"/>
<path d="M8.42507 3.83301C8.3584 4.08301 8.33341 4.35801 8.33341 4.66634V7.16634H4.16675V5.49967C4.16675 4.58301 4.91675 3.83301 5.83341 3.83301H8.42507Z" stroke="#FEFEFE" stroke-width="1.5" stroke-miterlimit="10" stroke-linecap="round" stroke-linejoin="round"/>
<path d="M11.6667 7.16699V11.3337" stroke="#FEFEFE" stroke-width="1.5" stroke-miterlimit="10" stroke-linecap="round" stroke-linejoin="round"/>
<path d="M15 7.16699V11.3337" stroke="#FEFEFE" stroke-width="1.5" stroke-miterlimit="10" stroke-linecap="round" stroke-linejoin="round"/>
<path d="M14.1667 14.667H12.5001C12.0417 14.667 11.6667 15.042 11.6667 15.5003V18.8337H15.0001V15.5003C15.0001 15.042 14.6251 14.667 14.1667 14.667Z" stroke="#FEFEFE" stroke-width="1.5" stroke-miterlimit="10" stroke-linecap="round" stroke-linejoin="round"/>
<path d="M5 11.333V14.6663" stroke="#FEFEFE" stroke-width="1.5" stroke-miterlimit="10" stroke-linecap="round" stroke-linejoin="round"/>
<path d="M8.33325 16.3337V4.66699C8.33325 3.00033 9.16659 2.16699 10.8333 2.16699H15.8333C17.4999 2.16699 18.3333 3.00033 18.3333 4.66699V16.3337C18.3333 18.0003 17.4999 18.8337 15.8333 18.8337H10.8333C9.16659 18.8337 8.33325 18.0003 8.33325 16.3337Z" stroke="#FEFEFE" stroke-width="1.5" stroke-miterlimit="10" stroke-linecap="round" stroke-linejoin="round"/>
</svg>
