<svg width="24" height="9" viewBox="0 0 24 9" fill="none" xmlns="http://www.w3.org/2000/svg">
<rect x="0.046875" y="0.546875" width="23.9062" height="7.6875" stroke="#EBEBEB" stroke-width="0.09375"/>
<path d="M12.4122 2.9775C12.3985 4.05712 13.3744 4.65956 14.1095 5.01778C14.8647 5.38528 15.1184 5.62097 15.1154 5.94966C15.1098 6.45262 14.513 6.67463 13.9545 6.68325C12.9802 6.69834 12.4136 6.42019 11.9633 6.20981L11.6122 7.85222C12.0641 8.06044 12.9008 8.24203 13.7685 8.25C15.8052 8.25 17.1377 7.24463 17.1449 5.68584C17.1529 3.70753 14.4085 3.59803 14.4273 2.71378C14.4338 2.44566 14.6896 2.15953 15.2502 2.08678C15.5277 2.05003 16.2937 2.02191 17.1623 2.42184L17.5031 0.832782C17.0361 0.662719 16.4358 0.499875 15.6884 0.499875C13.7714 0.499875 12.4231 1.51894 12.4122 2.9775ZM20.7786 0.63675C20.4067 0.63675 20.0933 0.853687 19.9534 1.18659L17.044 8.13328H19.0793L19.4842 7.014H21.9713L22.2062 8.13328H24L22.4347 0.63675H20.7786ZM21.0633 2.66184L21.6506 5.47688H20.0421L21.0633 2.66184ZM9.94462 0.636844L8.34037 8.13319H10.2798L11.8833 0.636656H9.94462M7.07559 0.636656L5.05697 5.73919L4.24041 1.40072C4.14459 0.916407 3.76622 0.63675 3.34603 0.63675H0.0462187L0 0.854437C0.677437 1.00144 1.44712 1.23853 1.91344 1.49222C2.19881 1.64719 2.28019 1.78266 2.37394 2.15091L3.92053 8.13328H5.97L9.11213 0.63675L7.07559 0.636656Z" fill="url(#paint0_linear_1075_15053)"/>
<defs>
<linearGradient id="paint0_linear_1075_15053" x1="1103.38" y1="23.7968" x2="1125.81" y2="-772.152" gradientUnits="userSpaceOnUse">
<stop stop-color="#222357"/>
<stop offset="1" stop-color="#254AA5"/>
</linearGradient>
</defs>
</svg>
