<svg width="36" height="37" viewBox="0 0 36 37" fill="none" xmlns="http://www.w3.org/2000/svg">
<path d="M36 18.5C36 20.408 35.856 22.316 35.532 24.152C34.56 30.236 29.736 35.06 23.652 36.032C21.816 36.356 19.908 36.5 18 36.5C16.092 36.5 14.184 36.356 12.348 36.032C6.264 35.06 1.44 30.236 0.468 24.152C0.144 22.316 0 20.408 0 18.5C0 16.592 0.144 14.684 0.468 12.848C1.44 6.764 6.264 1.94 12.348 0.968C14.184 0.644 16.092 0.5 18 0.5C19.908 0.5 21.816 0.644 23.652 0.968C29.736 1.94 34.56 6.764 35.532 12.848C35.856 14.684 36 16.592 36 18.5Z" fill="url(#paint0_linear_1098_15831)"/>
<path d="M28.6916 29.7324H10.5476C9.35962 29.7324 8.20762 29.0844 7.66762 28.0404C7.01962 26.8164 7.27162 25.3404 8.24362 24.3684L20.8796 11.7324H11.8076C9.32362 11.7324 7.30762 9.71642 7.30762 7.23242H24.0116C25.1996 7.23242 26.3516 7.88042 26.8916 8.92442C27.5396 10.1484 27.2876 11.6244 26.3156 12.5964L13.7156 25.2684H24.1916C26.6756 25.2684 28.6916 27.2484 28.6916 29.7324Z" fill="white"/>
<defs>
<linearGradient id="paint0_linear_1098_15831" x1="851.976" y1="3442.53" x2="2748.02" y2="158.468" gradientUnits="userSpaceOnUse">
<stop stopColor="#0845BF"/>
<stop offset="0.1911" stopColor="#0950DE"/>
<stop offset="0.3823" stopColor="#0B59F6"/>
<stop offset="0.5" stopColor="#0B5CFF"/>
<stop offset="0.6732" stopColor="#0E5EFE"/>
<stop offset="0.7774" stopColor="#1665FC"/>
<stop offset="0.8633" stopColor="#246FF9"/>
<stop offset="0.9388" stopColor="#387FF4"/>
<stop offset="1" stopColor="#4F90EE"/>
</linearGradient>
</defs>
</svg>
