<svg width="25" height="20" viewBox="0 0 25 20" fill="none" xmlns="http://www.w3.org/2000/svg">
<rect x="0.0477387" y="0.547739" width="24.3467" height="18.9045" stroke="#EBEBEB" strokeWidth="0.0954774"/>
<path d="M4.44322 19.4052V18.1477C4.44322 17.6655 4.14972 17.3512 3.64665 17.3512C3.39517 17.3512 3.12267 17.4351 2.93401 17.7076C2.78736 17.477 2.57779 17.3512 2.26338 17.3512C2.05371 17.3512 1.84423 17.4141 1.67648 17.6446V17.3932H1.23633V19.4052H1.67648V18.2944C1.67648 17.9381 1.86514 17.7704 2.15864 17.7704C2.45195 17.7704 2.59879 17.959 2.59879 18.2944V19.4052H3.03894V18.2944C3.03894 17.9381 3.24842 17.7704 3.52091 17.7704C3.81441 17.7704 3.96106 17.959 3.96106 18.2944V19.4052H4.44322ZM10.9616 17.3932H10.249V16.7853H9.80886V17.3932H9.41063V17.7913H9.80877V18.7136C9.80877 19.1748 9.99743 19.4472 10.5005 19.4472C10.6892 19.4472 10.8986 19.3843 11.0455 19.3005L10.9196 18.9232C10.7939 19.007 10.6472 19.028 10.5424 19.028C10.3328 19.028 10.249 18.9023 10.249 18.6926V17.7913H10.9616V17.3932ZM14.6924 17.3511C14.4409 17.3511 14.2733 17.477 14.1685 17.6446V17.3932H13.7283V19.4052H14.1685V18.2735C14.1685 17.9381 14.3151 17.7495 14.5876 17.7495C14.6714 17.7495 14.7763 17.7705 14.8601 17.7914L14.9858 17.3722C14.902 17.3512 14.7763 17.3512 14.6924 17.3512V17.3511ZM9.0543 17.5608C8.84463 17.4141 8.55123 17.3512 8.23683 17.3512C7.73385 17.3512 7.39853 17.6027 7.39853 18.001C7.39853 18.3364 7.65002 18.5249 8.09017 18.5879L8.29974 18.6089C8.53032 18.6507 8.65607 18.7136 8.65607 18.8184C8.65607 18.9651 8.48841 19.0699 8.19491 19.0699C7.90151 19.0699 7.67093 18.9651 7.52418 18.8604L7.31461 19.1957C7.54519 19.3633 7.85959 19.4472 8.17391 19.4472C8.76081 19.4472 9.09622 19.1748 9.09622 18.7974C9.09622 18.4411 8.82372 18.2524 8.40448 18.1896L8.19491 18.1686C8.00625 18.1476 7.85959 18.1058 7.85959 17.9801C7.85959 17.8333 8.00625 17.7495 8.23683 17.7495C8.48841 17.7495 8.7399 17.8542 8.86564 17.9171L9.0543 17.5608ZM20.7498 17.3512C20.4982 17.3512 20.3306 17.477 20.2257 17.6446V17.3932H19.7856V19.4052H20.2257V18.2735C20.2257 17.9381 20.3725 17.7495 20.6449 17.7495C20.7288 17.7495 20.8336 17.7705 20.9175 17.7914L21.0432 17.3722C20.9594 17.3512 20.8336 17.3512 20.7498 17.3512ZM15.1326 18.3992C15.1326 19.007 15.5517 19.4472 16.2015 19.4472C16.495 19.4472 16.7045 19.3843 16.9141 19.2167L16.7045 18.8604C16.5369 18.9861 16.3692 19.0489 16.1805 19.0489C15.8242 19.0489 15.5727 18.7974 15.5727 18.3992C15.5727 18.022 15.8242 17.7704 16.1805 17.7495C16.3692 17.7495 16.5369 17.8123 16.7045 17.9381L16.9141 17.5818C16.7045 17.4141 16.495 17.3512 16.2015 17.3512C15.5517 17.3512 15.1326 17.7914 15.1326 18.3992ZM19.1988 18.3992V17.3932H18.7586V17.6446C18.6119 17.4561 18.4023 17.3512 18.1298 17.3512C17.5639 17.3512 17.1238 17.7914 17.1238 18.3992C17.1238 19.007 17.5639 19.4472 18.1298 19.4472C18.4232 19.4472 18.6329 19.3424 18.7586 19.1538V19.4052H19.1988V18.3992ZM17.5848 18.3992C17.5848 18.0429 17.8154 17.7495 18.1926 17.7495C18.549 17.7495 18.8005 18.022 18.8005 18.3992C18.8005 18.7555 18.549 19.0489 18.1926 19.0489C17.8154 19.0279 17.5848 18.7555 17.5848 18.3992ZM12.324 17.3512C11.7371 17.3512 11.3179 17.7704 11.3179 18.3992C11.3179 19.028 11.737 19.4472 12.3449 19.4472C12.6383 19.4472 12.9318 19.3633 13.1624 19.1748L12.9527 18.8604C12.7851 18.9861 12.5755 19.0699 12.3659 19.0699C12.0934 19.0699 11.821 18.9442 11.758 18.5878H13.2462V18.4202C13.2672 17.7704 12.89 17.3512 12.324 17.3512ZM12.324 17.7285C12.5964 17.7285 12.7852 17.8962 12.827 18.2106H11.779C11.821 17.9381 12.0096 17.7285 12.324 17.7285ZM23.244 18.3992V16.5967H22.8038V17.6446C22.6571 17.4561 22.4475 17.3512 22.175 17.3512C21.6091 17.3512 21.169 17.7914 21.169 18.3992C21.169 19.007 21.6091 19.4472 22.175 19.4472C22.4685 19.4472 22.6781 19.3424 22.8038 19.1538V19.4052H23.244V18.3992ZM21.6301 18.3992C21.6301 18.0429 21.8606 17.7495 22.2379 17.7495C22.5942 17.7495 22.8457 18.022 22.8457 18.3992C22.8457 18.7555 22.5942 19.0489 22.2379 19.0489C21.8606 19.0279 21.6301 18.7555 21.6301 18.3992ZM6.91637 18.3992V17.3932H6.47622V17.6446C6.32947 17.4561 6.1199 17.3512 5.84741 17.3512C5.28151 17.3512 4.84136 17.7914 4.84136 18.3992C4.84136 19.007 5.28151 19.4472 5.84741 19.4472C6.14091 19.4472 6.35048 19.3424 6.47622 19.1538V19.4052H6.91637V18.3992ZM5.28151 18.3992C5.28151 18.0429 5.51209 17.7495 5.88932 17.7495C6.24565 17.7495 6.49723 18.022 6.49723 18.3992C6.49723 18.7555 6.24565 19.0489 5.88932 19.0489C5.51209 19.0279 5.28151 18.7555 5.28151 18.3992Z" fill="black"/>
<path d="M8.9082 2.11426H15.5105V13.9774H8.9082V2.11426Z" fill="#FF5F00"/>
<path d="M9.32709 8.04548C9.32709 5.63516 10.4589 3.49723 12.1985 2.11385C10.92 1.10781 9.30618 0.5 7.54558 0.5C3.37446 0.5 0 3.87446 0 8.04548C0 12.2164 3.37446 15.591 7.54548 15.591C9.30609 15.591 10.9199 14.9832 12.1985 13.977C10.4589 12.6146 9.32709 10.4558 9.32709 8.04548Z" fill="#EB001B"/>
<path d="M24.4182 8.04548C24.4182 12.2164 21.0437 15.591 16.8727 15.591C15.1121 15.591 13.4983 14.9832 12.2197 13.977C13.9803 12.5937 15.0912 10.4558 15.0912 8.04548C15.0912 5.63516 13.9593 3.49723 12.2197 2.11385C13.4982 1.10781 15.1121 0.5 16.8727 0.5C21.0437 0.5 24.4182 3.89546 24.4182 8.04548Z" fill="#F79E1B"/>
</svg>
