<svg xmlns="http://www.w3.org/2000/svg" width="22" height="26" viewBox="0 0 22 26" fill="none">
  <path d="M1 9V22.3333C1 23.0406 1.26339 23.7189 1.73223 24.219C2.20107 24.719 2.83696 25 3.5 25H18.5C19.163 25 19.7989 24.719 20.2678 24.219C20.7366 23.7189 21 23.0406 21 22.3333V9M1 9V6.33333C1 5.62609 1.26339 4.94781 1.73223 4.44772C2.20107 3.94762 2.83696 3.66667 3.5 3.66667H6M1 9H21M21 9V6.33333C21 5.62609 20.7366 4.94781 20.2678 4.44772C19.7989 3.94762 19.163 3.66667 18.5 3.66667H16M6 3.66667H16M6 3.66667V1M16 3.66667V1" stroke="#3C3C3C" stroke-width="1.5" stroke-linecap="round" stroke-linejoin="round"/>
</svg>