<svg width="24" height="24" viewBox="0 0 24 24" fill="none" xmlns="http://www.w3.org/2000/svg">
<path d="M21 5.98C17.67 5.65 14.32 5.48 10.98 5.48C9 5.48 7.02 5.58 5.04 5.78L3 5.98" stroke="#292D32" stroke-width="1.5" stroke-linecap="round" stroke-linejoin="round"/>
<path d="M8.5 4.97L8.72 3.66C8.88 2.71 9 2 10.69 2H13.31C15 2 15.13 2.75 15.28 3.67L15.5 4.97" stroke="#292D32" stroke-width="1.5" stroke-linecap="round" stroke-linejoin="round"/>
<path d="M18.8484 9.14L18.1984 19.21C18.0884 20.78 17.9984 22 15.2084 22H8.78844C5.99844 22 5.90844 20.78 5.79844 19.21L5.14844 9.14" stroke="#292D32" stroke-width="1.5" stroke-linecap="round" stroke-linejoin="round"/>
<path d="M10.3281 16.5H13.6581" stroke="#292D32" stroke-width="1.5" stroke-linecap="round" stroke-linejoin="round"/>
<path d="M9.5 12.5H14.5" stroke="#292D32" stroke-width="1.5" stroke-linecap="round" stroke-linejoin="round"/>
</svg>
