<svg width="600" height="450" viewBox="0 0 600 450" fill="none" xmlns="http://www.w3.org/2000/svg">
<path opacity="0.3" d="M143.775 182.595C102.285 189.96 72.9601 226.095 77.7751 265.74C80.3401 286.74 90.7351 305.385 117.48 310.74C188.43 325.005 456.255 378.705 508.875 285.66C549.9 213.15 525.45 162.945 487.35 131.52C449.25 100.095 370.35 106.62 305.055 128.13C256.5 144.165 220.395 168.975 143.775 182.595Z" fill="#FCEEE7"/>
<path opacity="0.45" d="M308.399 385.38C441.792 385.38 549.929 377.388 549.929 367.53C549.929 357.672 441.792 349.68 308.399 349.68C175.006 349.68 66.8691 357.672 66.8691 367.53C66.8691 377.388 175.006 385.38 308.399 385.38Z" fill="#FCEEE7"/>
<path d="M172.98 119.7C188.836 119.7 201.69 106.846 201.69 90.99C201.69 75.1339 188.836 62.28 172.98 62.28C157.123 62.28 144.27 75.1339 144.27 90.99C144.27 106.846 157.123 119.7 172.98 119.7Z" fill="#ED9E72"/>
<path opacity="0.15" d="M172.979 145.725C203.208 145.725 227.714 121.219 227.714 90.99C227.714 60.7607 203.208 36.255 172.979 36.255C142.75 36.255 118.244 60.7607 118.244 90.99C118.244 121.219 142.75 145.725 172.979 145.725Z" fill="#F2BB9B"/>
<path d="M293.534 366.705C335.925 366.705 370.289 332.34 370.289 289.95C370.289 247.559 335.925 213.195 293.534 213.195C251.144 213.195 216.779 247.559 216.779 289.95C216.779 332.34 251.144 366.705 293.534 366.705Z" fill="#F2BB9B"/>
<path d="M200.865 308.265C205.95 308.265 207.78 310.095 207.78 315.165V323.91C207.78 328.995 206.28 330.825 200.865 330.825H186.84V357.45C186.84 362.52 185.01 364.35 179.925 364.35H169.965C164.895 364.35 163.065 362.52 163.065 357.45V330.825H96.0002C90.9302 330.825 89.1002 328.995 89.1002 323.91V316.59C88.9638 313.627 89.8073 310.701 91.5002 308.265L159 224.52C160.131 223.002 161.602 221.77 163.295 220.923C164.989 220.076 166.857 219.639 168.75 219.645H180C185.085 219.645 186.915 221.07 186.915 226.56V308.265H200.865ZM163.065 253.785L118.95 308.265H163.065V253.785Z" fill="#E57435"/>
<path d="M491.132 308.265C496.217 308.265 498.047 310.095 498.047 315.165V323.91C498.047 328.995 496.622 330.825 491.132 330.825H477.107V357.45C477.107 362.52 475.277 364.35 470.192 364.35H460.232C455.162 364.35 453.332 362.52 453.332 357.45V330.825H386.252C381.182 330.825 379.352 328.995 379.352 323.91V316.59C379.225 313.624 380.079 310.698 381.782 308.265L449.282 224.52C450.413 223.002 451.884 221.77 453.578 220.923C455.271 220.077 457.139 219.639 459.032 219.645H470.207C475.292 219.645 477.122 221.07 477.122 226.56V308.265H491.132ZM453.332 253.785L409.217 308.265H453.332V253.785Z" fill="#E57435"/>
<path opacity="0.08" d="M258.404 261.975C258.404 261.975 268.394 263.07 282.269 286.305C296.144 309.54 323.384 301.02 338.744 283.83L310.244 321.54L278.324 318.975L260.969 272.775L258.404 261.975Z" fill="black"/>
<path d="M515.236 134.4C515.236 131.711 514.168 129.132 512.266 127.23C510.364 125.329 507.785 124.26 505.096 124.26C504.548 124.26 504.001 124.305 503.461 124.395C502.297 122.224 500.566 120.408 498.454 119.141C496.341 117.873 493.925 117.201 491.461 117.195H490.966C491.561 114.803 491.603 112.307 491.09 109.897C490.576 107.486 489.521 105.224 488.003 103.282C486.485 101.34 484.544 99.7692 482.329 98.689C480.113 97.6088 477.681 97.0474 475.216 97.0474C472.751 97.0474 470.319 97.6088 468.103 98.689C465.887 99.7692 463.947 101.34 462.429 103.282C460.911 105.224 459.855 107.486 459.342 109.897C458.828 112.307 458.871 114.803 459.466 117.195H458.971C457.137 117.135 455.31 117.443 453.598 118.103C451.886 118.763 450.325 119.76 449.006 121.036C447.688 122.311 446.639 123.839 445.923 125.528C445.207 127.217 444.838 129.033 444.838 130.868C444.838 132.702 445.207 134.518 445.923 136.207C446.639 137.896 447.688 139.424 449.006 140.7C450.325 141.975 451.886 142.973 453.598 143.633C455.31 144.292 457.137 144.601 458.971 144.54H506.416V144.45C508.854 144.127 511.091 142.93 512.713 141.082C514.335 139.234 515.232 136.859 515.236 134.4Z" fill="#FCEEE7"/>
<path d="M131.37 230.4C131.37 229.031 131.101 227.676 130.577 226.412C130.054 225.148 129.286 223.999 128.318 223.031C127.351 222.063 126.202 221.296 124.937 220.772C123.673 220.248 122.318 219.979 120.95 219.979C120.39 219.99 119.832 220.038 119.279 220.123C118.076 217.887 116.29 216.02 114.11 214.719C111.93 213.419 109.438 212.734 106.899 212.738H106.396C107.014 210.279 107.064 207.711 106.54 205.23C106.016 202.749 104.934 200.42 103.375 198.421C101.816 196.421 99.8208 194.804 97.5423 193.691C95.2639 192.578 92.7616 192 90.226 192C87.6903 192 85.1881 192.578 82.9096 193.691C80.6311 194.804 78.6364 196.421 77.0773 198.421C75.5181 200.42 74.4355 202.749 73.9119 205.23C73.3883 207.711 73.4375 210.279 74.0556 212.738H73.5526C71.6664 212.671 69.7859 212.984 68.0235 213.659C66.261 214.334 64.6527 215.358 63.2944 216.668C61.9362 217.979 60.8559 219.55 60.1181 221.287C59.3803 223.024 59 224.892 59 226.779C59 228.667 59.3803 230.535 60.1181 232.272C60.8559 234.009 61.9362 235.58 63.2944 236.891C64.6527 238.201 66.261 239.224 68.0235 239.9C69.7859 240.575 71.6664 240.888 73.5526 240.821H122.297V240.731C124.804 240.4 127.106 239.17 128.775 237.27C130.444 235.37 131.366 232.929 131.37 230.4Z" fill="#FCEEE7"/>
<path d="M256 319V271H332V319C332 323.4 328.4 327 324 327H264C259.6 327 256 323.4 256 319Z" fill="#FCEEE7"/>
<path d="M332 263V275H256V263C256 258.6 259.6 255 264 255H324C328.4 255 332 258.6 332 263Z" fill="#E57435"/>
<path d="M312 269C315.314 269 318 266.314 318 263C318 259.687 315.314 257 312 257C308.686 257 306 259.687 306 263C306 266.314 308.686 269 312 269Z" fill="#E0580C"/>
<path d="M276 269C279.314 269 282 266.314 282 263C282 259.686 279.314 257 276 257C272.686 257 270 259.686 270 263C270 266.314 272.686 269 276 269Z" fill="#E0580C"/>
<path d="M312 249C309.8 249 308 250.8 308 253V263C308 265.2 309.8 267 312 267C314.2 267 316 265.2 316 263V253C316 250.8 314.2 249 312 249ZM276 249C273.8 249 272 250.8 272 253V263C272 265.2 273.8 267 276 267C278.2 267 280 265.2 280 263V253C280 250.8 278.2 249 276 249Z" fill="#ED9E72"/>
<path d="M272 283H280V291H272V283ZM284 283H292V291H284V283ZM296 283H304V291H296V283ZM308 283H316V291H308V283ZM272 295H280V303H272V295ZM284 295H292V303H284V295ZM296 295H304V303H296V295ZM308 295H316V303H308V295ZM272 307H280V315H272V307ZM284 307H292V315H284V307ZM296 307H304V315H296V307ZM308 307H316V315H308V307Z" fill="#F2BB9B"/>
<path d="M90.5869 209.121C93.4459 209.121 96.1879 210.256 98.2096 212.278C100.231 214.3 101.367 217.042 101.367 219.901C101.367 224.364 97.9653 229.04 91.3055 234.035C91.0982 234.19 90.846 234.275 90.5869 234.275C90.3277 234.275 90.0755 234.19 89.8682 234.035C83.2084 229.04 79.8066 224.364 79.8066 219.901C79.8066 217.042 80.9424 214.3 82.9641 212.278C84.9858 210.256 87.7278 209.121 90.5869 209.121ZM90.5869 216.307C89.6338 216.307 88.7198 216.686 88.0459 217.36C87.372 218.034 86.9935 218.948 86.9935 219.901C86.9935 220.854 87.372 221.768 88.0459 222.442C88.7198 223.116 89.6338 223.494 90.5869 223.494C91.5399 223.494 92.4539 223.116 93.1278 222.442C93.8017 221.768 94.1803 220.854 94.1803 219.901C94.1803 218.948 93.8017 218.034 93.1278 217.36C92.4539 216.686 91.5399 216.307 90.5869 216.307Z" fill="#E57435"/>
<path fill-rule="evenodd" clip-rule="evenodd" d="M458.817 220H469.186C476.468 220 480.111 220 482.726 218.285C483.855 217.545 484.827 216.591 485.587 215.476C487.335 212.909 487.335 209.332 487.335 202.183C487.335 195.031 487.335 191.456 485.587 188.89C484.827 187.775 483.855 186.82 482.726 186.08C481.046 184.977 478.942 184.582 475.719 184.442C474.182 184.442 472.859 183.299 472.558 181.817C472.328 180.732 471.73 179.76 470.866 179.064C470.001 178.368 468.923 177.993 467.814 178H460.189C457.883 178 455.898 179.598 455.445 181.817C455.144 183.299 453.821 184.442 452.283 184.442C449.063 184.582 446.959 184.979 445.276 186.08C444.148 186.82 443.177 187.775 442.418 188.89C440.668 191.456 440.668 195.031 440.668 202.183C440.668 209.332 440.668 212.907 442.416 215.476C443.172 216.586 444.142 217.541 445.276 218.285C447.892 220 451.534 220 458.817 220ZM464.001 192.637C458.632 192.637 454.278 196.909 454.278 202.18C454.278 207.454 458.632 211.726 464.001 211.726C469.37 211.726 473.724 207.454 473.724 202.183C473.724 196.909 469.37 192.637 464.001 192.637ZM464.001 196.454C460.781 196.454 458.168 199.019 458.168 202.183C458.168 205.344 460.781 207.909 464.001 207.909C467.221 207.909 469.835 205.344 469.835 202.183C469.835 199.019 467.221 196.454 464.001 196.454ZM475.019 194.546C475.019 193.491 475.89 192.637 476.965 192.637H479.555C480.629 192.637 481.501 193.491 481.501 194.546C481.496 195.057 481.289 195.544 480.924 195.902C480.56 196.26 480.068 196.459 479.558 196.454H476.965C476.712 196.457 476.461 196.409 476.226 196.315C475.992 196.22 475.778 196.08 475.597 195.903C475.416 195.726 475.272 195.515 475.173 195.282C475.074 195.049 475.022 194.799 475.019 194.546Z" fill="#ED9E72"/>
<path d="M491.891 119.265H485.344C485.024 119.265 484.755 119.488 484.665 119.803C484.422 120.655 483.64 121.285 482.73 121.285C481.821 121.285 481.039 120.669 480.796 119.803C480.757 119.651 480.67 119.516 480.547 119.419C480.424 119.322 480.273 119.268 480.117 119.265H461.628C460.078 119.265 458.822 120.55 458.822 122.137V135.611C458.822 137.198 460.078 138.484 461.628 138.484H480.117C480.437 138.484 480.706 138.261 480.796 137.945C481.039 137.093 481.821 136.463 482.73 136.463C483.64 136.463 484.422 137.079 484.665 137.945C484.755 138.261 485.024 138.484 485.344 138.484H491.891C493.442 138.484 494.697 137.198 494.697 135.611V122.137C494.697 120.55 493.442 119.265 491.891 119.265ZM482.73 134.181C481.616 134.181 480.604 133.229 480.604 132.088C480.604 130.947 481.616 130.035 482.73 130.035C483.845 130.035 484.775 130.946 484.775 132.088C484.775 133.228 483.845 134.181 482.73 134.181ZM482.73 127.726C481.616 127.726 480.619 126.795 480.619 125.653C480.619 124.513 481.616 123.581 482.73 123.581C483.845 123.581 484.807 124.513 484.807 125.653C484.807 126.795 483.845 127.726 482.73 127.726Z" fill="#ED9E72"/>
<path d="M469.221 125.671H463.799C463.172 125.671 462.666 125.119 462.666 124.435C462.666 123.751 463.172 123.199 463.799 123.199H469.221C469.847 123.199 470.354 123.751 470.354 124.435C470.354 125.133 469.847 125.671 469.221 125.671ZM463.414 132.078H476.024C476.425 132.078 476.773 131.792 476.76 131.437C476.76 131.082 476.427 130.796 476.012 130.796H463.414C463 130.796 462.666 131.082 462.666 131.437C462.666 131.792 462.999 132.078 463.414 132.078ZM463.414 134.64H476.024C476.425 134.64 476.773 134.343 476.76 134C476.76 133.645 476.427 133.359 476.012 133.359H463.414C463 133.359 462.666 133.645 462.666 134C462.666 134.354 462.999 134.64 463.414 134.64ZM487.957 129.515H491.188C491.713 129.515 492.135 129.938 492.135 130.462V133.693C492.135 134.219 491.712 134.64 491.188 134.64H487.958C487.833 134.641 487.71 134.616 487.595 134.569C487.48 134.521 487.376 134.452 487.288 134.364C487.2 134.276 487.13 134.171 487.082 134.056C487.035 133.941 487.011 133.818 487.011 133.693V130.463C487.011 129.938 487.434 129.516 487.958 129.516L487.957 129.515Z" fill="#E57435"/>
<path d="M88.3444 200.177C84.4241 200.702 80.7475 202.378 77.7795 204.993C74.8115 207.607 72.6855 211.043 71.6702 214.866C70.6548 218.689 70.7958 222.727 72.0753 226.47C73.3548 230.212 75.7153 233.492 78.8584 235.893C82.0015 238.294 85.786 239.709 89.7334 239.96C93.6808 240.21 97.6138 239.285 101.035 237.3C104.457 235.315 107.213 232.361 108.955 228.81C110.697 225.259 111.348 221.271 110.824 217.351C110.476 214.747 109.618 212.237 108.3 209.965C106.982 207.692 105.229 205.702 103.142 204.107C101.054 202.512 98.6729 201.345 96.134 200.67C93.595 199.996 90.9481 199.828 88.3444 200.177ZM92.8733 233.995C90.1021 234.37 87.2821 233.914 84.7702 232.685C82.2582 231.456 80.1673 229.51 78.762 227.092C77.3567 224.675 76.7003 221.894 76.8757 219.104C77.0512 216.313 78.0507 213.637 79.7478 211.414C81.4448 209.191 83.7631 207.522 86.4091 206.618C89.0552 205.713 91.9102 205.614 94.6126 206.333C97.315 207.052 99.7435 208.556 101.591 210.656C103.438 212.755 104.62 215.356 104.989 218.127C105.479 221.827 104.488 225.57 102.231 228.542C99.974 231.514 96.6345 233.474 92.9394 233.995H92.8733Z" fill="#ED9E72"/>
<path d="M91 236C99.8366 236 107 228.837 107 220C107 211.163 99.8366 204 91 204C82.1634 204 75 211.163 75 220C75 228.837 82.1634 236 91 236Z" fill="#FCEEE7"/>
<path d="M91 210C93.3869 210 95.6761 210.948 97.364 212.636C99.0518 214.324 100 216.613 100 219C100 222.726 97.16 226.63 91.6 230.8C91.4269 230.93 91.2164 231 91 231C90.7836 231 90.5731 230.93 90.4 230.8C84.84 226.63 82 222.726 82 219C82 216.613 82.9482 214.324 84.636 212.636C86.3239 210.948 88.6131 210 91 210ZM91 216C90.2044 216 89.4413 216.316 88.8787 216.879C88.3161 217.441 88 218.204 88 219C88 219.796 88.3161 220.559 88.8787 221.121C89.4413 221.684 90.2044 222 91 222C91.7956 222 92.5587 221.684 93.1213 221.121C93.6839 220.559 94 219.796 94 219C94 218.204 93.6839 217.441 93.1213 216.879C92.5587 216.316 91.7956 216 91 216Z" fill="#E57435"/>
</svg>
