<svg width="32" height="32" viewBox="0 0 32 32" fill="none" xmlns="http://www.w3.org/2000/svg">
<path d="M19.9774 5.97089L19.1118 6.47162C19.2906 6.78061 19.6205 6.97089 19.9774 6.97089V5.97089ZM2.38595 16.3162C2.5606 16.8401 3.12692 17.1233 3.65086 16.9487C4.17481 16.774 4.45797 16.2077 4.28332 15.6838L2.38595 16.3162ZM27.1069 15.5528C26.8599 16.0467 27.0601 16.6474 27.5541 16.8944C28.0481 17.1414 28.6487 16.9412 28.8957 16.4472L27.1069 15.5528ZM20.0861 20.2794C20.4846 20.6618 21.1176 20.6487 21.5 20.2502C21.8824 19.8517 21.8694 19.2187 21.4709 18.8363L20.0861 20.2794ZM15.334 14.3335L16.0264 13.6119C15.6395 13.2406 15.0286 13.2406 14.6417 13.6119L15.334 14.3335ZM9.19722 18.8363C8.79872 19.2187 8.78567 19.8517 9.16806 20.2502C9.55044 20.6487 10.1835 20.6618 10.582 20.2794L9.19722 18.8363ZM14.334 30.3742C14.334 30.9265 14.7817 31.3742 15.334 31.3742C15.8863 31.3742 16.334 30.9265 16.334 30.3742L14.334 30.3742ZM11.9431 2.33331C15.0048 2.33331 17.6795 3.99556 19.1118 6.47162L20.843 5.47016C19.0679 2.40152 15.7476 0.333313 11.9431 0.333313V2.33331ZM3.66797 10.6085C3.66797 6.48944 7.40602 2.33331 11.9431 2.33331V0.333313C6.23517 0.333313 1.66797 5.45234 1.66797 10.6085H3.66797ZM4.28332 15.6838C3.67429 13.8567 3.66797 12.0091 3.66797 10.6085H1.66797C1.66797 11.9908 1.66164 14.1433 2.38595 16.3162L4.28332 15.6838ZM27.668 12C27.668 13.3585 27.6534 14.4598 27.1069 15.5528L28.8957 16.4472C29.6826 14.8735 29.668 13.3081 29.668 12H27.668ZM21.2183 6.97089C22.9145 6.97089 24.5587 7.56914 25.7644 8.52048C26.9712 9.47273 27.668 10.7137 27.668 12H29.668C29.668 9.95297 28.5608 8.17935 27.0033 6.95039C25.4446 5.72052 23.3639 4.97089 21.2183 4.97089V6.97089ZM19.9774 6.97089H21.2183V4.97089H19.9774V6.97089ZM21.4709 18.8363L16.0264 13.6119L14.6417 15.055L20.0861 20.2794L21.4709 18.8363ZM14.6417 13.6119L9.19722 18.8363L10.582 20.2794L16.0264 15.055L14.6417 13.6119ZM14.334 14.3334L14.334 30.3742L16.334 30.3742L16.334 14.3335L14.334 14.3334Z" fill="#A4A4A4"/>
</svg>
