<svg width="332" height="76" viewBox="0 0 332 76" fill="none" xmlns="http://www.w3.org/2000/svg">
<path opacity="0.3" d="M331.127 33.7298C331.601 28.4639 328.046 22.4579 322.422 21.5964C315.17 20.4907 307.899 19.5179 300.612 18.6784C300.897 17.5985 301.012 16.4822 300.909 15.3599C300.321 8.74118 295.425 4.77358 289.025 4.47025C221.757 1.29131 154.417 -0.128282 87.0775 0.247851C68.1131 0.350985 49.1547 0.605785 30.1903 0.987985C24.2268 1.10932 18.7668 6.83624 19.3007 12.8726C19.4766 14.8746 20.1075 16.7188 21.0782 18.3022C19.6647 20.2254 18.8821 22.5914 19.1126 25.1818C19.3371 27.7238 20.1925 29.8532 21.5211 31.5458C18.2633 32.0129 15.0055 32.4922 11.7537 32.9957C5.88119 33.8996 0.281656 38.2798 0.864056 44.8803C1.36759 50.589 6.42112 56.6072 12.7487 55.77L13.2825 55.6972C13.3796 56.1097 13.5009 56.5222 13.6405 56.9226C13.4342 57.8751 13.3614 58.8822 13.4524 59.9439C13.9074 65.0581 17.8265 70.1055 23.062 70.8032C25.1914 73.9457 28.7161 76.0387 32.8354 75.7839C101.437 71.5494 170.215 70.1237 238.932 71.5615C258.661 71.9741 278.548 73.7334 298.034 69.8082C301.37 69.1348 303.918 66.3078 305.144 63.0136C309.409 63.3412 313.674 63.6809 317.932 64.0449C323.55 64.5302 328.234 58.688 328.682 53.683C329.004 50.1219 327.324 45.76 324.302 43.3454C328.039 41.6953 330.769 37.5943 331.115 33.7237L331.127 33.7298Z" fill="#E57435"/>
</svg>
