<svg width="24" height="25" viewBox="0 0 24 25" fill="none" xmlns="http://www.w3.org/2000/svg">
<path d="M12.02 3.41C8.71003 3.41 6.02003 6.1 6.02003 9.41V12.3C6.02003 12.91 5.76003 13.84 5.45003 14.36L4.30003 16.27C3.59003 17.45 4.08003 18.76 5.38003 19.2C9.69003 20.64 14.34 20.64 18.65 19.2C19.86 18.8 20.39 17.37 19.73 16.27L18.58 14.36C18.28 13.84 18.02 12.91 18.02 12.3V9.41C18.02 6.11 15.32 3.41 12.02 3.41Z" stroke="#292D32" stroke-width="1.5" stroke-miterlimit="10" stroke-linecap="round"/>
<path d="M13.87 3.7C13.56 3.61 13.24 3.54 12.91 3.5C11.95 3.38 11.03 3.45 10.17 3.7C10.46 2.96 11.18 2.44 12.02 2.44C12.86 2.44 13.58 2.96 13.87 3.7Z" stroke="#292D32" stroke-width="1.5" stroke-miterlimit="10" stroke-linecap="round" stroke-linejoin="round"/>
<path d="M15.02 19.56C15.02 21.21 13.67 22.56 12.02 22.56C11.2 22.56 10.44 22.22 9.90002 21.68C9.36002 21.14 9.02002 20.38 9.02002 19.56" stroke="#292D32" stroke-width="1.5" stroke-miterlimit="10"/>
</svg>
