<svg width="49" height="49" viewBox="0 0 49 49" fill="none" xmlns="http://www.w3.org/2000/svg">
<path fill-rule="evenodd" clip-rule="evenodd" d="M19.1389 21.4445C25.0606 21.4445 29.8611 16.644 29.8611 10.7222C29.8611 4.80051 25.0606 0 19.1389 0C13.2172 0 8.41667 4.80051 8.41667 10.7222C8.41667 16.644 13.2172 21.4445 19.1389 21.4445ZM19.1389 48.2499C29.5019 48.2499 37.9028 43.4494 37.9028 37.5276C37.9028 31.6059 29.5019 26.8054 19.1389 26.8054C8.77588 26.8054 0.375 31.6059 0.375 37.5276C0.375 43.4494 8.77588 48.2499 19.1389 48.2499ZM29.7577 20.9496C32.3115 18.2987 33.8819 14.6939 33.8819 10.7223C33.8819 8.83356 33.5268 7.02781 32.8796 5.36814C37.1641 5.54535 40.5832 9.07481 40.5832 13.4028C40.5832 17.8441 36.9828 21.4445 32.5415 21.4445C31.5629 21.4445 30.6251 21.2697 29.7577 20.9496ZM41.9234 37.5278C41.9234 38.9721 41.6024 40.3679 41.0041 41.6869C45.5783 40.269 48.6247 37.736 48.6247 34.8472C48.6247 30.8098 42.674 27.4672 34.9186 26.8928C39.236 29.5756 41.9234 33.3486 41.9234 37.5278Z" fill="#DEDEDE"/>
</svg>
