<svg width="36" height="37" viewBox="0 0 36 37" fill="none" xmlns="http://www.w3.org/2000/svg">
<path d="M27.4736 9.02637H8.52637V27.9736H27.4736V9.02637Z" fill="white"/>
<path d="M27.4734 36.4998L35.9998 27.9734L31.7366 27.2461L27.4734 27.9734L26.6953 31.8729L27.4734 36.4998Z" fill="#EA4335"/>
<path d="M0 27.9734V33.6576C0 35.228 1.27181 36.4998 2.84203 36.4998H8.52637L9.40177 32.2366L8.52637 27.9734L3.88111 27.2461L0 27.9734Z" fill="#188038"/>
<path d="M35.9998 9.02637V3.34203C35.9998 1.77181 34.728 0.5 33.1577 0.5H27.4734C26.9548 2.61444 26.6953 4.17045 26.6953 5.16819C26.6953 6.16578 26.9548 7.45194 27.4734 9.02637C29.3592 9.56637 30.7802 9.83637 31.7366 9.83637C32.693 9.83637 34.114 9.56637 35.9998 9.02637Z" fill="#1967D2"/>
<path d="M36 9.02637H27.4736V27.9736H36V9.02637Z" fill="#FBBC04"/>
<path d="M27.4736 27.9736H8.52637V36.5H27.4736V27.9736Z" fill="#34A853"/>
<path d="M27.4736 0.5H2.84217C1.27181 0.5 0 1.77181 0 3.34203V27.9736H8.52637V9.02637H27.4736V0.5Z" fill="#4285F4"/>
<path d="M12.4134 23.7244C11.7052 23.246 11.2149 22.5473 10.9473 21.6234L12.591 20.9462C12.7401 21.5146 13.0007 21.9552 13.3726 22.2678C13.742 22.5804 14.192 22.7344 14.7178 22.7344C15.2555 22.7344 15.7173 22.571 16.1033 22.244C16.4894 21.9172 16.6836 21.5004 16.6836 20.996C16.6836 20.4796 16.4799 20.058 16.0726 19.7312C15.6652 19.4044 15.1536 19.241 14.5426 19.241H13.5928V17.6139H14.4455C14.9713 17.6139 15.4141 17.4718 15.7741 17.1874C16.1341 16.9033 16.3141 16.5148 16.3141 16.0198C16.3141 15.5794 16.1531 15.2288 15.831 14.966C15.509 14.703 15.1015 14.5704 14.6065 14.5704C14.1233 14.5704 13.7397 14.6983 13.4555 14.9564C13.1714 15.2152 12.9579 15.5421 12.8349 15.9062L11.2078 15.2288C11.4233 14.6178 11.8189 14.0778 12.3991 13.6112C12.9794 13.1446 13.7207 12.9102 14.6207 12.9102C15.2863 12.9102 15.8855 13.0381 16.416 13.2962C16.9465 13.5544 17.3633 13.912 17.6641 14.3668C17.965 14.8238 18.1141 15.3354 18.1141 15.9038C18.1141 16.484 17.9744 16.9744 17.695 17.377C17.4155 17.7796 17.072 18.0874 16.6647 18.303V18.4C17.1907 18.6169 17.6476 18.9731 17.9863 19.4304C18.3297 19.8922 18.5026 20.444 18.5026 21.0883C18.5026 21.7324 18.3391 22.308 18.0123 22.8124C17.6855 23.317 17.2332 23.7148 16.6599 24.0038C16.0844 24.2928 15.4378 24.4397 14.7202 24.4397C13.8889 24.442 13.1216 24.2028 12.4134 23.7244ZM22.5099 15.5674L20.7052 16.8724L19.8028 15.5036L23.0405 13.1682H24.2815V24.1838H22.5099V15.5674Z" fill="#4285F4"/>
</svg>
