<svg width="36" height="43" viewBox="0 0 36 43" fill="none" xmlns="http://www.w3.org/2000/svg">
<path d="M30.5392 3.30616C28.5798 1.07275 25.0377 0.115234 20.5063 0.115234H7.35508C6.90674 0.115251 6.47312 0.275201 6.13217 0.566327C5.79121 0.857453 5.5653 1.26066 5.49503 1.70345L0.019093 36.4332C-0.0897508 37.118 0.440546 37.7382 1.13467 37.7382H9.2538L11.2929 24.8048L11.2296 25.2098C11.3748 24.2956 12.1567 23.6213 13.0826 23.6213H16.9408C24.5202 23.6213 30.455 20.5427 32.1886 11.6371C32.2401 11.3737 32.2847 11.1173 32.3232 10.8669C32.1044 10.751 32.1044 10.751 32.3232 10.8669C32.8394 7.57525 32.3197 5.33467 30.5392 3.30616Z" fill="#27346A"/>
<path d="M14.3995 9.68111C14.6215 9.57542 14.8643 9.52065 15.1101 9.5208H25.4205C26.6414 9.5208 27.7802 9.60025 28.8208 9.76773C29.112 9.81416 29.4017 9.8696 29.6894 9.93395C30.0973 10.024 30.5004 10.1341 30.8974 10.264C31.409 10.4349 31.8854 10.6338 32.3233 10.8669C32.8394 7.57398 32.3197 5.33467 30.5392 3.30616C28.5786 1.07275 25.0377 0.115234 20.5063 0.115234H7.35395C6.42794 0.115234 5.64016 0.789391 5.49503 1.70345L0.0190937 36.4319C-0.08975 37.1179 0.440547 37.7372 1.13355 37.7372H9.2538L13.4842 10.9102C13.5258 10.6465 13.6309 10.3969 13.7903 10.1828C13.9497 9.96865 14.1588 9.7965 14.3995 9.68111Z" fill="#27346A"/>
<path d="M32.1886 11.6364C30.455 20.5408 24.5203 23.6206 16.9408 23.6206H13.0815C12.1556 23.6206 11.3736 24.2949 11.2297 25.2091L8.693 41.2903C8.59822 41.8896 9.06172 42.4327 9.66809 42.4327H16.5123C16.9044 42.4326 17.2835 42.2926 17.5816 42.038C17.8797 41.7833 18.0771 41.4306 18.1384 41.0434L18.205 40.6946L19.495 32.5192L19.5781 32.0674C19.6393 31.6802 19.8367 31.3275 20.1348 31.0728C20.4328 30.8182 20.8119 30.6782 21.204 30.678H22.2283C28.8583 30.678 34.0498 27.9845 35.5669 20.1944C36.2001 16.939 35.8724 14.221 34.1973 12.3118C33.6892 11.7336 33.0583 11.256 32.3232 10.8662C32.2834 11.1179 32.2402 11.373 32.1886 11.6364Z" fill="#2790C3"/>
<path d="M30.5086 10.1433C30.2383 10.0644 29.9654 9.99452 29.6905 9.93381C29.4025 9.87051 29.1129 9.81545 28.8218 9.76872C27.7801 9.60011 26.6421 9.52051 25.4201 9.52051H15.111C14.865 9.51995 14.622 9.5752 14.4004 9.68209C14.1594 9.79713 13.9501 9.96918 13.7906 10.1833C13.6311 10.3975 13.5262 10.6473 13.485 10.9112L11.2938 24.8046L11.2305 25.2096C11.3746 24.2954 12.1565 23.6211 13.0825 23.6211H16.9418C24.5212 23.6211 30.4559 20.5426 32.1895 11.6369C32.2411 11.3735 32.2844 11.1183 32.3242 10.8667C31.8852 10.635 31.41 10.4347 30.8983 10.265C30.7692 10.2222 30.6393 10.1816 30.5087 10.1433" fill="#1F264F"/>
</svg>
