<svg width="36" height="31" viewBox="0 0 36 31" fill="none" xmlns="http://www.w3.org/2000/svg">
<path d="M20.3652 15.475L23.8748 19.4866L28.5945 22.5023L29.4154 15.5003L28.5945 8.65625L23.7844 11.3055L20.3652 15.475Z" fill="#00832D"/>
<path d="M0 21.8508V27.8175C0 29.1799 1.10588 30.286 2.46853 30.286H8.43525L9.67078 25.7777L8.43525 21.8508L4.34166 20.6152L0.000140625 21.8508H0Z" fill="#0066DA"/>
<path d="M8.43525 0.664062L0 9.09931L4.34194 10.3319L8.43525 9.09931L9.64828 5.2258L8.43525 0.664062Z" fill="#E94235"/>
<path d="M0 21.8537H8.43511V9.09961H0V21.8537Z" fill="#2684FC"/>
<path d="M33.9833 4.23522L28.5947 8.6559V22.5018L34.0056 26.9397C34.8156 27.5742 36.0005 26.9959 36.0005 25.9663V5.18894C36.0005 4.14789 34.7873 3.57245 33.9832 4.23536" fill="#00AC47"/>
<path d="M20.3659 15.4746V21.8503H8.43555V30.2855H26.1267C27.4894 30.2855 28.5951 29.1794 28.5951 27.817V22.5019L20.3659 15.4746Z" fill="#00AC47"/>
<path d="M26.1267 0.664062H8.43555V9.09931H20.3659V15.475L28.5953 8.65606V3.13273C28.5953 1.77008 27.4894 0.664203 26.1267 0.664203" fill="#FFBA00"/>
</svg>
