<svg width="138" height="41" viewBox="0 0 138 41" fill="none" xmlns="http://www.w3.org/2000/svg">
<rect x="1.00625" y="0.50625" width="135.675" height="39.4875" rx="4.55625" fill="black"/>
<rect x="1.00625" y="0.50625" width="135.675" height="39.4875" rx="4.55625" stroke="#A6A6A6" strokeWidth="1.0125"/>
<path d="M69.4874 22.0226C67.106 22.0226 65.165 23.8339 65.165 26.3287C65.165 28.8083 67.106 30.6349 69.4874 30.6349C71.8698 30.6349 73.8107 28.8083 73.8107 26.3287C73.8097 23.8339 71.8688 22.0226 69.4874 22.0226ZM69.4874 28.94C68.1823 28.94 67.0574 27.8637 67.0574 26.3297C67.0574 24.7796 68.1833 23.7195 69.4874 23.7195C70.7925 23.7195 71.9174 24.7796 71.9174 26.3297C71.9174 27.8627 70.7925 28.94 69.4874 28.94ZM60.0569 22.0226C57.6755 22.0226 55.7346 23.8339 55.7346 26.3287C55.7346 28.8083 57.6755 30.6349 60.0569 30.6349C62.4394 30.6349 64.3803 28.8083 64.3803 26.3287C64.3803 23.8339 62.4394 22.0226 60.0569 22.0226ZM60.0569 28.94C58.7518 28.94 57.6269 27.8637 57.6269 26.3297C57.6269 24.7796 58.7528 23.7195 60.0569 23.7195C61.362 23.7195 62.4869 24.7796 62.4869 26.3297C62.488 27.8627 61.362 28.94 60.0569 28.94ZM48.8405 23.3449V25.1714H53.2124C53.0818 26.1991 52.7396 26.9494 52.2171 27.4708C51.5813 28.1067 50.586 28.8083 48.8405 28.8083C46.1492 28.8083 44.0453 26.6386 44.0453 23.9473C44.0453 21.2561 46.1492 19.0863 48.8405 19.0863C50.2924 19.0863 51.3525 19.6574 52.1351 20.3914L53.4241 19.1025C52.3306 18.0586 50.8796 17.2598 48.8405 17.2598C45.1539 17.2598 42.0547 20.2608 42.0547 23.9473C42.0547 27.6338 45.1539 30.6349 48.8405 30.6349C50.83 30.6349 52.3316 29.9818 53.5051 28.7587C54.712 27.5518 55.0876 25.8549 55.0876 24.485C55.0876 24.0617 55.0552 23.6699 54.9894 23.3439H48.8405V23.3449ZM94.7148 24.7634C94.3564 23.8015 93.2629 22.0226 91.0283 22.0226C88.8099 22.0226 86.9662 23.7681 86.9662 26.3287C86.9662 28.7425 88.7937 30.6349 91.2399 30.6349C93.2133 30.6349 94.3554 29.428 94.8292 28.7263L93.3611 27.7472C92.8721 28.4651 92.2028 28.9379 91.2399 28.9379C90.278 28.9379 89.5926 28.4975 89.1521 27.6328L94.9102 25.2514L94.7148 24.7634ZM88.8423 26.1991C88.7937 24.5346 90.1312 23.6871 91.0941 23.6871C91.8444 23.6871 92.4802 24.0628 92.6929 24.6004L88.8423 26.1991ZM84.1615 30.3747H86.0529V17.7174H84.1615V30.3747ZM81.0613 22.9855H80.9964C80.5722 22.4792 79.7561 22.0226 78.7295 22.0226C76.5759 22.0226 74.6025 23.9149 74.6025 26.3459C74.6025 28.7597 76.5759 30.6359 78.7295 30.6359C79.7572 30.6359 80.5722 30.1793 80.9964 29.6578H81.0613V30.2775C81.0613 31.9248 80.1804 32.8057 78.7619 32.8057C77.6036 32.8057 76.8857 31.9744 76.5921 31.2728L74.9447 31.9582C75.4176 33.0993 76.6731 34.5026 78.7619 34.5026C80.9803 34.5026 82.8564 33.1975 82.8564 30.0163V22.2848H81.0623V22.9855H81.0613ZM78.8925 28.94C77.5874 28.94 76.4949 27.8465 76.4949 26.3459C76.4949 24.8282 77.5874 23.7195 78.8925 23.7195C80.1804 23.7195 81.1919 24.8282 81.1919 26.3459C81.1919 27.8465 80.1804 28.94 78.8925 28.94ZM103.578 17.7174H99.0514V30.3747H100.94V25.5795H103.577C105.671 25.5795 107.73 24.0638 107.73 21.649C107.73 19.2341 105.672 17.7174 103.578 17.7174ZM103.627 23.8177H100.94V19.4792H103.627C105.039 19.4792 105.841 20.6486 105.841 21.649C105.841 22.6291 105.039 23.8177 103.627 23.8177ZM115.303 22.0003C113.935 22.0003 112.519 22.6027 111.932 23.9382L113.609 24.6379C113.967 23.9382 114.636 23.7094 115.335 23.7094C116.312 23.7094 117.306 24.2956 117.322 25.3375V25.4681C116.98 25.2727 116.247 24.9801 115.352 24.9801C113.544 24.9801 111.704 25.9733 111.704 27.8293C111.704 29.5232 113.186 30.6136 114.846 30.6136C116.116 30.6136 116.817 30.0436 117.256 29.3753H117.321V30.3524H119.145V25.4995C119.146 23.2538 117.468 22.0003 115.303 22.0003ZM115.074 28.9369C114.457 28.9369 113.593 28.6271 113.593 27.8617C113.593 26.8846 114.668 26.51 115.597 26.51C116.426 26.51 116.818 26.6892 117.322 26.9332C117.175 28.1067 116.166 28.9369 115.074 28.9369ZM125.789 22.2767L123.624 27.7645H123.559L121.311 22.2767H119.276L122.647 29.9464L120.725 34.2131H122.695L127.89 22.2767H125.789ZM108.773 30.3747H110.662V17.7174H108.773V30.3747Z" fill="white"/>
<path d="M48.511 10.3704C48.511 11.2188 48.2599 11.8942 47.7567 12.3984C47.1856 12.9978 46.4404 13.2975 45.5251 13.2975C44.6483 13.2975 43.9021 12.9938 43.2895 12.3863C42.6759 11.7777 42.3691 11.0244 42.3691 10.1253C42.3691 9.22523 42.6759 8.47194 43.2895 7.86444C43.9021 7.25592 44.6483 6.95217 45.5251 6.95217C45.9605 6.95217 46.3766 7.03722 46.7715 7.20631C47.1674 7.37641 47.4843 7.6022 47.7212 7.88469L47.1876 8.41929C46.7857 7.93835 46.2318 7.69839 45.5241 7.69839C44.8842 7.69839 44.3314 7.92316 43.8646 8.37271C43.3978 8.82226 43.165 9.40647 43.165 10.1243C43.165 10.8422 43.3978 11.4264 43.8646 11.876C44.3314 12.3255 44.8842 12.5503 45.5241 12.5503C46.2025 12.5503 46.7685 12.3245 47.221 11.8719C47.5147 11.5773 47.6848 11.1672 47.7303 10.6417H45.5241V9.91171H48.4674C48.4978 10.0707 48.511 10.2236 48.511 10.3704Z" fill="white"/>
<path d="M53.1787 7.8331H50.4125V9.75888H52.9073V10.4889H50.4125V12.4147H53.1787V13.1619H49.6319V7.08689H53.1787V7.8331Z" fill="white"/>
<path d="M56.4702 13.1619H55.6896V7.8331H53.9926V7.08689H58.1672V7.8331H56.4702V13.1619Z" fill="white"/>
<path d="M61.1874 13.1619V7.08689H61.968V13.1619H61.1874Z" fill="white"/>
<path d="M65.4299 13.1619H64.6493V7.8331H62.9524V7.08689H67.1269V7.8331H65.4299V13.1619Z" fill="white"/>
<path d="M75.0292 12.3772C74.4319 12.9908 73.6897 13.2976 72.8017 13.2976C71.9138 13.2976 71.1716 12.9908 70.5752 12.3772C69.9779 11.7636 69.6802 11.0123 69.6802 10.1244C69.6802 9.23642 69.9779 8.48515 70.5752 7.87157C71.1716 7.258 71.9138 6.9502 72.8017 6.9502C73.6846 6.9502 74.4258 7.25901 75.0252 7.87562C75.6246 8.49223 75.9243 9.24148 75.9243 10.1244C75.9243 11.0123 75.6256 11.7636 75.0292 12.3772ZM71.1514 11.8679C71.6009 12.3235 72.1507 12.5503 72.8017 12.5503C73.4528 12.5503 74.0036 12.3225 74.4521 11.8679C74.9017 11.4123 75.1274 10.8311 75.1274 10.1244C75.1274 9.41766 74.9017 8.83648 74.4521 8.38086C74.0036 7.92523 73.4528 7.69843 72.8017 7.69843C72.1507 7.69843 71.6009 7.92625 71.1514 8.38086C70.7028 8.83648 70.477 9.41766 70.477 10.1244C70.477 10.8311 70.7028 11.4123 71.1514 11.8679Z" fill="white"/>
<path d="M77.0198 13.1619V7.08689H77.9696L80.922 11.8122H80.9554L80.922 10.6418V7.08689H81.7026V13.1619H80.8876L77.7984 8.20672H77.765L77.7984 9.37717V13.1619H77.0198Z" fill="white"/>
<path d="M48.511 10.3704C48.511 11.2188 48.2599 11.8942 47.7567 12.3984C47.1856 12.9978 46.4404 13.2975 45.5251 13.2975C44.6483 13.2975 43.9021 12.9938 43.2895 12.3863C42.6759 11.7777 42.3691 11.0244 42.3691 10.1253C42.3691 9.22523 42.6759 8.47194 43.2895 7.86444C43.9021 7.25592 44.6483 6.95217 45.5251 6.95217C45.9605 6.95217 46.3766 7.03722 46.7715 7.20631C47.1674 7.37641 47.4843 7.6022 47.7212 7.88469L47.1876 8.41929C46.7857 7.93835 46.2318 7.69839 45.5241 7.69839C44.8842 7.69839 44.3314 7.92316 43.8646 8.37271C43.3978 8.82226 43.165 9.40647 43.165 10.1243C43.165 10.8422 43.3978 11.4264 43.8646 11.876C44.3314 12.3255 44.8842 12.5503 45.5241 12.5503C46.2025 12.5503 46.7685 12.3245 47.221 11.8719C47.5147 11.5773 47.6848 11.1672 47.7303 10.6417H45.5241V9.91171H48.4674C48.4978 10.0707 48.511 10.2236 48.511 10.3704Z" stroke="white" strokeWidth="0.2025" strokeMiterlimit="10"/>
<path d="M53.1787 7.8331H50.4125V9.75888H52.9073V10.4889H50.4125V12.4147H53.1787V13.1619H49.6319V7.08689H53.1787V7.8331Z" stroke="white" strokeWidth="0.2025" strokeMiterlimit="10"/>
<path d="M56.4702 13.1619H55.6896V7.8331H53.9926V7.08689H58.1672V7.8331H56.4702V13.1619Z" stroke="white" strokeWidth="0.2025" strokeMiterlimit="10"/>
<path d="M61.1874 13.1619V7.08689H61.968V13.1619H61.1874Z" stroke="white" strokeWidth="0.2025" strokeMiterlimit="10"/>
<path d="M65.4299 13.1619H64.6493V7.8331H62.9524V7.08689H67.1269V7.8331H65.4299V13.1619Z" stroke="white" strokeWidth="0.2025" strokeMiterlimit="10"/>
<path d="M75.0292 12.3772C74.4319 12.9908 73.6897 13.2976 72.8017 13.2976C71.9138 13.2976 71.1716 12.9908 70.5752 12.3772C69.9779 11.7636 69.6802 11.0123 69.6802 10.1244C69.6802 9.23642 69.9779 8.48515 70.5752 7.87157C71.1716 7.258 71.9138 6.9502 72.8017 6.9502C73.6846 6.9502 74.4258 7.25901 75.0252 7.87562C75.6246 8.49223 75.9243 9.24148 75.9243 10.1244C75.9243 11.0123 75.6256 11.7636 75.0292 12.3772ZM71.1514 11.8679C71.6009 12.3235 72.1507 12.5503 72.8017 12.5503C73.4528 12.5503 74.0036 12.3225 74.4521 11.8679C74.9017 11.4123 75.1274 10.8311 75.1274 10.1244C75.1274 9.41766 74.9017 8.83648 74.4521 8.38086C74.0036 7.92523 73.4528 7.69843 72.8017 7.69843C72.1507 7.69843 71.6009 7.92625 71.1514 8.38086C70.7028 8.83648 70.477 9.41766 70.477 10.1244C70.477 10.8311 70.7028 11.4123 71.1514 11.8679Z" stroke="white" strokeWidth="0.2025" strokeMiterlimit="10"/>
<path d="M77.0198 13.1619V7.08689H77.9696L80.922 11.8122H80.9554L80.922 10.6418V7.08689H81.7026V13.1619H80.8876L77.7984 8.20672H77.765L77.7984 9.37717V13.1619H77.0198Z" stroke="white" strokeWidth="0.2025" strokeMiterlimit="10"/>
<g filter="url(#filter0_ii_246_7869)">
<path d="M11.0664 7.63348C10.7718 7.94533 10.5977 8.42931 10.5977 9.05605V31.4485C10.5977 32.0762 10.7718 32.5592 11.0664 32.8711L11.1414 32.944L23.6852 20.4001V20.2523V20.1044L11.1414 7.55957L11.0664 7.63348Z" fill="url(#paint0_linear_246_7869)"/>
<path d="M27.8662 24.5842L23.6855 20.4016V20.2538V20.1059L27.8672 15.9243L27.9613 15.978L32.9155 18.7927C34.33 19.5967 34.33 20.9119 32.9155 21.7168L27.9613 24.5316L27.8662 24.5842Z" fill="url(#paint1_linear_246_7869)"/>
<g filter="url(#filter1_i_246_7869)">
<path d="M27.961 24.5297L23.6842 20.2529L11.0664 32.8717C11.5322 33.3658 12.3027 33.4266 13.1704 32.9345L27.961 24.5297Z" fill="url(#paint2_linear_246_7869)"/>
</g>
<path d="M27.961 15.976L13.1704 7.57221C12.3027 7.07912 11.5322 7.14089 11.0664 7.63498L23.6852 20.2538L27.961 15.976Z" fill="url(#paint3_linear_246_7869)"/>
</g>
<defs>
<filter id="filter0_ii_246_7869" x="10.5977" y="7.23193" width="23.3789" height="26.0425" filterUnits="userSpaceOnUse" colorInterpolationFilters="sRGB">
<feFlood floodOpacity="0" result="BackgroundImageFix"/>
<feBlend mode="normal" in="SourceGraphic" in2="BackgroundImageFix" result="shape"/>
<feColorMatrix in="SourceAlpha" type="matrix" values="0 0 0 0 0 0 0 0 0 0 0 0 0 0 0 0 0 0 127 0" result="hardAlpha"/>
<feOffset dy="-0.151875"/>
<feComposite in2="hardAlpha" operator="arithmetic" k2="-1" k3="1"/>
<feColorMatrix type="matrix" values="0 0 0 0 0 0 0 0 0 0 0 0 0 0 0 0 0 0 0.12 0"/>
<feBlend mode="normal" in2="shape" result="effect1_innerShadow_246_7869"/>
<feColorMatrix in="SourceAlpha" type="matrix" values="0 0 0 0 0 0 0 0 0 0 0 0 0 0 0 0 0 0 127 0" result="hardAlpha"/>
<feOffset dy="0.151875"/>
<feComposite in2="hardAlpha" operator="arithmetic" k2="-1" k3="1"/>
<feColorMatrix type="matrix" values="0 0 0 0 1 0 0 0 0 1 0 0 0 0 1 0 0 0 0.25 0"/>
<feBlend mode="normal" in2="effect1_innerShadow_246_7869" result="effect2_innerShadow_246_7869"/>
</filter>
<filter id="filter1_i_246_7869" x="11.0664" y="20.2529" width="16.8945" height="13.0215" filterUnits="userSpaceOnUse" colorInterpolationFilters="sRGB">
<feFlood floodOpacity="0" result="BackgroundImageFix"/>
<feBlend mode="normal" in="SourceGraphic" in2="BackgroundImageFix" result="shape"/>
<feColorMatrix in="SourceAlpha" type="matrix" values="0 0 0 0 0 0 0 0 0 0 0 0 0 0 0 0 0 0 127 0" result="hardAlpha"/>
<feOffset dy="-0.151875"/>
<feComposite in2="hardAlpha" operator="arithmetic" k2="-1" k3="1"/>
<feColorMatrix type="matrix" values="0 0 0 0 0 0 0 0 0 0 0 0 0 0 0 0 0 0 0.08 0"/>
<feBlend mode="normal" in2="shape" result="effect1_innerShadow_246_7869"/>
</filter>
<linearGradient id="paint0_linear_246_7869" x1="22.5733" y1="8.81912" x2="5.58153" y2="25.8109" gradientUnits="userSpaceOnUse">
<stop stopColor="#00A0FF"/>
<stop offset="0.0066" stopColor="#00A1FF"/>
<stop offset="0.2601" stopColor="#00BEFF"/>
<stop offset="0.5122" stopColor="#00D2FF"/>
<stop offset="0.7604" stopColor="#00DFFF"/>
<stop offset="1" stopColor="#00E3FF"/>
</linearGradient>
<linearGradient id="paint1_linear_246_7869" x1="34.7567" y1="20.2538" x2="10.2584" y2="20.2538" gradientUnits="userSpaceOnUse">
<stop stopColor="#FFE000"/>
<stop offset="0.4087" stopColor="#FFBD00"/>
<stop offset="0.7754" stopColor="#FFA500"/>
<stop offset="1" stopColor="#FF9C00"/>
</linearGradient>
<linearGradient id="paint2_linear_246_7869" x1="25.6384" y1="22.5755" x2="2.59543" y2="45.6185" gradientUnits="userSpaceOnUse">
<stop stopColor="#FF3A44"/>
<stop offset="1" stopColor="#C31162"/>
</linearGradient>
<linearGradient id="paint3_linear_246_7869" x1="7.88857" y1="0.180758" x2="18.1779" y2="10.4701" gradientUnits="userSpaceOnUse">
<stop stopColor="#32A071"/>
<stop offset="0.0685" stopColor="#2DA771"/>
<stop offset="0.4762" stopColor="#15CF74"/>
<stop offset="0.8009" stopColor="#06E775"/>
<stop offset="1" stopColor="#00F076"/>
</linearGradient>
</defs>
</svg>
