<svg width="25" height="25" viewBox="0 0 25 25" fill="none" xmlns="http://www.w3.org/2000/svg">
<path d="M0.1875 12.5C0.1875 19.1274 5.56008 24.5 12.1875 24.5C18.8149 24.5 24.1875 19.1274 24.1875 12.5C24.1875 5.87258 18.8149 0.5 12.1875 0.5C5.56008 0.5 0.1875 5.87258 0.1875 12.5Z" fill="#1DA1F2"/>
<path d="M18.1875 8.75C17.7375 8.975 17.2875 9.05 16.7625 9.125C17.2875 8.825 17.6625 8.375 17.8125 7.775C17.3625 8.075 16.8375 8.225 16.2375 8.375C15.7875 7.925 15.1125 7.625 14.4375 7.625C12.8625 7.625 11.6625 9.125 12.0375 10.625C10.0125 10.55 8.2125 9.575 6.9375 8.075C6.2625 9.2 6.6375 10.625 7.6875 11.375C7.3125 11.375 6.9375 11.225 6.5625 11.075C6.5625 12.2 7.3875 13.25 8.5125 13.55C8.1375 13.625 7.7625 13.7 7.3875 13.625C7.6875 14.6 8.5875 15.35 9.7125 15.35C8.8125 16.025 7.4625 16.4 6.1875 16.25C7.3125 16.925 8.5875 17.375 9.9375 17.375C14.5125 17.375 17.0625 13.55 16.9125 10.025C17.4375 9.725 17.8875 9.275 18.1875 8.75Z" fill="white"/>
</svg>
