<svg width="123" height="41" viewBox="0 0 123 41" fill="none" xmlns="http://www.w3.org/2000/svg">
<rect x="1.4125" y="0.50625" width="120.488" height="39.4875" rx="6.58125" fill="#0F0F0F"/>
<rect x="1.4125" y="0.50625" width="120.488" height="39.4875" rx="6.58125" stroke="#767676" strokeWidth="1.0125"/>
<path d="M83.451 19.4409V21.7606H81.997V23.2818H83.451V28.4506C83.451 30.2155 84.2494 30.9215 86.2581 30.9215C86.6111 30.9215 86.9473 30.8795 87.2415 30.8291V29.3247C86.9893 29.3499 86.8296 29.3667 86.5523 29.3667C85.653 29.3667 85.258 28.9465 85.258 27.9883V23.2818H87.2415V21.7606H85.258V19.4409H83.451Z" fill="white"/>
<path d="M92.3585 31.0476C95.0311 31.0476 96.67 29.2574 96.67 26.2906C96.67 23.3406 95.0227 21.5421 92.3585 21.5421C89.6858 21.5421 88.0385 23.3406 88.0385 26.2906C88.0385 29.2574 89.6774 31.0476 92.3585 31.0476ZM92.3585 29.4423C90.7868 29.4423 89.9044 28.2909 89.9044 26.2906C89.9044 24.3072 90.7868 23.1473 92.3585 23.1473C93.9217 23.1473 94.8126 24.3072 94.8126 26.2906C94.8126 28.2825 93.9217 29.4423 92.3585 29.4423Z" fill="white"/>
<path d="M98.0722 30.8711H99.8792V25.467C99.8792 24.1811 100.846 23.3154 102.216 23.3154C102.535 23.3154 103.073 23.3743 103.224 23.4247V21.6429C103.031 21.5925 102.686 21.5673 102.417 21.5673C101.224 21.5673 100.207 22.2228 99.9464 23.1221H99.812V21.7186H98.0722V30.8711Z" fill="white"/>
<path d="M107.711 23.0801C109.047 23.0801 109.921 24.013 109.963 25.4502H105.341C105.442 24.0214 106.375 23.0801 107.711 23.0801ZM109.955 28.4002C109.619 29.1146 108.871 29.5096 107.778 29.5096C106.333 29.5096 105.4 28.4926 105.341 26.8873V26.7865H111.804V26.1562C111.804 23.2818 110.266 21.5421 107.719 21.5421C105.139 21.5421 103.5 23.3995 103.5 26.3242C103.5 29.249 105.105 31.0476 107.728 31.0476C109.82 31.0476 111.283 30.0391 111.695 28.4002H109.955Z" fill="white"/>
<path d="M71.6011 27.4912C71.7405 29.7387 73.6134 31.176 76.4009 31.176C79.3801 31.176 81.2443 29.669 81.2443 27.2647C81.2443 25.3744 80.1815 24.3291 77.6031 23.728L76.218 23.3883C74.5803 23.005 73.9183 22.4911 73.9183 21.5938C73.9183 20.4614 74.9462 19.7209 76.488 19.7209C77.9515 19.7209 78.962 20.444 79.1449 21.6025H81.0439C80.9307 19.4857 79.0665 17.9962 76.5142 17.9962C73.7702 17.9962 71.9409 19.4857 71.9409 21.7245C71.9409 23.5712 72.9775 24.6688 75.2511 25.2002L76.8713 25.5922C78.5351 25.9842 79.2669 26.5591 79.2669 27.5173C79.2669 28.6324 78.117 29.4425 76.549 29.4425C74.8678 29.4425 73.7005 28.6846 73.535 27.4912H71.6011Z" fill="white"/>
<path d="M52.8827 21.5673C51.6388 21.5673 50.5631 22.1892 50.0084 23.2314H49.8739V21.7186H48.1341V33.9135H49.9411V29.4844H50.084C50.5631 30.4509 51.5968 31.0224 52.8995 31.0224C55.2108 31.0224 56.6816 29.1986 56.6816 26.2906C56.6816 23.3827 55.2108 21.5673 52.8827 21.5673ZM52.37 29.4003C50.8572 29.4003 49.9075 28.2069 49.9075 26.299C49.9075 24.3828 50.8572 23.1894 52.3784 23.1894C53.9081 23.1894 54.8242 24.3576 54.8242 26.2906C54.8242 28.2321 53.9081 29.4003 52.37 29.4003Z" fill="white"/>
<path d="M63.0045 21.5673C61.7606 21.5673 60.6848 22.1892 60.1301 23.2314H59.9956V21.7186H58.2559V33.9135H60.0629V29.4844H60.2058C60.6848 30.4509 61.7186 31.0224 63.0213 31.0224C65.3325 31.0224 66.8033 29.1986 66.8033 26.2906C66.8033 23.3827 65.3325 21.5673 63.0045 21.5673ZM62.4918 29.4003C60.979 29.4003 60.0293 28.2069 60.0293 26.299C60.0293 24.3828 60.979 23.1894 62.5002 23.1894C64.0298 23.1894 64.9459 24.3576 64.9459 26.2906C64.9459 28.2321 64.0298 29.4003 62.4918 29.4003Z" fill="white"/>
<path d="M44.8921 30.8711H46.9654L42.4269 18.301H40.3275L35.7891 30.8711H37.7926L38.9512 27.5348H43.7423L44.8921 30.8711ZM41.277 20.5833H41.4251L43.2457 25.8971H39.4477L41.277 20.5833Z" fill="white"/>
<path d="M37.0029 8.81991V14.8838H39.1923C40.9993 14.8838 42.0457 13.7702 42.0457 11.8329C42.0457 9.9251 40.9909 8.81991 39.1923 8.81991H37.0029ZM37.9442 9.67717H39.0873C40.3437 9.67717 41.0875 10.4756 41.0875 11.8455C41.0875 13.2365 40.3563 14.0265 39.0873 14.0265H37.9442V9.67717Z" fill="white"/>
<path d="M45.2503 14.972C46.5866 14.972 47.4061 14.0769 47.4061 12.5935C47.4061 11.1185 46.5824 10.2193 45.2503 10.2193C43.914 10.2193 43.0903 11.1185 43.0903 12.5935C43.0903 14.0769 43.9098 14.972 45.2503 14.972ZM45.2503 14.1694C44.4645 14.1694 44.0232 13.5937 44.0232 12.5935C44.0232 11.6018 44.4645 11.0219 45.2503 11.0219C46.0319 11.0219 46.4774 11.6018 46.4774 12.5935C46.4774 13.5895 46.0319 14.1694 45.2503 14.1694Z" fill="white"/>
<path d="M54.3844 10.3075H53.4809L52.6656 13.7996H52.5942L51.6529 10.3075H50.7872L49.8459 13.7996H49.7787L48.9592 10.3075H48.0431L49.3038 14.8838H50.2325L51.1738 11.5136H51.2453L52.1908 14.8838H53.1279L54.3844 10.3075Z" fill="white"/>
<path d="M55.4248 14.8838H56.3283V12.2069C56.3283 11.4926 56.7528 11.0471 57.4209 11.0471C58.0891 11.0471 58.4085 11.4127 58.4085 12.1481V14.8838H59.3119V11.9212C59.3119 10.8328 58.7488 10.2193 57.7277 10.2193C57.0385 10.2193 56.5847 10.526 56.3619 11.0345H56.2947V10.3075H55.4248V14.8838Z" fill="white"/>
<path d="M60.7348 14.8838H61.6383V8.52155H60.7348V14.8838Z" fill="white"/>
<path d="M65.0363 14.972C66.3726 14.972 67.192 14.0769 67.192 12.5935C67.192 11.1185 66.3684 10.2193 65.0363 10.2193C63.7 10.2193 62.8763 11.1185 62.8763 12.5935C62.8763 14.0769 63.6958 14.972 65.0363 14.972ZM65.0363 14.1694C64.2505 14.1694 63.8092 13.5937 63.8092 12.5935C63.8092 11.6018 64.2505 11.0219 65.0363 11.0219C65.8179 11.0219 66.2633 11.6018 66.2633 12.5935C66.2633 13.5895 65.8179 14.1694 65.0363 14.1694Z" fill="white"/>
<path d="M69.884 14.1988C69.3923 14.1988 69.0352 13.9593 69.0352 13.5475C69.0352 13.144 69.3209 12.9297 69.9513 12.8877L71.0691 12.8163V13.1987C71.0691 13.766 70.5648 14.1988 69.884 14.1988ZM69.6529 14.9594C70.2538 14.9594 70.7539 14.6989 71.027 14.2408H71.0985V14.8838H71.9683V11.7573C71.9683 10.7908 71.3212 10.2193 70.174 10.2193C69.136 10.2193 68.3964 10.7235 68.304 11.5094H69.178C69.2789 11.1858 69.6277 11.0009 70.1319 11.0009C70.7497 11.0009 71.0691 11.274 71.0691 11.7573V12.1523L69.8294 12.2237C68.741 12.291 68.1275 12.7658 68.1275 13.5895C68.1275 14.4257 68.7704 14.9594 69.6529 14.9594Z" fill="white"/>
<path d="M75.0343 14.9594C75.6647 14.9594 76.1983 14.6611 76.4715 14.161H76.5429V14.8838H77.4086V8.52155H76.5051V11.0345H76.4379C76.1899 10.5302 75.6605 10.2319 75.0343 10.2319C73.8787 10.2319 73.1349 11.148 73.1349 12.5935C73.1349 14.0433 73.8703 14.9594 75.0343 14.9594ZM75.2907 11.0429C76.0471 11.0429 76.5219 11.6438 76.5219 12.5977C76.5219 13.5559 76.0513 14.1484 75.2907 14.1484C74.5258 14.1484 74.0678 13.5643 74.0678 12.5935C74.0678 11.6312 74.53 11.0429 75.2907 11.0429Z" fill="white"/>
<path d="M83.2674 14.972C84.6037 14.972 85.4232 14.0769 85.4232 12.5935C85.4232 11.1185 84.5995 10.2193 83.2674 10.2193C81.9311 10.2193 81.1074 11.1185 81.1074 12.5935C81.1074 14.0769 81.9269 14.972 83.2674 14.972ZM83.2674 14.1694C82.4816 14.1694 82.0403 13.5937 82.0403 12.5935C82.0403 11.6018 82.4816 11.0219 83.2674 11.0219C84.049 11.0219 84.4945 11.6018 84.4945 12.5935C84.4945 13.5895 84.049 14.1694 83.2674 14.1694Z" fill="white"/>
<path d="M86.6191 14.8838H87.5226V12.2069C87.5226 11.4926 87.9471 11.0471 88.6152 11.0471C89.2834 11.0471 89.6028 11.4127 89.6028 12.1481V14.8838H90.5062V11.9212C90.5062 10.8328 89.9431 10.2193 88.922 10.2193C88.2328 10.2193 87.779 10.526 87.5562 11.0345H87.489V10.3075H86.6191V14.8838Z" fill="white"/>
<path d="M94.6673 9.1687V10.3285H93.9403V11.0891H94.6673V13.6735C94.6673 14.556 95.0665 14.909 96.0709 14.909C96.2474 14.909 96.4155 14.888 96.5625 14.8628V14.1106C96.4365 14.1232 96.3566 14.1316 96.218 14.1316C95.7683 14.1316 95.5708 13.9215 95.5708 13.4424V11.0891H96.5625V10.3285H95.5708V9.1687H94.6673Z" fill="white"/>
<path d="M97.7753 14.8838H98.6788V12.2111C98.6788 11.5178 99.0906 11.0513 99.8302 11.0513C100.469 11.0513 100.809 11.4211 100.809 12.1523V14.8838H101.713V11.9296C101.713 10.8412 101.112 10.2235 100.137 10.2235C99.4478 10.2235 98.9646 10.5302 98.7418 11.0429H98.6704V8.52155H97.7753V14.8838Z" fill="white"/>
<path d="M104.972 10.9883C105.64 10.9883 106.077 11.4547 106.098 12.1733H103.787C103.838 11.4589 104.304 10.9883 104.972 10.9883ZM106.094 13.6483C105.926 14.0055 105.552 14.203 105.006 14.203C104.283 14.203 103.817 13.6945 103.787 12.8919V12.8415H107.019V12.5263C107.019 11.0891 106.25 10.2193 104.976 10.2193C103.686 10.2193 102.867 11.148 102.867 12.6104C102.867 14.0727 103.669 14.972 104.981 14.972C106.027 14.972 106.758 14.4678 106.964 13.6483H106.094Z" fill="white"/>
<path d="M25.9852 20.5546C26.0071 18.8526 26.9212 17.2421 28.3712 16.3506C27.4565 15.0442 25.9243 14.2158 24.3302 14.166C22.6299 13.9875 20.9816 15.1834 20.1152 15.1834C19.2321 15.1834 17.8981 14.1837 16.4616 14.2132C14.5893 14.2737 12.8437 15.3383 11.9328 16.9752C9.97463 20.3655 11.4352 25.348 13.311 28.0885C14.2495 29.4304 15.3463 30.9294 16.7815 30.8762C18.1859 30.818 18.7104 29.9807 20.4056 29.9807C22.0851 29.9807 22.5772 30.8762 24.0415 30.8424C25.5485 30.8179 26.498 29.4945 27.4035 28.1399C28.0778 27.1837 28.5967 26.127 28.9409 25.0087C27.17 24.2597 25.9873 22.4775 25.9852 20.5546Z" fill="white"/>
<path d="M23.2194 12.3637C24.0411 11.3773 24.4459 10.1095 24.3478 8.82947C23.0925 8.96132 21.9329 9.56128 21.1002 10.5098C20.2858 11.4366 19.8621 12.6821 19.9422 13.9132C21.198 13.9262 22.4325 13.3425 23.2194 12.3637Z" fill="white"/>
</svg>
