<svg width="138" height="41" viewBox="0 0 138 41" fill="none" xmlns="http://www.w3.org/2000/svg">
<rect x="0.9125" y="0.50625" width="135.675" height="39.4875" rx="4.55625" fill="#0F0F0F"/>
<rect x="0.9125" y="0.50625" width="135.675" height="39.4875" rx="4.55625" stroke="#767676" strokeWidth="1.0125"/>
<path d="M69.3936 22.023C67.0122 22.023 65.0712 23.8344 65.0712 26.3292C65.0712 28.8088 67.0122 30.6353 69.3936 30.6353C71.776 30.6353 73.717 28.8088 73.717 26.3292C73.716 23.8344 71.775 22.023 69.3936 22.023ZM69.3936 28.9404C68.0885 28.9404 66.9636 27.8641 66.9636 26.3302C66.9636 24.78 68.0895 23.7199 69.3936 23.7199C70.6987 23.7199 71.8236 24.78 71.8236 26.3302C71.8236 27.8631 70.6987 28.9404 69.3936 28.9404ZM59.9632 22.023C57.5818 22.023 55.6408 23.8344 55.6408 26.3292C55.6408 28.8088 57.5818 30.6353 59.9632 30.6353C62.3456 30.6353 64.2866 28.8088 64.2866 26.3292C64.2866 23.8344 62.3456 22.023 59.9632 22.023ZM59.9632 28.9404C58.6581 28.9404 57.5332 27.8641 57.5332 26.3302C57.5332 24.78 58.6591 23.7199 59.9632 23.7199C61.2683 23.7199 62.3932 24.78 62.3932 26.3302C62.3942 27.8631 61.2683 28.9404 59.9632 28.9404ZM48.7467 23.3453V25.1719H53.1187C52.9881 26.1996 52.6458 26.9498 52.1234 27.4713C51.4875 28.1071 50.4923 28.8088 48.7467 28.8088C46.0555 28.8088 43.9515 26.639 43.9515 23.9478C43.9515 21.2565 46.0555 19.0867 48.7467 19.0867C50.1986 19.0867 51.2587 19.6578 52.0414 20.3919L53.3303 19.1029C52.2368 18.0591 50.7859 17.2602 48.7467 17.2602C45.0602 17.2602 41.9609 20.2612 41.9609 23.9478C41.9609 27.6343 45.0602 30.6353 48.7467 30.6353C50.7363 30.6353 52.2378 29.9823 53.4113 28.7592C54.6182 27.5523 54.9938 25.8553 54.9938 24.4854C54.9938 24.0622 54.9614 23.6703 54.8956 23.3443H48.7467V23.3453ZM94.6211 24.7638C94.2626 23.802 93.1691 22.023 90.9346 22.023C88.7162 22.023 86.8724 23.7685 86.8724 26.3292C86.8724 28.743 88.7 30.6353 91.1462 30.6353C93.1195 30.6353 94.2616 29.4284 94.7355 28.7268L93.2673 27.7477C92.7783 28.4655 92.1091 28.9384 91.1462 28.9384C90.1843 28.9384 89.4988 28.4979 89.0584 27.6333L94.8165 25.2519L94.6211 24.7638ZM88.7486 26.1996C88.7 24.535 90.0375 23.6875 91.0004 23.6875C91.7506 23.6875 92.3865 24.0632 92.5991 24.6008L88.7486 26.1996ZM84.0678 30.3751H85.9591V17.7178H84.0678V30.3751ZM80.9675 22.9859H80.9027C80.4785 22.4796 79.6624 22.023 78.6357 22.023C76.4821 22.023 74.5088 23.9154 74.5088 26.3464C74.5088 28.7602 76.4821 30.6363 78.6357 30.6363C79.6634 30.6363 80.4785 30.1797 80.9027 29.6583H80.9675V30.2779C80.9675 31.9252 80.0866 32.8061 78.6681 32.8061C77.5098 32.8061 76.792 31.9749 76.4983 31.2732L74.851 31.9587C75.3238 33.0997 76.5793 34.5031 78.6681 34.5031C80.8865 34.5031 82.7627 33.198 82.7627 30.0167V22.2852H80.9685V22.9859H80.9675ZM78.7987 28.9404C77.4936 28.9404 76.4011 27.8469 76.4011 26.3464C76.4011 24.8286 77.4936 23.7199 78.7987 23.7199C80.0866 23.7199 81.0981 24.8286 81.0981 26.3464C81.0981 27.8469 80.0866 28.9404 78.7987 28.9404ZM103.484 17.7178H98.9576V30.3751H100.846V25.5799H103.483C105.577 25.5799 107.637 24.0642 107.637 21.6494C107.637 19.2346 105.578 17.7178 103.484 17.7178ZM103.533 23.8182H100.846V19.4796H103.533C104.946 19.4796 105.747 20.649 105.747 21.6494C105.747 22.6295 104.946 23.8182 103.533 23.8182ZM115.209 22.0007C113.841 22.0007 112.425 22.6032 111.839 23.9386L113.515 24.6383C113.874 23.9386 114.542 23.7098 115.242 23.7098C116.219 23.7098 117.212 24.2961 117.228 25.3379V25.4685C116.886 25.2731 116.153 24.9805 115.258 24.9805C113.451 24.9805 111.61 25.9738 111.61 27.8297C111.61 29.5236 113.092 30.6141 114.753 30.6141C116.022 30.6141 116.723 30.044 117.162 29.3758H117.227V30.3528H119.052V25.4999C119.053 23.2542 117.374 22.0007 115.209 22.0007ZM114.98 28.9374C114.363 28.9374 113.499 28.6275 113.499 27.8621C113.499 26.885 114.574 26.5104 115.503 26.5104C116.332 26.5104 116.724 26.6896 117.228 26.9336C117.081 28.1071 116.072 28.9374 114.98 28.9374ZM125.696 22.2771L123.53 27.7649H123.465L121.217 22.2771H119.182L122.553 29.9468L120.631 34.2135H122.602L127.797 22.2771H125.696ZM108.68 30.3751H110.568V17.7178H108.68V30.3751Z" fill="white"/>
<path d="M48.4172 10.371C48.4172 11.2195 48.1661 11.8949 47.6629 12.3991C47.0919 12.9985 46.3467 13.2982 45.4314 13.2982C44.5545 13.2982 43.8083 12.9944 43.1958 12.3869C42.5822 11.7784 42.2754 11.0251 42.2754 10.126C42.2754 9.22591 42.5822 8.47261 43.1958 7.86511C43.8083 7.25659 44.5545 6.95285 45.4314 6.95285C45.8667 6.95285 46.2829 7.03789 46.6777 7.20698C47.0736 7.37708 47.3905 7.60287 47.6275 7.88536L47.0939 8.41996C46.6919 7.93902 46.1381 7.69906 45.4303 7.69906C44.7904 7.69906 44.2376 7.92383 43.7709 8.37338C43.3041 8.82293 43.0712 9.40714 43.0712 10.125C43.0712 10.8429 43.3041 11.4271 43.7709 11.8766C44.2376 12.3262 44.7904 12.551 45.4303 12.551C46.1087 12.551 46.6747 12.3252 47.1273 11.8726C47.4209 11.5779 47.591 11.1679 47.6366 10.6424H45.4303V9.91238H48.3737C48.4041 10.0713 48.4172 10.2242 48.4172 10.371Z" fill="white"/>
<path d="M53.0849 7.83378H50.3188V9.75955H52.8136V10.4896H50.3188V12.4153H53.0849V13.1626H49.5382V7.08756H53.0849V7.83378Z" fill="white"/>
<path d="M56.3765 13.1626H55.5958V7.83378H53.8989V7.08756H58.0734V7.83378H56.3765V13.1626Z" fill="white"/>
<path d="M61.0937 13.1626V7.08756H61.8743V13.1626H61.0937Z" fill="white"/>
<path d="M65.3362 13.1626H64.5556V7.83378H62.8586V7.08756H67.0331V7.83378H65.3362V13.1626Z" fill="white"/>
<path d="M74.9355 12.3779C74.3381 12.9914 73.5959 13.2982 72.708 13.2982C71.82 13.2982 71.0779 12.9914 70.4815 12.3779C69.8841 11.7643 69.5864 11.013 69.5864 10.1251C69.5864 9.23709 69.8841 8.48582 70.4815 7.87224C71.0779 7.25867 71.82 6.95087 72.708 6.95087C73.5909 6.95087 74.332 7.25968 74.9314 7.87629C75.5308 8.4929 75.8305 9.24215 75.8305 10.1251C75.8305 11.013 75.5318 11.7643 74.9355 12.3779ZM71.0576 11.8686C71.5072 12.3242 72.0569 12.551 72.708 12.551C73.359 12.551 73.9098 12.3232 74.3584 11.8686C74.8079 11.413 75.0337 10.8318 75.0337 10.1251C75.0337 9.41833 74.8079 8.83715 74.3584 8.38153C73.9098 7.9259 73.359 7.6991 72.708 7.6991C72.0569 7.6991 71.5072 7.92692 71.0576 8.38153C70.6091 8.83715 70.3833 9.41833 70.3833 10.1251C70.3833 10.8318 70.6091 11.413 71.0576 11.8686Z" fill="white"/>
<path d="M76.9261 13.1626V7.08756H77.8758L80.8283 11.8129H80.8617L80.8283 10.6425V7.08756H81.6089V13.1626H80.7938L77.7047 8.20739H77.6713L77.7047 9.37784V13.1626H76.9261Z" fill="white"/>
<path d="M48.4172 10.371C48.4172 11.2195 48.1661 11.8949 47.6629 12.3991C47.0919 12.9985 46.3467 13.2982 45.4314 13.2982C44.5545 13.2982 43.8083 12.9944 43.1958 12.3869C42.5822 11.7784 42.2754 11.0251 42.2754 10.126C42.2754 9.22591 42.5822 8.47261 43.1958 7.86511C43.8083 7.25659 44.5545 6.95285 45.4314 6.95285C45.8667 6.95285 46.2829 7.03789 46.6777 7.20698C47.0736 7.37708 47.3905 7.60287 47.6275 7.88536L47.0939 8.41996C46.6919 7.93902 46.1381 7.69906 45.4303 7.69906C44.7904 7.69906 44.2376 7.92383 43.7709 8.37338C43.3041 8.82293 43.0712 9.40714 43.0712 10.125C43.0712 10.8429 43.3041 11.4271 43.7709 11.8766C44.2376 12.3262 44.7904 12.551 45.4303 12.551C46.1087 12.551 46.6747 12.3252 47.1273 11.8726C47.4209 11.5779 47.591 11.1679 47.6366 10.6424H45.4303V9.91238H48.3737C48.4041 10.0713 48.4172 10.2242 48.4172 10.371Z" stroke="white" strokeWidth="0.2025" strokeMiterlimit="10"/>
<path d="M53.0849 7.83378H50.3188V9.75955H52.8136V10.4896H50.3188V12.4153H53.0849V13.1626H49.5382V7.08756H53.0849V7.83378Z" stroke="white" strokeWidth="0.2025" strokeMiterlimit="10"/>
<path d="M56.3765 13.1626H55.5958V7.83378H53.8989V7.08756H58.0734V7.83378H56.3765V13.1626Z" stroke="white" strokeWidth="0.2025" strokeMiterlimit="10"/>
<path d="M61.0937 13.1626V7.08756H61.8743V13.1626H61.0937Z" stroke="white" strokeWidth="0.2025" strokeMiterlimit="10"/>
<path d="M65.3362 13.1626H64.5556V7.83378H62.8586V7.08756H67.0331V7.83378H65.3362V13.1626Z" stroke="white" strokeWidth="0.2025" strokeMiterlimit="10"/>
<path d="M74.9355 12.3779C74.3381 12.9914 73.5959 13.2982 72.708 13.2982C71.82 13.2982 71.0779 12.9914 70.4815 12.3779C69.8841 11.7643 69.5864 11.013 69.5864 10.1251C69.5864 9.23709 69.8841 8.48582 70.4815 7.87224C71.0779 7.25867 71.82 6.95087 72.708 6.95087C73.5909 6.95087 74.332 7.25968 74.9314 7.87629C75.5308 8.4929 75.8305 9.24215 75.8305 10.1251C75.8305 11.013 75.5318 11.7643 74.9355 12.3779ZM71.0576 11.8686C71.5072 12.3242 72.0569 12.551 72.708 12.551C73.359 12.551 73.9098 12.3232 74.3584 11.8686C74.8079 11.413 75.0337 10.8318 75.0337 10.1251C75.0337 9.41833 74.8079 8.83715 74.3584 8.38153C73.9098 7.9259 73.359 7.6991 72.708 7.6991C72.0569 7.6991 71.5072 7.92692 71.0576 8.38153C70.6091 8.83715 70.3833 9.41833 70.3833 10.1251C70.3833 10.8318 70.6091 11.413 71.0576 11.8686Z" stroke="white" strokeWidth="0.2025" strokeMiterlimit="10"/>
<path d="M76.9261 13.1626V7.08756H77.8758L80.8283 11.8129H80.8617L80.8283 10.6425V7.08756H81.6089V13.1626H80.7938L77.7047 8.20739H77.6713L77.7047 9.37784V13.1626H76.9261Z" stroke="white" strokeWidth="0.2025" strokeMiterlimit="10"/>
<g filter="url(#filter0_ii_1029_15232)">
<path d="M10.9727 7.63232C10.6781 7.94417 10.5039 8.42815 10.5039 9.05489V31.4473C10.5039 32.0751 10.6781 32.5581 10.9727 32.8699L11.0476 32.9428L23.5915 20.3989V20.2511V20.1033L11.0476 7.55841L10.9727 7.63232Z" fill="url(#paint0_linear_1029_15232)"/>
<path d="M27.7724 24.5815L23.5918 20.3988V20.251V20.1032L27.7734 15.9216L27.8676 15.9752L32.8217 18.79C34.2362 19.5939 34.2362 20.9091 32.8217 21.7141L27.8676 24.5288L27.7724 24.5815Z" fill="url(#paint1_linear_1029_15232)"/>
<g filter="url(#filter1_i_1029_15232)">
<path d="M27.8672 24.5279L23.5904 20.2511L10.9727 32.8699C11.4384 33.364 12.2089 33.4247 13.0766 32.9327L27.8672 24.5279Z" fill="url(#paint2_linear_1029_15232)"/>
</g>
<path d="M27.8672 15.9743L13.0766 7.5705C12.2089 7.07741 11.4384 7.13918 10.9727 7.63328L23.5914 20.2521L27.8672 15.9743Z" fill="url(#paint3_linear_1029_15232)"/>
</g>
<defs>
<filter id="filter0_ii_1029_15232" x="10.5039" y="7.23022" width="23.3789" height="26.0423" filterUnits="userSpaceOnUse" colorInterpolationFilters="sRGB">
<feFlood floodOpacity="0" result="BackgroundImageFix"/>
<feBlend mode="normal" in="SourceGraphic" in2="BackgroundImageFix" result="shape"/>
<feColorMatrix in="SourceAlpha" type="matrix" values="0 0 0 0 0 0 0 0 0 0 0 0 0 0 0 0 0 0 127 0" result="hardAlpha"/>
<feOffset dy="-0.151875"/>
<feComposite in2="hardAlpha" operator="arithmetic" k2="-1" k3="1"/>
<feColorMatrix type="matrix" values="0 0 0 0 0 0 0 0 0 0 0 0 0 0 0 0 0 0 0.12 0"/>
<feBlend mode="normal" in2="shape" result="effect1_innerShadow_1029_15232"/>
<feColorMatrix in="SourceAlpha" type="matrix" values="0 0 0 0 0 0 0 0 0 0 0 0 0 0 0 0 0 0 127 0" result="hardAlpha"/>
<feOffset dy="0.151875"/>
<feComposite in2="hardAlpha" operator="arithmetic" k2="-1" k3="1"/>
<feColorMatrix type="matrix" values="0 0 0 0 1 0 0 0 0 1 0 0 0 0 1 0 0 0 0.25 0"/>
<feBlend mode="normal" in2="effect1_innerShadow_1029_15232" result="effect2_innerShadow_1029_15232"/>
</filter>
<filter id="filter1_i_1029_15232" x="10.9727" y="20.2511" width="16.8945" height="13.0214" filterUnits="userSpaceOnUse" colorInterpolationFilters="sRGB">
<feFlood floodOpacity="0" result="BackgroundImageFix"/>
<feBlend mode="normal" in="SourceGraphic" in2="BackgroundImageFix" result="shape"/>
<feColorMatrix in="SourceAlpha" type="matrix" values="0 0 0 0 0 0 0 0 0 0 0 0 0 0 0 0 0 0 127 0" result="hardAlpha"/>
<feOffset dy="-0.151875"/>
<feComposite in2="hardAlpha" operator="arithmetic" k2="-1" k3="1"/>
<feColorMatrix type="matrix" values="0 0 0 0 0 0 0 0 0 0 0 0 0 0 0 0 0 0 0.08 0"/>
<feBlend mode="normal" in2="shape" result="effect1_innerShadow_1029_15232"/>
</filter>
<linearGradient id="paint0_linear_1029_15232" x1="22.4796" y1="8.81796" x2="5.48778" y2="25.8097" gradientUnits="userSpaceOnUse">
<stop stopColor="#00A0FF"/>
<stop offset="0.0066" stopColor="#00A1FF"/>
<stop offset="0.2601" stopColor="#00BEFF"/>
<stop offset="0.5122" stopColor="#00D2FF"/>
<stop offset="0.7604" stopColor="#00DFFF"/>
<stop offset="1" stopColor="#00E3FF"/>
</linearGradient>
<linearGradient id="paint1_linear_1029_15232" x1="34.663" y1="20.251" x2="10.1646" y2="20.251" gradientUnits="userSpaceOnUse">
<stop stopColor="#FFE000"/>
<stop offset="0.4087" stopColor="#FFBD00"/>
<stop offset="0.7754" stopColor="#FFA500"/>
<stop offset="1" stopColor="#FF9C00"/>
</linearGradient>
<linearGradient id="paint2_linear_1029_15232" x1="25.5447" y1="22.5737" x2="2.50168" y2="45.6167" gradientUnits="userSpaceOnUse">
<stop stopColor="#FF3A44"/>
<stop offset="1" stopColor="#C31162"/>
</linearGradient>
<linearGradient id="paint3_linear_1029_15232" x1="7.79482" y1="0.179049" x2="18.0842" y2="10.4684" gradientUnits="userSpaceOnUse">
<stop stopColor="#32A071"/>
<stop offset="0.0685" stopColor="#2DA771"/>
<stop offset="0.4762" stopColor="#15CF74"/>
<stop offset="0.8009" stopColor="#06E775"/>
<stop offset="1" stopColor="#00F076"/>
</linearGradient>
</defs>
</svg>
