<svg width="25" height="24" viewBox="0 0 25 24" fill="none" xmlns="http://www.w3.org/2000/svg">
<g id="devicon:google" clip-path="url(#clip0_1029_9121)">
<path id="Vector" d="M16.6779 1.32999C17.8713 1.77413 18.9771 2.42204 19.9466 3.24365C19.8797 3.31072 19.8116 3.37808 19.7425 3.44621C19.7183 3.47001 19.694 3.49394 19.6696 3.51799C19.5005 3.68445 19.3256 3.85665 19.1571 4.03255C18.5433 4.64842 17.9287 5.26295 17.3131 5.87614C16.6102 5.29293 15.7977 4.85339 14.9215 4.58455L14.9215 4.58454L14.9188 4.58375C13.6049 4.18854 12.2075 4.16287 10.88 4.50955C9.55321 4.85604 8.34742 5.56108 7.39478 6.54739C6.56587 7.39112 5.93808 8.41107 5.5582 9.5312C5.01449 11.1328 5.01449 12.8691 5.5582 14.4708L5.55831 14.4711C6.09214 16.0404 7.1079 17.4009 8.46068 18.3588C9.30588 18.961 10.2673 19.3805 11.2837 19.5904L11.2836 19.5904L11.2934 19.5923C12.2881 19.7773 13.3085 19.7775 14.3033 19.593C15.3038 19.4234 16.2577 19.0464 17.1039 18.4864L17.1039 18.4864L17.1074 18.484C17.7847 18.0273 18.3629 17.4387 18.8073 16.7534C19.2518 16.0681 19.5534 15.3002 19.6942 14.4956L19.7967 13.9094H19.2017H13.2385V10.2801H23.4749C23.7589 12.1692 23.6371 14.0989 23.1156 15.94C22.6068 17.7348 21.6188 19.357 20.2576 20.6325C18.9493 21.8205 17.3551 22.6487 15.6308 23.036L15.6308 23.0359L15.626 23.0371C13.7076 23.4881 11.7084 23.4666 9.80016 22.9746C7.45311 22.3439 5.37004 20.9774 3.85675 19.0756C2.34293 17.1732 1.47907 14.8355 1.39205 12.4058C1.30503 9.9762 1.99945 7.58268 3.37329 5.57685C4.74698 3.57126 6.72755 2.05898 9.02415 1.26208C11.5083 0.410123 14.2093 0.434093 16.6779 1.32999Z" fill="#FEFEFE" stroke="#822DA4"/>
<path id="Vector_2" d="M8.8607 0.789367C11.4536 -0.100776 14.2731 -0.0762934 16.8501 0.858742C18.2653 1.38864 19.562 2.19277 20.6657 3.22499C20.2907 3.62624 19.8951 4.00124 19.5126 4.39124C18.7851 5.11749 18.0582 5.84124 17.332 6.56249C16.608 5.87001 15.7322 5.35635 14.7745 5.06249C13.5489 4.69244 12.2451 4.66711 11.0061 4.98926C9.76712 5.31141 8.64079 5.96861 7.7507 6.88874C6.97377 7.67912 6.38538 8.63477 6.02945 9.68437L2.14258 6.67499C3.53384 3.91604 5.94273 1.80566 8.8607 0.789367Z" fill="#E33629"/>
<path id="Vector_3" d="M1.1114 9.6563C1.32016 8.62087 1.66701 7.61816 2.14265 6.67505L6.02953 9.69192C5.52119 11.1893 5.52119 12.8126 6.02953 14.31C4.73453 15.31 3.4389 16.315 2.14265 17.325C0.952308 14.9556 0.589275 12.256 1.1114 9.6563Z" fill="#F8BD00"/>
<path id="Vector_4" d="M12.7381 9.77808H23.8981C24.2797 11.8723 24.1764 14.0262 23.5963 16.0743C23.0623 17.9577 22.0252 19.66 20.5963 20.9981C19.3419 20.0193 18.0819 19.0481 16.8275 18.0693C17.4494 17.6498 17.9802 17.1091 18.3881 16.4796C18.796 15.85 19.0726 15.1446 19.2013 14.4056H12.7381C12.7363 12.8643 12.7381 11.3212 12.7381 9.77808Z" fill="#587DBD"/>
<path id="Vector_5" d="M2.14062 17.3251C3.43687 16.3251 4.7325 15.3201 6.0275 14.3101C6.52851 15.7804 7.48138 17.0549 8.75 17.9513C9.54116 18.5107 10.4403 18.899 11.39 19.0913C12.3257 19.2653 13.2855 19.2653 14.2213 19.0913C15.1543 18.9336 16.044 18.5823 16.8331 18.0601C18.0875 19.0388 19.3475 20.0101 20.6019 20.9888C19.2292 22.237 17.5558 23.1073 15.7456 23.5144C13.7476 23.9841 11.6655 23.9616 9.67813 23.4488C8.10632 23.0291 6.63814 22.2893 5.36563 21.2757C4.01886 20.2062 2.91882 18.8587 2.14062 17.3251Z" fill="#319F43"/>
</g>
<defs>
<clipPath id="clip0_1029_9121">
<rect width="24" height="24" fill="white" transform="translate(0.5)"/>
</clipPath>
</defs>
</svg>
