<svg width="24" height="25" viewBox="0 0 24 25" fill="none" xmlns="http://www.w3.org/2000/svg">
<path d="M12.12 13.28C12.05 13.27 11.96 13.27 11.88 13.28C10.12 13.22 8.72 11.78 8.72 10.01C8.72 8.2 10.18 6.73 12 6.73C13.81 6.73 15.28 8.2 15.28 10.01C15.27 11.78 13.88 13.22 12.12 13.28Z" stroke="#292D32" strokeWidth="1.5" stroke-linecap="round" stroke-linejoin="round"/>
<path d="M18.74 19.88C16.96 21.51 14.6 22.5 12 22.5C9.40001 22.5 7.04001 21.51 5.26001 19.88C5.36001 18.94 5.96001 18.02 7.03001 17.3C9.77001 15.48 14.25 15.48 16.97 17.3C18.04 18.02 18.64 18.94 18.74 19.88Z" stroke="#292D32" strokeWidth="1.5" stroke-linecap="round" stroke-linejoin="round"/>
<path d="M12 22.5C17.5228 22.5 22 18.0228 22 12.5C22 6.97715 17.5228 2.5 12 2.5C6.47715 2.5 2 6.97715 2 12.5C2 18.0228 6.47715 22.5 12 22.5Z" stroke="#292D32" strokeWidth="1.5" stroke-linecap="round" stroke-linejoin="round"/>
</svg>
