<svg width="60" height="60" viewBox="0 0 60 60" fill="none" xmlns="http://www.w3.org/2000/svg">
<g clip-path="url(#clip0_2581_14883)">
<mask id="mask0_2581_14883" style="mask-type:luminance" maskUnits="userSpaceOnUse" x="0" y="0" width="60" height="60">
<path d="M60 0H0V60H60V0Z" fill="white"/>
</mask>
<g mask="url(#mask0_2581_14883)">
<path d="M29.9981 60V55.3317C14.7175 55.3317 0 45.2796 0 30H4.66485C4.66485 14.7203 14.7175 0 29.9981 0V4.66836C45.2787 4.66836 60 14.7203 60 30H55.3353C55.3353 45.2796 45.2787 60 29.9981 60Z" fill="url(#paint0_linear_2581_14883)"/>
</g>
</g>
<path d="M30 24.44V27.77" stroke="#1410B5" strokeWidth="2.5" stroke-miterlimit="10" stroke-linecap="round"/>
<path d="M30.0199 20C26.3399 20 23.3599 22.98 23.3599 26.66V28.76C23.3599 29.44 23.0799 30.46 22.7299 31.04L21.4599 33.16C20.6799 34.47 21.2199 35.93 22.6599 36.41C27.4399 38 32.6099 38 37.3899 36.41C38.7399 35.96 39.3199 34.38 38.5899 33.16L37.3199 31.04C36.9699 30.46 36.6899 29.43 36.6899 28.76V26.66C36.6799 23 33.6799 20 30.0199 20Z" stroke="#1410B5" strokeWidth="2.5" stroke-miterlimit="10" stroke-linecap="round"/>
<path d="M33.3299 36.82C33.3299 38.65 31.8299 40.15 29.9999 40.15C29.0899 40.15 28.2499 39.77 27.6499 39.17C27.0499 38.57 26.6699 37.73 26.6699 36.82" stroke="#1410B5" strokeWidth="2.5" stroke-miterlimit="10"/>
<defs>
<linearGradient id="paint0_linear_2581_14883" x1="47.25" y1="9.6" x2="13.2" y2="44.25" gradientUnits="userSpaceOnUse">
<stop offset="0.0509862" stop-color="#CCE3FF"/>
<stop offset="1" stop-color="#88BCFF"/>
</linearGradient>
<clipPath id="clip0_2581_14883">
<rect width="60" height="60" fill="white"/>
</clipPath>
</defs>
</svg>
