<svg width="500" height="500" viewBox="0 0 500 500" fill="none" xmlns="http://www.w3.org/2000/svg">
<g clip-path="url(#clip0_526_3513)">
<path d="M500.008 382.398H0.0078125V382.648H500.008V382.398Z" fill="#F2BB9B"/>
<path d="M85.5888 391.922H52.4668V392.172H85.5888V391.922Z" fill="#F2BB9B"/>
<path d="M179.84 389.208H145.34V389.458H179.84V389.208Z" fill="#F2BB9B"/>
<path d="M131.508 396.75H76.0898V397H131.508V396.75Z" fill="#F2BB9B"/>
<path d="M448.841 397.667H405.648V397.917H448.841V397.667Z" fill="#F2BB9B"/>
<path d="M393.341 391.417H370.438V391.667H393.341V391.417Z" fill="#F2BB9B"/>
<path d="M289.315 395.431H195.639V395.681H289.315V395.431Z" fill="#F2BB9B"/>
<path d="M237.022 337.8H43.9228C40.7758 337.8 38.2148 335.239 38.2148 332.092V60.6599C38.2148 57.5129 40.7758 54.9519 43.9228 54.9519H237.022C240.168 54.9519 242.729 57.5129 242.729 60.6599V332.092C242.729 335.239 240.168 337.8 237.022 337.8ZM43.9228 55.2029C40.9128 55.2029 38.4648 57.6509 38.4648 60.6609V332.093C38.4648 335.103 40.9128 337.551 43.9228 337.551H237.022C240.031 337.551 242.479 335.103 242.479 332.093V60.6599C242.479 57.6509 240.031 55.2019 237.022 55.2019L43.9228 55.2029Z" fill="#ED9E72"/>
<path d="M453.321 337.8H260.223C257.076 337.8 254.516 335.239 254.516 332.092V60.6597C254.516 57.5127 257.077 54.9517 260.223 54.9517H453.321C456.469 54.9517 459.029 57.5127 459.029 60.6597V332.092C459.03 335.239 456.469 337.8 453.321 337.8ZM260.223 55.2027C257.214 55.2027 254.766 57.6507 254.766 60.6607V332.093C254.766 335.103 257.214 337.551 260.223 337.551H453.321C456.331 337.551 458.779 335.103 458.779 332.093V60.6597C458.779 57.6507 456.331 55.2017 453.321 55.2017L260.223 55.2027Z" fill="#ED9E72"/>
<path d="M202.744 379.299H148.604V382.399H202.744V379.299Z" fill="#FCEEE7"/>
<path d="M170.809 311.592L155.848 379.299H195.5L180.539 311.592C179.388 306.382 171.96 306.382 170.809 311.592Z" fill="#FCEEE7"/>
<path d="M183.511 325.034H167.833L164.043 342.191H187.301L183.511 325.034Z" fill="#F2BB9B"/>
<path d="M187.963 345.211H163.379L161.457 353.896H189.885L187.963 345.211Z" fill="#F2BB9B"/>
<path d="M72.5234 382.397H80.5704L104.246 249.999H96.1984L72.5234 382.397Z" fill="#F2BB9B"/>
<path d="M283.006 382.397H291.053L314.729 249.999H306.682L283.006 382.397Z" fill="#F2BB9B"/>
<path d="M338.56 256.444H72.5234V304.56H338.56V256.444Z" fill="#F2BB9B"/>
<path d="M101.366 302.439H73.7871L89.0841 258.568H116.663L101.366 302.439Z" fill="#FCEEE7"/>
<path d="M156.524 302.438H128.945L144.242 258.567H171.821L156.524 302.438Z" fill="#FCEEE7"/>
<path d="M211.683 302.438H184.104L199.401 258.567H226.98L211.683 302.438Z" fill="#FCEEE7"/>
<path d="M266.841 302.439H239.262L254.559 258.568H282.138L266.841 302.439Z" fill="#FCEEE7"/>
<path d="M321.999 302.439H294.42L309.717 258.568H337.296L321.999 302.439Z" fill="#FCEEE7"/>
<path d="M127.924 382.397H119.877L96.2012 249.999H104.249L127.924 382.397Z" fill="#F2BB9B"/>
<path d="M338.563 382.397H330.516L306.84 249.999H314.887L338.563 382.397Z" fill="#E0E0E0"/>
<path d="M447.006 378.333H376.006V382.398H447.006V378.333Z" fill="#FCEEE7"/>
<path d="M404.657 291.654L385.504 378.334H437.504L418.351 291.654C416.731 284.321 406.277 284.321 404.657 291.654Z" fill="#FCEEE7"/>
<path d="M421.786 307.17H401.226L396.256 329.67H426.756L421.786 307.17Z" fill="#F2BB9B"/>
<path d="M427.623 333.63H395.383L392.863 345.02H430.143L427.623 333.63Z" fill="#F2BB9B"/>
<path d="M463.002 241.898V271.199C463.002 273.162 461.094 274.56 459.222 273.966L36.2545 139.922C35.0485 139.54 34.2285 138.42 34.2285 137.155V107.854C34.2285 105.891 36.1365 104.493 38.0085 105.087L460.976 239.132C462.182 239.513 463.002 240.633 463.002 241.898Z" fill="#F2BB9B"/>
<path d="M429.721 262.382L453.007 269.762L440.091 234.744L416.805 227.365L429.721 262.382Z" fill="#FCEEE7"/>
<path d="M383.146 247.623L406.431 255.002L393.515 219.985L370.23 212.605L383.146 247.623Z" fill="#FCEEE7"/>
<path d="M336.576 232.864L359.862 240.243L346.946 205.226L323.66 197.846L336.576 232.864Z" fill="#FCEEE7"/>
<path d="M290.004 218.104L313.29 225.484L300.374 190.467L277.088 183.087L290.004 218.104Z" fill="#FCEEE7"/>
<path d="M243.432 203.346L266.718 210.726L253.802 175.708L230.516 168.329L243.432 203.346Z" fill="#FCEEE7"/>
<path d="M196.861 188.586L220.147 195.966L207.231 160.948L183.945 153.569L196.861 188.586Z" fill="#FCEEE7"/>
<path d="M150.289 173.828L173.574 181.207L160.658 146.19L137.373 138.81L150.289 173.828Z" fill="#FCEEE7"/>
<path d="M103.715 159.068L127.001 166.448L114.085 131.431L90.7988 124.051L103.715 159.068Z" fill="#FCEEE7"/>
<path d="M57.1455 144.309L80.4315 151.688L67.5155 116.671L44.2305 109.292L57.1455 144.309Z" fill="#FCEEE7"/>
<path d="M250.002 427.561C357.084 427.561 443.891 422.492 443.891 416.238C443.891 409.985 357.084 404.915 250.002 404.915C142.92 404.915 56.1133 409.985 56.1133 416.238C56.1133 422.492 142.92 427.561 250.002 427.561Z" fill="#FCEEE7"/>
<path d="M326.475 407.572H314.943V60.1198C314.943 58.2448 326.475 58.2448 326.475 60.1198V407.572Z" fill="#E57435"/>
<path d="M326.474 190.595L314.943 192.919V176.969H326.474V190.595Z" fill="#E57435"/>
<path d="M397.736 186.598L235.938 174.564C229.356 174.074 224.372 168.289 224.861 161.707L231.619 70.8466C232.109 64.2646 237.894 59.2806 244.476 59.7696L406.274 71.8036C412.856 72.2936 417.84 78.0786 417.351 84.6606L410.593 175.521C410.104 182.103 404.318 187.088 397.736 186.598Z" fill="#FCEEE7"/>
<path d="M398.639 188.131C398.302 188.131 397.964 188.119 397.625 188.094L235.828 176.061C232.245 175.794 228.973 174.139 226.613 171.4C224.253 168.661 223.1 165.179 223.366 161.596L230.124 70.7366C230.391 67.1536 232.046 63.8816 234.785 61.5206C237.524 59.1616 241.005 58.0016 244.589 58.2746L406.386 70.3086C409.969 70.5756 413.241 72.2306 415.601 74.9686C417.961 77.7076 419.114 81.1896 418.848 84.7726L412.09 175.633C411.823 179.215 410.168 182.488 407.429 184.848C404.949 186.984 401.86 188.131 398.639 188.131ZM243.58 61.2366C241.076 61.2366 238.673 62.1296 236.742 63.7936C234.61 65.6306 233.322 68.1746 233.116 70.9586L226.358 161.818C225.929 167.592 230.276 172.639 236.05 173.068L397.847 185.101C400.631 185.307 403.338 184.411 405.47 182.575C407.602 180.738 408.89 178.193 409.096 175.41L415.854 84.5496C416.283 78.7766 411.936 73.7296 406.162 73.3006L244.365 61.2666C244.103 61.2466 243.841 61.2366 243.58 61.2366Z" fill="#E57435"/>
<path d="M287.448 108.046L267.121 106.534L267.804 97.3567L289.928 74.7067L299.653 75.4307L297.818 100.114L302.859 100.489L302.215 109.145L297.174 108.77L296.616 116.277L286.891 115.553L287.448 108.046ZM288.092 99.3897L289.032 86.7507L277.351 98.5907L288.092 99.3897Z" fill="#E57435"/>
<path d="M306.638 96.6644C307.206 89.0304 308.977 83.7904 311.953 80.9454C314.928 78.0984 319.228 76.8854 324.854 77.3034C327.557 77.5044 329.751 78.0034 331.436 78.7984C333.122 79.5944 334.473 80.5664 335.489 81.7164C336.506 82.8654 337.285 84.0544 337.827 85.2794C338.369 86.5054 338.774 87.9164 339.04 89.5144C339.566 92.5674 339.708 95.7174 339.467 98.9674C338.925 106.254 337.296 111.495 334.579 114.691C331.863 117.887 327.49 119.259 321.463 118.811C318.084 118.56 315.394 117.819 313.392 116.586C311.391 115.354 309.8 113.647 308.622 111.465C307.763 109.913 307.161 107.835 306.813 105.229C306.466 102.625 306.407 99.7704 306.638 96.6644ZM317.704 97.5144C317.324 102.628 317.515 106.156 318.281 108.095C319.046 110.033 320.286 111.067 322.003 111.195C323.135 111.279 324.146 110.955 325.037 110.221C325.927 109.489 326.632 108.28 327.153 106.592C327.673 104.904 328.068 102.243 328.339 98.6094C328.735 93.2764 328.551 89.6594 327.783 87.7564C327.015 85.8534 325.728 84.8354 323.919 84.7004C322.074 84.5624 320.672 85.3994 319.711 87.2104C318.749 89.0204 318.081 92.4564 317.704 97.5144Z" fill="#E57435"/>
<path d="M355.502 91.953L345.095 89.277C346.222 85.982 348.098 83.533 350.724 81.927C353.35 80.323 356.946 79.691 361.512 80.031C366.753 80.421 370.47 81.68 372.663 83.807C374.854 85.936 375.841 88.479 375.621 91.437C375.492 93.173 374.9 94.708 373.846 96.043C372.792 97.379 371.267 98.506 369.27 99.422C370.793 99.921 371.948 100.456 372.731 101.028C374.003 101.949 374.96 103.108 375.599 104.507C376.239 105.903 376.489 107.533 376.35 109.397C376.176 111.735 375.397 113.931 374.015 115.985C372.632 118.041 370.747 119.562 368.359 120.551C365.972 121.539 362.905 121.894 359.162 121.615C355.509 121.344 352.661 120.7 350.615 119.685C348.569 118.669 346.927 117.286 345.69 115.531C344.453 113.777 343.561 111.622 343.018 109.066L354.277 108.416C354.549 110.694 355.113 112.303 355.97 113.238C356.827 114.174 357.969 114.695 359.393 114.801C360.891 114.912 362.178 114.457 363.255 113.436C364.331 112.415 364.938 110.991 365.074 109.164C365.213 107.303 364.84 105.823 363.957 104.729C363.074 103.635 361.811 103.027 360.168 102.905C359.291 102.84 358.07 102.969 356.503 103.293L357.671 95.364C358.285 95.502 358.766 95.583 359.113 95.609C360.574 95.717 361.828 95.342 362.874 94.483C363.92 93.626 364.492 92.556 364.586 91.278C364.677 90.054 364.384 89.05 363.708 88.265C363.032 87.481 362.055 87.039 360.776 86.945C359.461 86.847 358.363 87.166 357.482 87.899C356.602 88.632 355.942 89.983 355.502 91.953Z" fill="#E57435"/>
<path d="M272.073 123.812L287.593 124.966L287.296 128.968L277.58 128.245L277.358 131.224L286.371 131.895L286.087 135.717L277.074 135.046L276.799 138.741L286.797 139.485L286.482 143.729L270.68 142.553L272.073 123.812Z" fill="#E57435"/>
<path d="M289.678 143.968L291.072 125.226L300.724 125.944C302.514 126.078 303.87 126.333 304.793 126.711C305.716 127.088 306.436 127.713 306.954 128.587C307.472 129.461 307.687 130.495 307.598 131.688C307.52 132.728 307.232 133.609 306.732 134.331C306.233 135.052 305.577 135.618 304.767 136.028C304.25 136.292 303.554 136.487 302.678 136.619C303.351 136.901 303.836 137.169 304.134 137.422C304.336 137.592 304.62 137.943 304.987 138.478C305.355 139.011 305.596 139.418 305.712 139.703L308.113 145.342L301.569 144.856L298.899 138.898C298.562 138.127 298.248 137.621 297.958 137.376C297.561 137.055 297.1 136.874 296.571 136.835L296.06 136.797L295.494 144.404L289.678 143.968ZM296.324 133.252L298.765 133.434C299.029 133.454 299.547 133.408 300.318 133.292C300.707 133.244 301.035 133.071 301.301 132.775C301.568 132.477 301.716 132.124 301.747 131.714C301.792 131.109 301.635 130.631 301.275 130.278C300.916 129.925 300.207 129.71 299.151 129.632L296.607 129.443L296.324 133.252Z" fill="#E57435"/>
<path d="M310.039 145.481L311.433 126.739L321.084 127.457C322.874 127.591 324.23 127.846 325.154 128.224C326.077 128.601 326.798 129.226 327.316 130.1C327.834 130.974 328.048 132.008 327.96 133.201C327.883 134.241 327.594 135.122 327.094 135.844C326.594 136.565 325.939 137.131 325.129 137.541C324.612 137.805 323.916 138 323.04 138.132C323.713 138.414 324.198 138.682 324.496 138.935C324.698 139.106 324.982 139.456 325.349 139.991C325.717 140.524 325.957 140.931 326.074 141.216L328.475 146.855L321.931 146.369L319.262 140.411C318.925 139.641 318.611 139.134 318.321 138.889C317.925 138.568 317.463 138.387 316.934 138.348L316.423 138.31L315.858 145.917L310.039 145.481ZM316.684 134.766L319.126 134.948C319.39 134.968 319.908 134.922 320.679 134.806C321.068 134.758 321.396 134.585 321.662 134.289C321.929 133.991 322.077 133.638 322.108 133.229C322.153 132.623 321.996 132.146 321.636 131.792C321.277 131.439 320.568 131.224 319.512 131.146L316.968 130.957L316.684 134.766Z" fill="#E57435"/>
<path d="M329.846 137.546C330.074 134.486 331.103 132.168 332.934 130.591C334.765 129.011 337.202 128.336 340.245 128.563C343.364 128.794 345.706 129.811 347.268 131.612C348.832 133.412 349.5 135.82 349.276 138.838C349.113 141.029 348.611 142.798 347.77 144.145C346.928 145.492 345.782 146.503 344.33 147.179C342.878 147.856 341.113 148.117 339.034 147.961C336.92 147.804 335.196 147.338 333.861 146.561C332.526 145.785 331.483 144.636 330.73 143.114C329.977 141.593 329.683 139.736 329.846 137.546ZM335.635 138.002C335.494 139.895 335.745 141.28 336.386 142.159C337.028 143.038 337.954 143.522 339.164 143.612C340.408 143.705 341.401 143.371 342.144 142.613C342.886 141.854 343.335 140.425 343.491 138.33C343.622 136.565 343.362 135.25 342.711 134.383C342.06 133.516 341.125 133.037 339.906 132.947C338.738 132.86 337.77 133.204 337.001 133.978C336.232 134.752 335.777 136.094 335.635 138.002Z" fill="#E57435"/>
<path d="M351.771 148.586L353.164 129.844L362.816 130.562C364.606 130.696 365.962 130.951 366.885 131.329C367.808 131.706 368.529 132.331 369.046 133.205C369.564 134.079 369.779 135.113 369.69 136.306C369.612 137.346 369.324 138.227 368.824 138.949C368.325 139.67 367.669 140.236 366.859 140.646C366.341 140.91 365.645 141.105 364.77 141.237C365.443 141.519 365.928 141.787 366.226 142.04C366.427 142.211 366.712 142.561 367.079 143.096C367.447 143.629 367.688 144.036 367.804 144.321L370.205 149.96L363.661 149.474L360.991 143.516C360.655 142.746 360.34 142.239 360.05 141.994C359.654 141.673 359.192 141.492 358.663 141.453L358.152 141.415L357.587 149.022L351.771 148.586ZM358.417 137.87L360.858 138.052C361.122 138.072 361.64 138.026 362.412 137.91C362.801 137.862 363.129 137.689 363.394 137.393C363.661 137.095 363.809 136.742 363.84 136.332C363.885 135.727 363.728 135.249 363.368 134.896C363.009 134.543 362.3 134.328 361.243 134.25L358.699 134.061L358.417 137.87Z" fill="#E57435"/>
<path d="M252.758 163.344L254.03 146.242L265.567 147.099L265.417 149.117L256.143 148.428L255.749 153.724L263.774 154.321L263.624 156.341L255.598 155.744L255.02 163.513L252.758 163.344Z" fill="#263238"/>
<path d="M267.165 156.04C267.376 153.201 268.304 151.036 269.947 149.543C271.591 148.051 273.618 147.395 276.029 147.574C277.608 147.691 279.003 148.174 280.214 149.023C281.426 149.871 282.313 150.995 282.878 152.393C283.442 153.791 283.661 155.346 283.534 157.057C283.405 158.791 282.94 160.318 282.138 161.633C281.336 162.95 280.267 163.913 278.932 164.521C277.597 165.129 276.186 165.378 274.701 165.268C273.091 165.148 271.681 164.652 270.472 163.781C269.263 162.909 268.381 161.776 267.828 160.382C267.274 158.988 267.053 157.541 267.165 156.04ZM269.495 156.248C269.342 158.309 269.775 159.975 270.795 161.242C271.815 162.51 273.161 163.206 274.833 163.331C276.536 163.457 277.982 162.963 279.172 161.848C280.361 160.733 281.038 159.075 281.202 156.873C281.306 155.481 281.16 154.248 280.768 153.175C280.374 152.102 279.746 151.245 278.882 150.607C278.019 149.968 277.023 149.606 275.896 149.522C274.294 149.403 272.874 149.851 271.638 150.866C270.401 151.881 269.687 153.676 269.495 156.248Z" fill="#263238"/>
<path d="M285.85 165.805L287.122 148.703L294.704 149.267C296.228 149.38 297.375 149.621 298.146 149.986C298.916 150.353 299.51 150.942 299.927 151.755C300.343 152.569 300.517 153.445 300.447 154.386C300.357 155.6 299.887 156.593 299.04 157.368C298.193 158.141 296.94 158.579 295.283 158.683C295.86 159.015 296.294 159.333 296.584 159.635C297.2 160.292 297.77 161.096 298.294 162.05L300.922 166.926L298.076 166.714L296.078 162.988C295.493 161.912 295.007 161.086 294.62 160.509C294.232 159.933 293.878 159.524 293.555 159.28C293.233 159.037 292.9 158.86 292.556 158.748C292.304 158.675 291.886 158.616 291.303 158.572L288.678 158.377L288.113 165.972L285.85 165.805ZM288.823 156.419L293.688 156.781C294.722 156.858 295.539 156.81 296.138 156.641C296.737 156.469 297.206 156.161 297.544 155.712C297.882 155.264 298.072 154.764 298.113 154.212C298.173 153.403 297.929 152.716 297.381 152.152C296.832 151.587 295.924 151.257 294.657 151.164L289.244 150.761L288.823 156.419Z" fill="#263238"/>
<path d="M302.975 167.078L304.247 149.976L310.663 150.454C311.97 150.551 313.004 150.803 313.768 151.207C314.531 151.613 315.11 152.191 315.504 152.943C315.897 153.696 316.065 154.464 316.006 155.251C315.952 155.982 315.702 156.655 315.257 157.27C314.813 157.886 314.175 158.364 313.345 158.701C314.356 159.081 315.113 159.657 315.615 160.428C316.117 161.201 316.33 162.085 316.257 163.08C316.197 163.882 315.973 164.612 315.584 165.276C315.194 165.939 314.737 166.438 314.212 166.775C313.686 167.111 313.042 167.346 312.277 167.482C311.512 167.616 310.586 167.643 309.497 167.562L302.975 167.078ZM305.389 165.23L309.646 165.546C310.377 165.601 310.892 165.611 311.192 165.578C311.72 165.523 312.167 165.399 312.533 165.209C312.899 165.017 313.211 164.722 313.467 164.322C313.723 163.924 313.872 163.45 313.913 162.906C313.96 162.269 313.838 161.703 313.546 161.208C313.254 160.713 312.826 160.35 312.261 160.114C311.696 159.882 310.869 159.724 309.78 159.643L305.826 159.349L305.389 165.23ZM305.976 157.332L309.674 157.606C310.677 157.681 311.401 157.668 311.846 157.568C312.434 157.439 312.889 157.189 313.21 156.814C313.531 156.438 313.714 155.951 313.758 155.352C313.8 154.786 313.701 154.275 313.462 153.823C313.221 153.371 312.855 153.048 312.361 152.85C311.867 152.653 311.006 152.508 309.777 152.416L306.359 152.162L305.976 157.332Z" fill="#263238"/>
<path d="M319.391 168.299L320.663 151.197L322.926 151.366L321.654 168.468L319.391 168.299Z" fill="#263238"/>
<path d="M325.641 168.764L326.913 151.662L332.804 152.101C334.134 152.2 335.142 152.358 335.83 152.573C336.793 152.872 337.599 153.343 338.247 153.984C339.093 154.814 339.694 155.838 340.053 157.057C340.413 158.276 340.535 159.648 340.422 161.171C340.326 162.471 340.088 163.61 339.71 164.591C339.333 165.572 338.881 166.372 338.358 166.994C337.835 167.617 337.277 168.095 336.685 168.43C336.093 168.766 335.391 169 334.58 169.137C333.768 169.271 332.846 169.3 331.811 169.223L325.641 168.764ZM328.054 166.915L331.705 167.186C332.833 167.27 333.725 167.23 334.382 167.067C335.039 166.906 335.572 166.648 335.982 166.296C336.559 165.799 337.03 165.108 337.397 164.225C337.764 163.342 337.996 162.255 338.092 160.963C338.225 159.175 338.033 157.777 337.518 156.774C337.002 155.771 336.336 155.074 335.521 154.684C334.931 154.406 333.964 154.216 332.619 154.116L329.027 153.849L328.054 166.915Z" fill="#263238"/>
<path d="M342.895 170.047L344.167 152.945L350.058 153.384C351.388 153.483 352.396 153.641 353.084 153.856C354.047 154.155 354.852 154.626 355.501 155.267C356.347 156.097 356.948 157.121 357.307 158.34C357.666 159.559 357.789 160.931 357.676 162.454C357.58 163.754 357.343 164.893 356.965 165.874C356.587 166.856 356.136 167.655 355.613 168.277C355.09 168.9 354.532 169.378 353.941 169.713C353.349 170.049 352.647 170.283 351.836 170.42C351.024 170.554 350.101 170.583 349.067 170.506L342.895 170.047ZM345.308 168.198L348.959 168.469C350.086 168.553 350.979 168.513 351.636 168.35C352.293 168.189 352.826 167.931 353.236 167.579C353.813 167.082 354.284 166.39 354.651 165.508C355.018 164.625 355.249 163.538 355.345 162.246C355.478 160.458 355.287 159.06 354.771 158.057C354.255 157.054 353.59 156.357 352.774 155.967C352.185 155.689 351.217 155.499 349.872 155.399L346.279 155.132L345.308 168.198Z" fill="#263238"/>
<path d="M360.195 171.334L361.467 154.232L373.832 155.152L373.682 157.17L363.58 156.418L363.19 161.656L372.651 162.36L372.502 164.367L363.041 163.663L362.608 169.484L373.107 170.265L372.957 172.283L360.195 171.334Z" fill="#263238"/>
<path d="M376.059 172.514L377.331 155.412L379.652 155.585L387.636 169.68L388.635 156.253L390.804 156.414L389.532 173.516L387.211 173.344L379.228 159.237L378.229 172.676L376.059 172.514Z" fill="#263238"/>
<path d="M241.877 417.458H215.691L234.724 266.283H260.911L241.877 417.458Z" fill="#E57435"/>
<path opacity="0.4" d="M241.877 417.458H215.691L234.724 266.283H260.911L241.877 417.458Z" fill="#893607"/>
<path d="M213.35 417.458H215.692L234.725 266.283H232.384L213.35 417.458Z" fill="#E57435"/>
<path d="M339.527 417.458H313.34L332.374 266.283H358.561L339.527 417.458Z" fill="#E57435"/>
<path opacity="0.4" d="M339.527 417.458H313.34L332.374 266.283H358.561L339.527 417.458Z" fill="#893607"/>
<path d="M310.998 417.458H313.34L332.374 266.282H330.032L310.998 417.458Z" fill="#893607"/>
<path d="M266.116 399.468H361.076L356.933 366.563H261.973L266.116 399.468Z" fill="#E57435"/>
<path d="M266.116 399.468H264.561L260.418 366.563H261.973L266.116 399.468Z" fill="#E57435"/>
<path d="M355.844 368L359.625 398.032H354.015L338.949 368H355.844Z" fill="#FCEEE7"/>
<path d="M329.381 368L344.447 398.032H323.843L308.777 368H329.381Z" fill="#FCEEE7"/>
<path d="M299.209 368L314.276 398.032H293.671L278.605 368H299.209Z" fill="#FCEEE7"/>
<path d="M269.045 368L284.111 398.032H267.209L263.428 368H269.045Z" fill="#FCEEE7"/>
<path d="M351.981 417.458H378.168L359.134 266.283H332.947L351.981 417.458Z" fill="#E57435"/>
<path opacity="0.2" d="M341.426 333.632L368.976 344.456L361.072 281.677H334.885L341.426 333.632Z" fill="black"/>
<path d="M351.98 417.458H349.639L330.605 266.283H332.946L351.98 417.458Z" fill="#E57435"/>
<path d="M254.337 417.458H280.524L261.49 266.283H235.303L254.337 417.458Z" fill="#E57435"/>
<path opacity="0.2" d="M243.782 333.632L271.331 344.456L263.427 281.677H237.24L243.782 333.632Z" fill="black"/>
<path d="M254.337 417.458H251.995L232.961 266.283H235.303L254.337 417.458Z" fill="#E57435"/>
<path d="M233.322 326.656H376.316L370.077 277.107H227.084L233.322 326.656Z" fill="#E57435"/>
<path d="M233.322 326.656H230.981L224.742 277.107H227.084L233.322 326.656Z" fill="#E57435"/>
<path d="M368.432 279.272L374.126 324.494H365.677L342.99 279.272H368.432Z" fill="#FCEEE7"/>
<path d="M328.581 279.272L351.268 324.494H320.242L297.555 279.272H328.581Z" fill="#FCEEE7"/>
<path d="M283.152 279.272L305.839 324.494H274.812L252.125 279.272H283.152Z" fill="#FCEEE7"/>
<path d="M237.726 279.272L260.413 324.494H234.962L229.268 279.272H237.726Z" fill="#FCEEE7"/>
</g>
<defs>
<clipPath id="clip0_526_3513">
<rect width="500" height="500" fill="white"/>
</clipPath>
</defs>
</svg>
