<svg width="317" height="316" viewBox="0 0 317 316" fill="none" xmlns="http://www.w3.org/2000/svg">
<path d="M217.401 122.821C170.96 120.431 131.381 156.016 128.999 202.303C126.617 248.589 162.334 288.049 208.775 290.439C255.216 292.829 294.794 257.244 297.176 210.957C299.558 164.671 263.841 125.211 217.401 122.821Z" fill="#F2BB9B"/>
<path d="M58.1241 179.009C34.9037 177.814 15.1144 195.607 13.9235 218.75C12.7325 241.893 30.5909 261.623 53.8112 262.818C77.0316 264.013 96.8209 246.221 98.0119 223.077C99.2029 199.934 81.3445 180.204 58.1241 179.009Z" fill="#F2BB9B"/>
<path d="M119.034 26.3781C89.8041 24.8738 64.8929 47.2715 63.3937 76.4046C61.8945 105.538 84.375 130.374 113.605 131.878C142.835 133.383 167.747 110.985 169.246 81.8519C170.745 52.7187 148.265 27.8823 119.034 26.3781Z" fill="#F2BB9B" fill-opacity="0.4"/>
<path d="M265.878 66.157C254.456 65.5693 244.721 74.3214 244.135 85.7055C243.55 97.0896 252.334 106.795 263.756 107.382C275.178 107.97 284.912 99.2181 285.498 87.8341C286.084 76.45 277.3 66.7448 265.878 66.157Z" fill="#FCEEE7"/>
</svg>
