<svg width="24" height="24" viewBox="0 0 24 24" fill="none" xmlns="http://www.w3.org/2000/svg">
<path d="M9 10C10.1046 10 11 9.10457 11 8C11 6.89543 10.1046 6 9 6C7.89543 6 7 6.89543 7 8C7 9.10457 7.89543 10 9 10Z" stroke="#FEFEFE" strokeWidth="1.5" stroke-linecap="round" stroke-linejoin="round"/>
<path d="M13 2H9C4 2 2 4 2 9V15C2 20 4 22 9 22H15C20 22 22 20 22 15V10" stroke="#FEFEFE" strokeWidth="1.5" stroke-linecap="round" stroke-linejoin="round"/>
<path d="M19.1389 2.59L15.5089 6.22C15.3689 6.36 15.2289 6.63 15.2089 6.83L15.0089 8.22C14.9389 8.72 15.2889 9.07 15.7889 9L17.1789 8.8C17.3689 8.77 17.6489 8.64 17.7889 8.5L21.4189 4.87C22.0489 4.24 22.3389 3.52 21.4189 2.6C20.4889 1.66 19.7689 1.96 19.1389 2.59Z" stroke="#FEFEFE" strokeWidth="1.5" strokeMiterlimit="10" stroke-linecap="round" stroke-linejoin="round"/>
<path d="M18.6211 3.10999C18.9311 4.20999 19.7911 5.06999 20.8911 5.37999" stroke="#FEFEFE" strokeWidth="1.5" strokeMiterlimit="10" stroke-linecap="round" stroke-linejoin="round"/>
<path d="M2.67188 18.95L7.60187 15.64C8.39187 15.11 9.53187 15.17 10.2419 15.78L10.5719 16.07C11.3519 16.74 12.6119 16.74 13.3919 16.07L17.5519 12.5C18.3319 11.83 19.5919 11.83 20.3719 12.5L22.0019 13.9" stroke="#FEFEFE" strokeWidth="1.5" stroke-linecap="round" stroke-linejoin="round"/>
</svg>
